<svg width="35" height="42" viewBox="0 0 35 42" fill="none" xmlns="http://www.w3.org/2000/svg">
<path d="M5.87309 22.7485C5.87309 22.7485 2.65402 19.7195 7.9666 17.2327C13.2792 14.746 28.3052 15.7715 29.9148 17.2327C31.5243 18.6939 32.436 21.344 30.4505 23.1818C28.4651 25.0196 14.0828 26.1019 5.87309 22.7485Z" fill="#BB5E21"/>
<path d="M10.0556 21.0534C12.0636 22.1515 14.4745 22.3829 16.7707 22.3829C20.1563 22.3829 24.2893 22.3262 27.3305 20.7062C28.6227 20.0165 29.6379 19.0227 30.5428 17.9086C30.3515 17.6636 30.1399 17.4344 29.9148 17.2302C28.3053 15.769 13.2792 14.7412 7.96662 17.2302C7.51415 17.4412 7.12471 17.6591 6.78705 17.8769C7.59969 19.1815 8.60143 20.3001 10.0556 21.0534Z" fill="#A04415"/>
<path opacity="0.5" d="M29.9148 17.2302C28.9918 16.3929 23.6612 15.6986 18.2789 15.7259C19.6475 16.6924 20.9329 17.7271 22.108 18.739C23.8953 20.3159 25.802 22.1832 27.1099 24.3274C28.7712 24.0233 29.9733 23.624 30.4505 23.1816C32.436 21.3415 31.5243 18.6914 29.9148 17.2302Z" fill="#BB5E21"/>
<path d="M6.49032 17.3913C7.17241 19.1406 11.4225 21.7181 18.5224 21.7181C25.6201 21.7181 29.1093 19.093 29.4312 16.0798C29.7531 13.0644 27.5538 10.6843 24.9223 10.3054C22.293 9.92878 11.8299 11.2811 10.7561 11.1177C9.68463 10.9566 4.79975 13.0667 6.49032 17.3913Z" fill="#EF4E3C"/>
<path d="M10.2852 16.1368C11.7777 15.9053 13.2724 15.6739 14.8212 15.5015C16.944 15.2111 18.5242 15.3132 20.5907 14.7346C23.0242 14.0335 24.78 12.6653 25.2415 10.3669C25.1357 10.3442 25.0299 10.3238 24.9219 10.3102C22.2926 9.92901 11.8295 11.2813 10.7557 11.1179C9.68195 10.9568 4.79933 13.0647 6.4899 17.3915C6.75328 18.0631 7.54341 18.8595 8.81978 19.5833C8.17597 18.0699 8.36056 16.4136 10.2852 16.1368Z" fill="#FF5D55"/>
<path d="M8.82427 12.8601C10.2515 12.6877 11.368 13.4841 12.6376 14.0128C14.1549 14.6458 15.7982 14.8795 17.4167 15.0678C18.8394 15.2312 20.4197 15.1744 21.7478 14.5868C23.2898 13.9061 24.6202 12.3632 26.4436 12.7648C26.6124 12.8011 26.6799 12.5584 26.5156 12.5062C25.2595 12.0978 24.2263 12.5947 23.1457 13.2436C21.2998 14.3531 19.5372 14.6072 17.4167 14.403C15.4357 14.2124 13.5538 13.9265 11.7237 13.1029C10.9065 12.7331 9.57839 12.0229 8.77925 12.7535C8.74098 12.7853 8.76799 12.8669 8.82427 12.8601Z" fill="#DA3D38"/>
<path d="M9.0539 13.9812C8.86706 14.0288 8.67347 14.2421 8.5384 14.3714C8.34706 14.5552 8.19399 14.8502 8.28403 15.1179C8.32455 15.2404 8.49338 15.3108 8.59018 15.1996C8.7275 15.0408 8.79953 14.8366 8.87157 14.6414C8.94135 14.4531 9.10343 14.2557 9.13269 14.0606C9.13944 14.0129 9.10568 13.9698 9.0539 13.9812Z" fill="white"/>
<path d="M10.8211 14.2762C10.6927 14.1877 10.5284 14.3625 10.6095 14.4895C10.8188 14.823 11.1497 15.0772 11.5211 15.202C11.753 15.2791 11.8971 14.9728 11.7463 14.8117C11.4964 14.5394 11.116 14.4804 10.8211 14.2762Z" fill="#47C9C0"/>
<path d="M11.1587 17.2122C11.0844 17.3596 10.9764 17.4731 10.8615 17.5888C10.7377 17.7136 10.6657 17.8361 10.6139 18.004C10.5622 18.1787 10.7963 18.3194 10.9201 18.1833C10.9673 18.1333 11.0169 18.088 11.0686 18.0426C11.1339 17.9881 11.1812 17.8883 11.2307 17.8202C11.3343 17.6728 11.4243 17.5207 11.4806 17.3483C11.5414 17.1577 11.2487 17.0352 11.1587 17.2122Z" fill="white"/>
<path d="M15.7014 16.3046C15.483 16.6473 15.2129 16.9604 15.0756 17.3483C15.0125 17.5253 15.2489 17.6342 15.3705 17.5208C15.6879 17.2281 15.8229 16.8106 15.9332 16.4045C15.9715 16.2593 15.7779 16.1821 15.7014 16.3046Z" fill="white"/>
<path d="M18.0718 19.4696C17.8917 19.4084 17.7093 19.3517 17.5292 19.2927C17.4347 19.2632 17.3852 19.3993 17.464 19.4492C17.626 19.5513 17.7904 19.6534 17.9524 19.7578C18.1055 19.8554 18.2158 19.9484 18.4049 19.9212C18.4995 19.9075 18.5287 19.785 18.4882 19.7124C18.4004 19.5559 18.2316 19.5241 18.0718 19.4696Z" fill="#47C9C0"/>
<path d="M22.3871 17.0534C22 16.9127 21.507 17.2303 21.2076 17.4459C21.0815 17.5366 21.1558 17.7862 21.3224 17.7182C21.507 17.641 21.6961 17.5843 21.8919 17.5412C22.0585 17.5026 22.2881 17.4527 22.4277 17.3506C22.5425 17.2689 22.5267 17.1033 22.3871 17.0534Z" fill="white"/>
<path d="M24.8296 14.5439C24.6428 14.4441 24.4447 14.3602 24.2421 14.2966C24.0687 14.2422 23.9472 14.519 24.1182 14.5939C24.2781 14.6665 24.4266 14.7527 24.5752 14.8502C24.7395 14.9592 24.8836 15.1089 25.084 15.1429C25.2235 15.1656 25.3541 15.0318 25.2753 14.8934C25.1718 14.7164 25.0007 14.6347 24.8296 14.5439Z" fill="#47C9C0"/>
<path d="M28.1521 14.1445C27.8235 14.0719 27.4521 14.2125 27.1842 14.4054C27.0446 14.5075 27.1639 14.7162 27.3192 14.6391C27.5871 14.5075 27.882 14.5529 28.1521 14.444C28.2827 14.3918 28.3165 14.1808 28.1521 14.1445Z" fill="#47C9C0"/>
<path d="M27.0897 16.9966C26.8916 16.8695 26.6912 16.9308 26.4796 16.9966C26.3648 17.0306 26.2613 17.0964 26.1442 17.1282C26.0542 17.1531 25.9799 17.1622 25.9101 17.228C25.8854 17.253 25.8718 17.2961 25.8831 17.3324C25.9529 17.5366 26.187 17.5298 26.3671 17.5161C26.6147 17.498 26.8893 17.4435 27.0874 17.2915C27.1887 17.2121 27.2045 17.0692 27.0897 16.9966Z" fill="white"/>
<path d="M28.1297 12.0253C28.5619 13.4661 28.7577 14.9635 28.1342 16.3657C26.9276 19.0839 23.5419 20.1843 20.9599 20.8764C19.5575 21.2258 18.1393 21.4799 16.7121 21.6569C17.2929 21.6954 17.8962 21.7159 18.522 21.7159C25.6197 21.7159 29.1089 19.0907 29.4308 16.0776C29.6019 14.4825 29.0639 13.0645 28.1297 12.0253Z" fill="#DA3D38"/>
<path d="M19.5552 16.3681C18.7066 16.6925 17.9705 17.2552 17.1196 17.5774C16.6919 17.7385 16.1854 17.6818 15.7374 17.6795C15.2174 17.6773 14.6794 17.8565 14.1594 17.8973C13.2207 17.9699 13.0676 17.1463 12.6466 16.5156C11.9623 15.4877 10.776 15.7577 9.84853 16.2456C9.13943 16.6199 8.54514 16.8468 7.98912 16.0618C7.38358 15.2087 7.74375 13.9789 8.257 13.1871C8.31778 13.094 8.19622 12.967 8.10393 13.0305C6.66098 14.0152 5.77405 15.7441 6.95587 17.3188C7.44436 17.9722 8.28402 18.4736 9.11917 18.2173C9.95883 17.9609 10.4293 17.1713 11.2284 16.8582C11.843 16.6154 12.3112 17.9336 12.6421 18.2967C13.1914 18.8979 14.2111 18.637 14.873 18.4646C15.9783 18.1764 17.0768 18.3783 18.1663 17.979C18.6616 17.7975 19.1253 17.4889 19.6025 17.2575C20.2396 16.9489 20.7776 17.346 21.3651 16.9467C21.597 16.7878 21.6983 16.4203 21.4597 16.2115C20.7393 15.5762 20.3139 16.0777 19.5552 16.3681Z" fill="#FF2966"/>
<path d="M23.4271 15.4992C23.1705 15.4016 22.8599 15.3676 22.5965 15.4492C22.2813 15.5468 21.9324 15.9121 22.2453 16.2343C22.3669 16.3591 22.5312 16.3727 22.6843 16.434C22.8284 16.4907 22.9859 16.5202 23.13 16.5769C23.4114 16.6858 23.7355 16.4589 23.8098 16.1866C23.8999 15.8713 23.7085 15.6081 23.4271 15.4992Z" fill="#FF2966"/>
<path d="M24.8971 15.946C24.8453 15.9097 24.8003 15.8825 24.735 15.8621C24.5684 15.8076 24.4378 15.8553 24.305 15.9596C24.242 16.0073 24.2015 16.0776 24.1565 16.1411C24.1159 16.2001 24.1159 16.3045 24.1565 16.3635C24.2015 16.427 24.242 16.4974 24.305 16.545C24.4221 16.6358 24.5526 16.6993 24.7057 16.6517C24.7755 16.629 24.8363 16.5995 24.8971 16.5586C25.1244 16.4043 25.1244 16.1003 24.8971 15.946Z" fill="#FF2966"/>
<path d="M27.2157 13.5682C26.7047 13.2868 26.1172 13.6022 25.8898 14.1059C25.7525 14.4122 25.73 14.7367 25.6624 15.0611C25.5949 15.3879 25.327 15.71 25.3946 16.0504C25.4058 16.1094 25.4711 16.1343 25.5251 16.123C26.0406 16.0232 26.3107 15.2835 26.4661 14.8547C26.5314 14.6754 26.5561 14.4463 26.725 14.3328C26.9478 14.1853 27.1369 14.1059 27.299 13.8813C27.3665 13.7792 27.3147 13.6249 27.2157 13.5682Z" fill="#FF2966"/>
<path d="M27.4746 12.52C27.1865 12.52 26.9478 12.7605 26.9478 13.0509C26.9478 13.3413 27.1887 13.5818 27.4746 13.5818C27.7627 13.5818 28.0014 13.3413 28.0014 13.0509C28.0014 12.7628 27.7605 12.52 27.4746 12.52Z" fill="#FF2966"/>
<path d="M10.8638 12.4155C11.9668 13.9244 19.3954 16.1479 23.3663 13.4978C27.3373 10.8477 24.8701 7.76426 23.3663 6.7909C21.8649 5.81753 19.0195 6.89753 16.98 6.46644C14.9405 6.03308 12.7952 7.00644 11.8295 8.08872C10.8638 9.17099 10.1119 11.3877 10.8638 12.4155Z" fill="#FF8DA0"/>
<path d="M22.3376 8.44257C21.5903 9.65871 20.9037 11.1607 19.3527 11.4512C17.8602 11.6826 16.541 10.7001 15.2197 10.2373C14.1301 9.77442 12.6377 9.65871 12.6939 11.2787C12.6939 12.2725 13.2004 13.1869 13.8262 13.9946C16.6468 14.8772 20.7528 15.2425 23.3664 13.5C27.0964 11.011 25.147 8.1408 23.65 6.995C23.1638 7.29222 22.7316 7.75281 22.3376 8.44257Z" fill="#FF7D9C"/>
<path d="M13.367 8.3539C13.2477 8.2881 13.1126 8.26314 12.982 8.24272C12.928 8.23365 12.8537 8.24499 12.829 8.30625C12.82 8.32894 12.8132 8.34482 12.811 8.36751C12.811 8.36978 12.811 8.37205 12.811 8.37432C12.8065 8.43785 12.856 8.48776 12.91 8.50591C12.9933 8.53541 13.0743 8.56491 13.1509 8.61255C13.2229 8.65566 13.2589 8.72827 13.322 8.78045C13.4165 8.8576 13.6168 8.82356 13.5988 8.66474C13.5786 8.51045 13.4975 8.4265 13.367 8.3539Z" fill="#47C9C0"/>
<path d="M13.3873 10.809C13.0474 10.6638 12.7975 11.0223 12.5926 11.2356C12.4598 11.374 12.6332 11.6122 12.7997 11.5056C12.9055 11.4398 13.0046 11.3649 13.1126 11.3036C13.2387 11.231 13.3535 11.1834 13.4593 11.0813C13.5561 10.9882 13.4953 10.8544 13.3873 10.809Z" fill="white"/>
<path d="M15.1364 11.7641C15.1229 11.8843 15.0958 12.0023 15.0733 12.1203C15.0441 12.27 15.0508 12.3948 15.0846 12.5446C15.1251 12.7306 15.4065 12.7238 15.4515 12.5446C15.5145 12.2836 15.5145 12.0318 15.4898 11.7641C15.4673 11.5326 15.1634 11.5372 15.1364 11.7641Z" fill="#47C9C0"/>
<path d="M18.02 12.699C18.0043 13.0098 17.8084 13.2912 17.885 13.6043C17.9165 13.7381 18.0876 13.7404 18.1551 13.6406C18.3352 13.3706 18.3532 12.9735 18.2564 12.6672C18.2136 12.5333 18.0268 12.5628 18.02 12.699Z" fill="white"/>
<path d="M20.7078 12.3973C20.4377 12.2589 20.1541 12.1477 19.8727 12.0365C19.7241 11.9775 19.6183 12.2317 19.7646 12.2952C20.0303 12.4132 20.2936 12.5334 20.5457 12.6786C20.7281 12.7853 20.8924 12.4926 20.7078 12.3973Z" fill="#47C9C0"/>
<path d="M22.6955 11.3762C22.6978 11.1788 22.4209 11.1901 22.3984 11.3762C22.3691 11.6393 22.4637 11.9479 22.6685 12.1204C22.7676 12.2043 22.9769 12.1272 22.9161 11.9751C22.8351 11.7732 22.6933 11.603 22.6955 11.3762Z" fill="white"/>
<path d="M24.2713 9.99902C23.9922 9.79028 23.5397 9.84247 23.2178 9.90827C23.076 9.93776 23.1098 10.1624 23.2516 10.1601C23.4227 10.1556 23.587 10.176 23.7536 10.2168C23.9246 10.2577 24.062 10.3008 24.2375 10.26C24.3681 10.2305 24.3591 10.0671 24.2713 9.99902Z" fill="#47C9C0"/>
<path d="M22.8508 8.36989C23.1165 8.26325 23.3866 8.33359 23.6567 8.38804C23.8301 8.42208 23.9494 8.18157 23.7805 8.09081C23.6027 7.99325 23.4541 7.95014 23.2493 7.96829C23.0714 7.98417 22.9049 8.0477 22.7563 8.1498C22.655 8.22241 22.718 8.42434 22.8508 8.36989Z" fill="white"/>
<path d="M24.8723 8.30417C25.0524 9.1119 25.0749 9.93099 24.7485 10.6979C24.0034 12.4926 21.7073 13.1279 19.9852 13.475C18.029 13.8608 16.0345 14.0241 14.0288 14.0536C16.8404 14.8931 20.8181 15.2017 23.3686 13.5C26.0587 11.703 25.7908 9.70636 24.8723 8.30417Z" fill="#FF5F89"/>
<path d="M14.3372 7.09705C12.8627 6.86562 11.9218 8.27689 11.2712 9.40909C10.5171 10.7228 11.7529 11.5237 12.8019 11.9571C13.1261 12.091 13.7564 12.4381 14.0153 11.9911C14.3124 11.4783 13.5223 11.1516 13.2026 10.9996C12.9145 10.8612 12.6129 10.7228 12.363 10.5186C12.0208 10.2372 12.3202 9.87648 12.5048 9.59287C12.9978 8.83051 13.5786 7.82084 14.371 7.3421C14.461 7.28764 14.4588 7.11521 14.3372 7.09705Z" fill="#FF9FC4"/>
<path d="M15.9602 12.1978C16.1448 12.318 16.3474 12.4156 16.5343 12.5358C16.7661 12.6833 17.106 12.8648 17.3874 12.8285C17.8377 12.7741 17.9164 12.2204 17.4932 12.0457C17.2141 11.9323 16.8787 11.8642 16.5815 11.8211C16.3407 11.7848 16.057 11.8007 15.913 12.023C15.877 12.082 15.904 12.1614 15.9602 12.1978Z" fill="#FF9FC4"/>
<path d="M15.1702 10.31C15.805 10.8999 16.9215 10.8659 17.7229 10.9453C18.6076 11.0338 19.7601 11.2198 20.6291 10.934C21.579 10.6209 21.1918 9.14833 20.2149 9.41833C18.7359 9.82673 16.5005 8.6537 15.1702 9.70194C14.9923 9.84261 15.0148 10.1648 15.1702 10.31Z" fill="#E85885"/>
<path d="M19.4495 5.60653C18.4905 5.25258 16.3475 5.19358 15.5596 6.32351C14.7717 7.45343 14.3215 9.73823 16.8967 11.0406C19.4697 12.3407 21.7861 10.0105 21.5407 7.91629C21.2931 5.81981 19.9605 5.79485 19.4495 5.60653Z" fill="#F14C46"/>
<path d="M21.5385 7.91629C21.2931 5.82208 19.9582 5.79485 19.4472 5.60653C19.3301 5.56342 19.1951 5.52485 19.0465 5.49309C18.9475 5.74721 18.9092 6.00133 19.0082 6.22141C19.2063 6.77049 19.9492 6.67066 20.1968 7.16982C20.494 7.81873 19.7511 8.91689 19.5035 9.51588C19.1703 10.2351 18.8349 10.9498 18.1506 11.4036C20.1721 11.5647 21.7433 9.65882 21.5385 7.91629Z" fill="#CF3B3B"/>
<path d="M19.0173 6.94739C18.9452 5.76528 19.5778 4.91897 20.4287 4.15434C20.9645 3.67106 21.48 3.27627 21.8829 2.65232C22.3534 1.92172 22.4187 0.998274 22.3376 0.176924C22.3241 0.0339818 22.529 -0.0771953 22.5853 0.0770914C22.9995 1.18433 22.6483 2.35282 21.9144 3.29442C21.5092 3.81174 20.9532 4.18157 20.449 4.58544C19.6386 5.23435 19.3212 5.98309 19.0826 6.961C19.0713 6.9973 19.0195 6.98142 19.0173 6.94739Z" fill="#3EADA4"/>
<path d="M18.5805 5.93999C18.1371 6.93151 19.8524 7.41252 20.3589 6.69554C20.4084 6.6252 20.3364 6.54579 20.2643 6.55487C19.9244 6.59344 19.6746 6.72277 19.3234 6.60932C18.9992 6.50495 18.8439 6.20999 18.6931 5.93091C18.6638 5.881 18.6008 5.89234 18.5805 5.93999Z" fill="#CF3B3B"/>
<path d="M19.544 7.76644C19.6386 7.95249 19.6363 8.11812 19.6296 8.31779C19.6206 8.53334 19.5418 8.72393 19.6228 8.93267C19.6813 9.08468 19.8794 9.08468 19.9897 9.003C20.2036 8.84191 20.2306 8.41762 20.1676 8.17258C20.1 7.90938 19.956 7.68022 19.6881 7.59854C19.589 7.56905 19.4968 7.67115 19.544 7.76644Z" fill="#FFA8A1"/>
<path d="M19.4788 9.56349C19.436 9.60433 19.4292 9.66106 19.3887 9.70416C19.3617 9.73139 19.3257 9.74501 19.2987 9.76996C19.2671 9.79946 19.2491 9.8403 19.2266 9.8766C19.1681 9.96963 19.2491 10.1375 19.3729 10.0921C19.4225 10.074 19.4833 10.0604 19.5238 10.0241C19.571 9.98097 19.5981 9.91517 19.6206 9.85618C19.6588 9.75635 19.6588 9.62929 19.5755 9.55668C19.5508 9.534 19.5013 9.5408 19.4788 9.56349Z" fill="#FFA8A1"/>
<path d="M17.1624 6.29173C16.7707 6.13972 16.0616 6.67291 16.2709 7.11081C16.3092 7.18796 16.4015 7.21292 16.4758 7.17661C16.6401 7.10174 16.7279 6.93384 16.8382 6.80224C16.9508 6.67064 17.0588 6.57081 17.1984 6.46871C17.2682 6.41879 17.2299 6.31669 17.1624 6.29173Z" fill="#FFA8A1"/>
<path d="M21.2729 11.8801C21.3449 11.7212 21.4957 11.6441 21.6285 11.6055C21.8761 11.5307 22.1193 11.483 22.3241 11.3128C22.52 11.1495 22.4232 10.7502 22.1665 10.7093C21.5813 10.6163 20.548 11.179 20.9937 11.8801C21.0522 11.9731 21.2188 11.9981 21.2729 11.8801Z" fill="#FF9FC4"/>
<path d="M12.4193 9.80394C14.461 9.77218 15.8859 11.3854 17.8692 11.6009C18.7876 11.7008 19.6453 11.6259 20.4962 11.2447C20.9532 11.0405 21.3651 10.682 21.7793 10.4052C22.2858 10.0671 22.8328 9.87201 23.4001 9.67235C23.5307 9.62697 23.5149 9.41596 23.3663 9.4205C22.601 9.44546 21.9436 9.77445 21.2886 10.1488C20.0775 10.8363 19.042 11.1948 17.635 10.9634C15.7891 10.6616 14.3417 9.21403 12.3967 9.62243C12.2932 9.64512 12.318 9.80621 12.4193 9.80394Z" fill="#FF5F89"/>
<path d="M4.65526 21.7204C4.26582 21.7658 6.52367 25.4188 7.39484 28.0984C8.26601 30.7757 8.87606 32.9947 9.13269 33.3714C9.38706 33.748 11.6742 36.051 18.504 36.0078C25.3316 35.967 27.6975 34.1246 27.864 33.7072C28.0306 33.2897 29.9395 25.3802 30.894 23.497C31.8485 21.6138 31.6549 21.1033 31.5828 21.2372C31.5108 21.371 31.3105 21.8339 31.1439 21.7227C30.9773 21.6138 30.4798 21.1124 30.3132 21.2167C30.1466 21.3211 30.1894 22.1583 29.9395 22.1583C29.6897 22.1583 29.0256 21.4981 28.8613 21.7227C28.6947 21.9473 28.4538 22.9956 28.2625 22.9094C28.0711 22.8254 27.4183 22.24 27.1212 22.324C26.824 22.4079 26.286 23.286 26.0767 23.3699C25.8696 23.4539 25.6737 22.6167 25.2955 22.7006C24.9151 22.7846 23.9674 23.7738 23.7603 23.7738C23.5532 23.7738 22.8981 23.1181 22.6618 23.1181C22.4254 23.1181 21.2076 24.0393 21.1175 23.9984C21.0275 23.9553 20.3409 23.202 20.2418 23.286C20.1428 23.3699 19.4359 24.2072 19.1883 24.2503C18.9384 24.2911 18.4094 23.4403 18.2474 23.3563C18.083 23.2724 16.9462 24.2072 16.7819 24.2503C16.6153 24.2911 16.0525 23.2043 15.94 23.2043C15.8274 23.2043 14.7064 24.0824 14.5398 24.0415C14.3732 24.0007 13.959 22.8685 13.7519 22.9116C13.5448 22.9547 12.7524 23.7852 12.5453 23.7035C12.3382 23.6195 12.0726 22.6189 11.8115 22.7029C11.5504 22.7868 10.857 23.2179 10.5171 23.134C10.1772 23.05 9.74949 22.0199 9.41632 22.0199C9.08541 22.0199 8.36281 22.78 8.29078 22.6961C8.21649 22.6121 8.02064 21.582 7.81354 21.7227C7.60644 21.8634 6.8996 22.24 6.73302 22.1992C6.56644 22.1583 6.41787 21.126 6.14098 21.2031C5.8596 21.2757 5.15275 21.6614 4.65526 21.7204Z" fill="#FFCBD8"/>
<path d="M31.5829 21.2325C31.5108 21.3664 31.3105 21.8292 31.1439 21.718C30.9773 21.6091 30.4798 21.1077 30.3133 21.2121C30.1467 21.3165 30.1894 22.1537 29.9396 22.1537C29.6897 22.1537 29.0256 21.4934 28.8613 21.718C28.6947 21.9427 28.4539 22.9909 28.2625 22.9047C28.0802 22.8253 27.4791 22.2898 27.1662 22.3125C27.1167 23.2881 26.608 27.1272 25.066 29.3757C24.9039 29.6116 25.8786 24.797 26.0767 23.3653C24.654 29.3031 22.8621 32.9447 22.5627 33.3485C21.7884 35.3316 20.8091 34.154 20.8091 34.154C20.2149 35.1614 19.0443 35.0661 19.1231 33.3327C18.36 34.6123 15.5236 34.5828 14.0761 34.5261C12.7075 34.4739 11.3073 34.0224 9.93861 33.7184C9.72251 33.6685 9.50865 33.6117 9.2948 33.5527C9.94762 34.2198 12.4261 36.0372 18.5018 36.0009C25.3293 35.9601 27.6952 34.1177 27.8618 33.7002C28.0284 33.2827 29.9373 25.3733 30.8918 23.4901C31.8508 21.6091 31.6549 21.1009 31.5829 21.2325Z" fill="#FFCBD8"/>
<path d="M11.7755 26.29C12.0434 25.4823 11.9758 24.5747 11.9758 23.767C11.9916 23.4584 12.0164 23.1566 12.0366 22.8549C11.9601 22.7437 11.8835 22.6733 11.807 22.6983C11.6427 22.7505 11.3073 22.9411 10.9966 23.0545C11.0979 23.6172 11.2172 24.1799 11.3433 24.7426C11.4423 25.2463 11.4761 25.8181 11.7755 26.29Z" fill="#FFD9E1"/>
<path d="M9.4073 24.2389C9.67518 25.0466 9.77423 26.0222 10.2087 26.7619C10.3077 26.2582 10.2087 25.6864 10.1412 25.1805C10.0421 24.5066 10.0083 23.835 9.97457 23.1634C9.96107 22.9161 9.9183 22.6665 9.87102 22.4169C9.7112 22.1991 9.55362 22.0153 9.41405 22.0153C9.26098 22.0153 9.02687 22.1764 8.81076 22.3421C8.81976 22.3693 8.83102 22.3942 8.84002 22.4215C9.07189 22.9932 9.24072 23.6331 9.4073 24.2389Z" fill="#FFD9E1"/>
<path d="M6.77129 25.0103C6.57094 24.3047 6.43813 23.565 6.33683 22.8253C6.25128 22.274 6.14098 21.7453 6.06895 21.2235C5.75829 21.3324 5.11898 21.6659 4.65526 21.7204C4.57422 21.7295 4.61024 21.8996 4.72279 22.1832C5.17076 22.7913 5.44314 23.5809 5.70202 24.2048C5.71552 24.2411 5.73353 24.2774 5.74704 24.3138C5.96314 24.7494 6.1905 25.2145 6.41111 25.6864C6.65423 26.1289 6.91761 26.56 7.16973 26.9616C7.16973 26.29 6.93787 25.6501 6.77129 25.0103Z" fill="#FFD9E1"/>
<path d="M30.0948 21.929C28.9468 26.2059 27.1054 30.3535 26.3445 34.7302C26.8397 32.7336 28.9377 26.3012 30.2029 21.9585C30.2231 21.8904 30.1128 21.8587 30.0948 21.929Z" fill="#FFD9E1"/>
<path d="M28.2827 22.9023C28.2737 22.8819 28.24 22.8819 28.2422 22.9069C28.276 23.676 27.4071 26.8593 27.1819 27.7646C26.7025 29.6978 26.0226 31.5719 25.6557 33.5345C25.6535 33.5436 25.667 33.5481 25.6692 33.539C26.2095 31.4879 26.9546 29.5049 27.4701 27.447C27.6907 26.5689 28.5168 23.524 28.2827 22.9023Z" fill="#FFD9E1"/>
<path d="M26.0654 23.3675C25.7345 26.9887 24.314 30.3581 23.9133 33.9543C23.9111 33.9634 23.9246 33.9634 23.9268 33.9566C24.5684 30.4329 26.0902 26.9842 26.0924 23.3675C26.0924 23.3494 26.0654 23.3494 26.0654 23.3675Z" fill="#FFD9E1"/>
<path d="M23.8706 34.2061C23.8593 34.5963 23.8143 34.9866 23.8008 35.3768C23.7985 35.4222 23.8728 35.4222 23.8706 35.3768C23.8638 34.9866 23.8908 34.5963 23.8841 34.2061C23.8863 34.197 23.8728 34.197 23.8706 34.2061Z" fill="#FFD9E1"/>
<path d="M23.8233 23.7827C22.9859 27.6194 22.6302 31.6808 22.252 35.5879C22.2475 35.6446 22.3421 35.656 22.3488 35.6015C22.5987 33.7637 22.8171 31.9213 23.0489 30.0812C23.3123 27.987 23.6905 25.8928 23.8526 23.7872C23.8526 23.7713 23.8278 23.7668 23.8233 23.7827Z" fill="#FFD9E1"/>
<path d="M21.0747 23.996C21.0769 26.0312 21.1782 28.0619 21.0837 30.0994C20.9914 32.0484 20.5975 33.9679 20.5907 35.9237C20.5907 35.9872 20.6875 35.9872 20.6897 35.9237C20.737 33.9702 21.1377 32.0507 21.2413 30.0994C21.3471 28.0732 21.2998 26.0176 21.1197 23.996C21.1152 23.9688 21.0747 23.9688 21.0747 23.996Z" fill="#FFD9E1"/>
<path d="M19.0892 24.2478C19.0195 26.0062 19.105 27.7782 19.1005 29.5389C19.096 31.4471 18.9609 33.3938 19.1298 35.2952C19.132 35.3133 19.159 35.3133 19.159 35.2952C19.1433 31.6241 19.5169 27.9098 19.1185 24.2478C19.1163 24.2296 19.0915 24.2274 19.0892 24.2478Z" fill="#FFD9E1"/>
<path d="M16.7211 30.0087C16.8021 28.1028 17.0317 26.0336 16.5838 24.1594C16.5793 24.1436 16.5568 24.1481 16.5568 24.164C16.5365 26.2468 16.6198 28.3138 16.5388 30.4012C16.4667 32.264 16.3969 34.154 16.7819 35.9896C16.8044 36.0962 16.9687 36.0509 16.9439 35.9442C16.5207 33.9929 16.6378 31.9872 16.7211 30.0087Z" fill="#FFD9E1"/>
<path d="M18.1843 23.4945C18.1168 26.5688 18.2541 29.6342 18.4882 32.6995C18.4927 32.7448 18.5602 32.7471 18.558 32.6995C18.4589 29.6296 18.2788 26.5643 18.1978 23.4945C18.1978 23.4854 18.1843 23.4854 18.1843 23.4945Z" fill="#FFD9E1"/>
<path d="M14.4273 23.9121C14.425 23.894 14.4002 23.894 14.398 23.9121C14.2269 25.9451 14.4655 28.0643 14.5848 30.0972C14.6996 32.0417 14.8099 33.9408 15.1814 35.8557C15.1971 35.9374 15.3209 35.9034 15.3029 35.8217C14.4137 31.935 14.7874 27.8555 14.4273 23.9121Z" fill="#FFD9E1"/>
<path d="M12.3698 23.5762C12.6399 26.131 12.9595 28.6768 13.2139 31.2338C13.2184 31.2792 13.2859 31.2815 13.2837 31.2338C13.1914 28.67 12.9258 26.0834 12.3833 23.574C12.3833 23.5672 12.3698 23.5694 12.3698 23.5762Z" fill="#FFD9E1"/>
<path d="M10.1862 22.9023C10.1817 22.891 10.1659 22.9001 10.1682 22.9114C11.3185 26.9705 11.7597 31.1793 12.6286 35.3065C12.6399 35.361 12.7209 35.336 12.7097 35.2838C12.3135 33.2123 11.9533 31.1476 11.6539 29.0602C11.3545 26.9977 11.0326 24.8173 10.1862 22.9023Z" fill="#FFD9E1"/>
<path d="M8.2885 22.6937C8.27949 22.6688 8.24347 22.6779 8.24798 22.7051C9.0246 26.7256 9.94305 30.8029 11.1136 34.7258C11.1361 34.8052 11.2577 34.7712 11.2352 34.6918C10.1884 30.7303 9.63015 26.5668 8.2885 22.6937Z" fill="#FFD9E1"/>
<path d="M6.59344 22.0333C7.66271 25.9381 8.71397 29.8475 9.79449 33.75C9.79899 33.7613 9.817 33.7568 9.81475 33.7455C8.777 29.8429 8.13544 25.7861 6.6227 22.0265C6.6137 22.0083 6.58894 22.0151 6.59344 22.0333Z" fill="#FFD9E1"/>
<path d="M10.0937 34.1717C10.1025 34.1717 10.1025 34.1584 10.0937 34.1584C10.0849 34.1584 10.0849 34.1717 10.0937 34.1717Z" fill="#FFD9E1"/>
<g opacity="0.5">
<path opacity="0.5" d="M8.64871 28.5793C8.80178 28.3728 9.48387 29.4959 9.58742 29.6389C9.8643 30.0246 10.2785 30.3649 10.7827 30.3128C11.2577 30.2651 11.4536 29.9951 11.8025 29.7319C12.0839 29.5186 12.4643 30.0813 12.6782 30.2901C14.0513 31.631 15.2084 30.281 16.3655 29.4937C17.2164 28.9151 18.0808 29.446 18.997 29.4347C19.5913 29.4279 20.4062 29.3122 20.8361 28.8924C20.9127 28.8198 20.9262 28.6632 20.8361 28.5929C20.2554 28.1278 19.6791 28.4636 18.997 28.5498C18.4522 28.6179 17.9772 28.2911 17.446 28.2798C17.0138 28.2707 16.6514 28.3365 16.2462 28.4863C15.7599 28.6655 15.2939 28.9537 14.7649 28.8198C14.5443 28.7653 14.3057 28.5362 14.1166 28.4114C13.5223 28.0166 13.1014 27.6218 12.354 27.5401C11.6787 27.4675 11.0709 27.6649 10.5711 28.1255C10.3821 28.2979 10.2447 28.5475 10.1074 28.7608C9.90932 29.0036 10.0782 28.9491 10.6162 28.5974C10.4451 28.518 10.2717 28.3388 10.1209 28.2163C9.7585 27.9258 9.18897 27.4879 8.68698 27.6263C8.25477 27.7466 8.15572 28.1414 8.27278 28.5271C8.33131 28.7154 8.54516 28.72 8.64871 28.5793Z" fill="#FFD9E1"/>
</g>
</svg>
