<svg width="26" height="24" viewBox="0 0 26 24" fill="none" xmlns="http://www.w3.org/2000/svg">
<path d="M29.4636 2.46633C28.7477 2.68747 28.0757 3.08553 27.4915 3.58226C26.4751 4.44643 25.6984 5.74609 25.8639 6.96069C25.9854 7.85547 26.5899 8.55634 27.2552 9.1109C28.1703 9.87641 29.2813 10.4684 30.5341 10.5432C31.7869 10.6181 33.1917 10.1078 34.0224 9.05306C34.7045 8.18889 34.9308 7.06275 34.8025 6.05229C34.664 4.98058 34.1811 3.52442 33.2491 2.94944C32.2023 2.30982 30.7502 2.06826 29.4636 2.46633Z" fill="#170B1A"/>
<path d="M31.5674 1.8711C31.0508 1.59552 30.3822 1.74181 29.7946 1.88131C29.1293 2.04121 28.481 2.28277 27.8664 2.61619C26.8196 3.18436 25.8875 4.07915 25.3878 5.16447C24.8373 6.35865 24.8745 7.56985 25.4317 8.61774C25.7153 9.15189 26.1374 9.6214 26.6034 9.99565C27.1572 10.4413 27.7549 10.6761 28.4472 10.87C28.6768 10.9313 28.9335 10.9108 29.1192 10.6965C29.153 10.6591 29.1901 10.6115 29.2104 10.5672C29.3252 10.3223 29.4299 10.3291 29.2577 10.159C28.8524 9.75749 28.2986 9.14849 27.8563 8.78445C27.5051 8.49526 27.1978 8.20607 26.9614 7.81821C26.7554 7.48139 26.6203 7.10034 26.6203 6.68527C26.6203 6.31442 26.7318 5.94698 26.9141 5.60336C27.3328 4.80723 28.0454 4.21524 28.8626 3.75594C29.2914 3.51438 29.7541 3.33746 30.2066 3.16395C30.7165 2.96662 31.7464 2.82032 32.1347 2.39845C32.2935 2.21813 31.7397 1.96296 31.5674 1.8711Z" fill="#0B050D"/>
<path opacity="0.1" d="M34.1069 8.38291C32.4488 8.20599 30.8347 7.57998 29.9972 6.15444C29.6494 5.56585 29.332 4.71869 29.5717 3.9702C29.6832 3.61977 29.8959 3.26254 30.1255 2.96654C30.2471 2.81004 30.3788 2.67055 30.5341 2.54807C30.551 2.53446 30.5679 2.52085 30.5848 2.50724C30.6321 2.48002 30.6726 2.446 30.7131 2.41198C30.7199 2.40857 30.7266 2.40177 30.7368 2.39837C30.7705 2.37455 30.8077 2.35414 30.8448 2.34053C30.9934 2.6025 31.4729 2.48342 31.5067 2.09557C31.5371 1.75534 31.2906 1.61925 31.0002 1.58523C30.9394 1.28243 30.6962 1.04768 30.2775 1.11572C29.9297 1.17016 29.6089 1.34027 29.3252 1.57502C28.9504 1.77576 28.5789 1.98329 28.2379 2.25207C28.1501 2.32012 28.0657 2.39156 27.9812 2.46641C27.8158 2.46641 27.6469 2.51404 27.495 2.62632C27.2046 2.84066 27.0222 3.06521 26.9108 3.33058C26.3266 4.15392 25.8538 5.03851 25.7525 6.01835C25.6343 7.16831 26.151 8.26043 26.725 9.14841C27.4308 10.2405 28.5654 10.71 29.825 11.0299C30.8414 11.2884 31.9659 11.4517 33.0364 10.9686C33.4146 10.7985 33.6206 10.4311 33.6274 10.0942C33.8637 10.0262 34.09 9.91392 34.2994 9.75401C34.8295 9.33894 34.7991 8.45435 34.1069 8.38291Z" fill="#0B050D"/>
<path opacity="0.1" d="M33.58 9.58742C31.5775 9.37308 29.6325 8.61778 28.6194 6.89965C28.2007 6.18858 27.8157 5.16791 28.1061 4.26631C28.2412 3.84443 28.4978 3.41235 28.7747 3.05511C28.9199 2.86459 29.0787 2.69788 29.2678 2.55158C29.288 2.53457 29.3083 2.51756 29.3285 2.50055C29.386 2.46653 29.4366 2.4291 29.4839 2.38828C29.494 2.38147 29.5041 2.37467 29.5143 2.36786C29.5548 2.34064 29.5987 2.31683 29.6426 2.29641C29.8216 2.61282 30.399 2.46653 30.4395 2.00042C30.4733 1.58875 30.1761 1.42544 29.8283 1.38461C29.754 1.02057 29.4602 0.738189 28.9571 0.819842C28.535 0.887887 28.15 1.09202 27.809 1.37441C27.3565 1.61937 26.9073 1.86773 26.4954 2.19095C26.3907 2.2726 26.286 2.36106 26.1881 2.44952C25.9888 2.44952 25.7828 2.50735 25.6005 2.64344C25.2493 2.90201 25.0298 3.17419 24.8981 3.494C24.1957 4.49086 23.6216 5.55236 23.5001 6.73634C23.3582 8.12445 23.9796 9.44112 24.6718 10.5128C25.5262 11.8329 26.8938 12.3977 28.4134 12.7855C29.6392 13.0985 30.9967 13.2959 32.2901 12.7107C32.7459 12.5031 32.9958 12.0608 33.0026 11.656C33.2896 11.5743 33.5631 11.4416 33.813 11.2443C34.4546 10.7408 34.4175 9.67588 33.58 9.58742Z" fill="#0B050D"/>
<path opacity="0.1" d="M32.8675 9.99582C30.8245 10.023 28.7748 9.5093 27.5524 7.94767C27.0458 7.30125 26.5393 6.34522 26.725 5.43002C26.8128 5.00133 27.0188 4.54884 27.2552 4.16438C27.3801 3.96025 27.522 3.77993 27.6942 3.61322C27.7144 3.59621 27.7313 3.57579 27.7516 3.55878C27.8056 3.51796 28.4776 2.41223 28.1197 2.41223C28.0015 2.0618 27.6705 1.82024 27.1741 1.95633C26.7588 2.072 26.3941 2.31697 26.08 2.63337C25.6512 2.92597 25.2291 3.22196 24.8542 3.586C24.7563 3.68126 24.6651 3.77653 24.574 3.87519C24.3747 3.89901 24.1721 3.98066 24.0033 4.13376C23.6791 4.42635 23.4934 4.71895 23.3954 5.04896C22.8045 6.10706 22.352 7.21279 22.3689 8.38656C22.3891 9.76107 23.1726 10.9791 23.9965 11.9453C25.013 13.1361 26.4583 13.5307 28.0352 13.7315C29.3083 13.8948 30.6996 13.9288 31.9322 13.2041C32.3678 12.949 32.567 12.4863 32.5265 12.0882C32.8034 11.9725 33.0634 11.8126 33.293 11.5915C33.8806 11.0267 33.7185 9.98561 32.8675 9.99582Z" fill="#0B050D"/>
<path d="M7.32147 2.76608C6.58531 2.99403 5.88968 3.4023 5.28522 3.91604C4.23839 4.80743 3.43132 6.15131 3.60354 7.40334C3.73186 8.32535 4.3532 9.05002 5.03871 9.625C5.98423 10.4143 7.13236 11.0267 8.42571 11.105C9.71905 11.1832 11.1677 10.6559 12.0288 9.56716C12.7312 8.67578 12.9642 7.51221 12.8325 6.47113C12.6907 5.36199 12.1909 3.86161 11.2285 3.26962C10.1513 2.60278 8.64858 2.35441 7.32147 2.76608Z" fill="#DF3609"/>
<path d="M9.8778 2.40217C9.95547 2.80023 10.722 3.42284 10.9652 3.71883C11.2285 4.04885 11.4987 4.63744 11.6642 5.0355C11.9883 5.81461 12.0018 6.72641 11.7857 7.611C11.5662 8.50919 11.0192 9.2883 10.2425 9.71358C9.33075 10.2137 8.45614 10.4451 7.51061 10.7479C7.14591 10.8669 6.83862 11.214 7.15604 11.4147C8.77694 12.432 11.4041 11.3296 12.5624 9.69657C13.8085 7.93761 13.7646 5.61048 12.6772 4.06586C12.3936 3.66099 12.039 3.31056 11.6236 3.03838C11.2792 2.81043 10.462 1.98369 10.0027 2.17422C9.90819 2.21504 10.1547 2.85126 10.1716 2.94312L9.8778 2.40217Z" fill="#E22A00"/>
<path d="M9.49285 2.15366C8.9593 1.87127 8.27042 2.01757 7.66259 2.16386C6.97708 2.32717 6.30846 2.57894 5.67361 2.92256C4.59301 3.51115 3.6306 4.43316 3.11394 5.55249C2.54663 6.78411 2.58378 8.03613 3.15784 9.11804C3.44825 9.66921 3.88725 10.1557 4.36676 10.5402C4.93745 10.9995 5.55542 11.2444 6.27132 11.4418C6.5077 11.5064 6.77447 11.4826 6.96357 11.2615C6.99734 11.224 7.03449 11.173 7.05813 11.1288C7.17632 10.8736 7.28438 10.8804 7.1054 10.7069C6.68667 10.2918 6.1126 9.6624 5.65673 9.28816C5.2954 8.99216 4.97798 8.69276 4.73146 8.2913C4.51872 7.94427 4.38027 7.55301 4.38027 7.12093C4.38027 6.73988 4.49508 6.35883 4.68419 6.00499C5.11643 5.18165 5.84921 4.57265 6.6968 4.09974C7.13917 3.85137 7.61869 3.66765 8.08469 3.48733C8.61149 3.2832 9.6752 3.1335 10.077 2.69461C10.2459 2.51089 9.67182 2.24552 9.49285 2.15366Z" fill="#D82600"/>
<path opacity="0.1" d="M12.1167 8.87333C10.4046 8.69301 8.73985 8.04318 7.87199 6.57341C7.51404 5.96441 7.18649 5.09004 7.433 4.32113C7.54781 3.96049 7.77068 3.59305 8.00369 3.28345C8.12863 3.12014 8.26371 2.97724 8.4258 2.85136C8.44268 2.83775 8.46294 2.82414 8.47983 2.81054C8.5271 2.77991 8.571 2.74929 8.61153 2.71527C8.61828 2.71187 8.62503 2.70507 8.63516 2.70166C8.66893 2.67785 8.70608 2.65743 8.7466 2.64042C8.89856 2.9092 9.39496 2.78672 9.42873 2.38866C9.45912 2.03823 9.20248 1.89873 8.90531 1.86131C8.84115 1.5483 8.59126 1.30674 8.1624 1.37479C7.80108 1.43263 7.47352 1.60614 7.17973 1.8477C6.79139 2.05524 6.40981 2.26958 6.05524 2.54856C5.96406 2.62001 5.87626 2.69486 5.79184 2.76971C5.623 2.76971 5.44402 2.82074 5.28869 2.93642C4.98814 3.15756 4.80242 3.39232 4.6876 3.6645C4.08652 4.51506 3.5935 5.42686 3.49219 6.43732C3.37062 7.6247 3.90417 8.75425 4.49512 9.66945C5.22453 10.799 6.3963 11.2821 7.69639 11.6121C8.7466 11.8809 9.90824 12.0476 11.0125 11.5475C11.4042 11.3706 11.6169 10.9929 11.6237 10.6459C11.8668 10.5744 12.1032 10.4622 12.316 10.2921C12.863 9.85998 12.8326 8.94818 12.1167 8.87333Z" fill="#D82600"/>
<path opacity="0.1" d="M11.573 10.1153C9.50638 9.89414 7.49714 9.11162 6.45031 7.34246C6.01807 6.60757 5.62298 5.55288 5.92015 4.62407C6.0586 4.18858 6.32537 3.74289 6.6124 3.37204C6.76436 3.17471 6.92645 3.0046 7.12231 2.8515C7.14257 2.83449 7.16621 2.81748 7.18647 2.80047C7.24388 2.76644 7.29791 2.72562 7.34518 2.68479C7.35531 2.67799 7.36207 2.67118 7.3722 2.66778C7.41272 2.63716 7.46 2.61334 7.50727 2.59293C7.693 2.91954 8.29071 2.76985 8.33123 2.29013C8.36838 1.86485 8.06108 1.69814 7.69976 1.65731C7.62209 1.27966 7.31817 0.987071 6.80151 1.07213C6.36589 1.14357 5.9708 1.35111 5.61623 1.6437C5.15022 1.89547 4.68421 2.15404 4.2621 2.48746C4.15404 2.57252 4.04598 2.66438 3.94468 2.75624C3.73869 2.75624 3.52595 2.81748 3.33684 2.95697C2.97214 3.22234 2.74927 3.50473 2.61081 3.83475C1.88479 4.86222 1.29384 5.96115 1.16551 7.18255C1.01693 8.60809 1.66191 9.96899 2.37443 11.0747C3.2558 12.4356 4.66733 13.0208 6.23757 13.4223C7.5039 13.7455 8.9053 13.9496 10.2392 13.344C10.7119 13.1297 10.9686 12.6738 10.9753 12.2553C11.2691 12.1702 11.5528 12.0341 11.8128 11.83C12.4746 11.3095 12.4375 10.2071 11.573 10.1153Z" fill="#D82600"/>
<path opacity="0.1" d="M10.8369 10.5371C8.72971 10.5644 6.61241 10.0336 5.34947 8.42096C4.82605 7.75412 4.30264 6.76747 4.49512 5.82164C4.58629 5.37935 4.79904 4.91325 5.04217 4.51518C5.17049 4.30425 5.3157 4.11712 5.49467 3.94701C5.51493 3.9266 5.53519 3.90959 5.55208 3.88917C5.60611 3.84835 6.30174 2.70519 5.93366 2.70519C5.8121 2.34456 5.47103 2.09279 4.95775 2.23568C4.52889 2.35476 4.15405 2.60653 3.82987 2.93314C3.3875 3.23254 2.95189 3.54214 2.56355 3.91639C2.46224 4.01165 2.36769 4.11372 2.27314 4.21579C2.07053 4.24641 1.86116 4.33146 1.68894 4.48797C1.35125 4.79417 1.15877 5.09357 1.06084 5.43379C0.449629 6.52251 -0.0163787 7.66906 0.000505627 8.88026C0.0207668 10.299 0.831215 11.5578 1.68219 12.5547C2.73239 13.7863 4.22497 14.1912 5.84924 14.3987C7.16284 14.5654 8.59801 14.6028 9.87109 13.8543C10.3202 13.589 10.5262 13.1126 10.4857 12.701C10.7727 12.5819 11.0395 12.4152 11.2792 12.1872C11.8837 11.6021 11.7182 10.5269 10.8369 10.5371Z" fill="#D82600"/>
<path opacity="0.17" d="M11.9411 5.96078C11.9141 5.80768 11.4751 3.76293 10.8166 3.42611C10.5802 3.30703 10.3168 3.26961 10.0703 3.33765C9.58402 3.39549 9.10789 3.78675 9.19231 4.38554C9.23621 4.70195 9.25984 5.00135 9.24971 5.30415C9.21594 5.46745 9.17205 5.63416 9.1349 5.79067C9.0032 6.33502 8.82761 6.86918 8.61486 7.39652C8.59122 7.45776 8.56421 7.519 8.54057 7.58024C8.47641 7.65509 8.4055 7.72654 8.33796 7.80139C8.02729 8.13821 7.74363 8.50225 7.77065 8.95815C7.79091 9.30178 7.953 9.59777 8.23328 9.78149C8.83098 10.1693 9.62455 9.97202 10.2391 9.53993C11.3805 8.73701 12.1471 7.19239 11.9411 5.96078Z" fill="#E22A00"/>
<path opacity="0.08" d="M11.0462 4.77027C9.64821 4.25653 7.90912 4.93357 6.89269 6.1924C6.66644 6.47479 6.4672 6.78439 6.32537 7.11101C6.06535 7.53288 5.88638 7.99219 5.88976 8.4685C5.89651 9.32246 6.52123 9.92806 7.2709 10.1798C8.66554 10.6527 10.4046 10.2921 11.4987 9.01966C12.6975 7.62815 12.7752 5.40989 11.0462 4.77027Z" fill="white"/>
<path opacity="0.08" d="M10.9651 5.46783C10.0263 5.12081 8.85456 5.57671 8.17243 6.42386C8.02047 6.61439 7.8854 6.82193 7.79085 7.04307C7.61525 7.32546 7.49706 7.63506 7.50044 7.95487C7.50381 8.52645 7.92592 8.93472 8.42908 9.10483C9.36784 9.42124 10.5362 9.17968 11.2724 8.32572C12.0761 7.3867 12.1267 5.89652 10.9651 5.46783Z" fill="white"/>
<g opacity="0.17">
<path opacity="0.17" d="M9.63812 6.8048C9.66514 7.13822 9.93866 7.39679 10.2358 7.5601C10.5938 7.76083 10.9348 7.87991 11.3806 7.77784C11.9411 7.64856 12.0999 6.94089 11.725 6.62788C11.4684 6.41354 11.1712 6.39993 10.8437 6.33869C10.6174 6.29446 10.2392 6.24683 10.0096 6.3421C9.81372 6.42375 9.62124 6.59046 9.63812 6.8048Z" fill="white"/>
</g>
<path d="M8.09819 4.27344C8.12521 4.41293 8.20625 4.49459 8.2873 4.58645C8.33119 4.63408 8.45614 4.68851 8.42912 4.77357C8.27379 5.2703 7.73011 4.86203 7.55451 5.05255C7.45996 5.15462 7.44645 5.26349 7.46672 5.34515C7.5275 5.5765 7.94961 5.52547 8.20287 5.46082C8.49328 5.38938 8.7972 5.14101 8.94916 4.82801C9.1045 4.5082 9.03358 4.28365 8.86474 4.13735C8.73642 4.02848 8.44601 3.86517 8.18937 4.09312C8.13534 4.14416 8.08806 4.21901 8.09819 4.27344Z" fill="#DE2100"/>
<path d="M9.63117 4.06585C9.49272 3.8277 9.2766 3.70181 9.00307 3.67459C8.90852 3.61335 8.7802 3.57933 8.63837 3.56912C8.22639 3.5351 7.7435 3.49768 7.25723 3.678C6.85876 3.8277 6.39613 4.19173 6.24079 4.63743C6.04493 5.1954 6.37924 5.51521 6.64602 5.76697C6.94993 6.05616 7.32139 6.23648 7.86507 6.13441C8.2973 6.05276 8.95579 5.83502 9.35089 5.39953C9.77637 4.92662 9.82027 4.38566 9.63117 4.06585ZM7.96637 5.28045C7.71986 5.29066 7.25723 5.01848 7.22346 4.79053C7.15255 4.31081 7.67258 4.21555 7.77051 4.20194C7.9326 4.17813 8.12171 4.15771 8.2838 4.23256C8.2973 4.23937 8.87475 4.41628 8.8376 4.66465C8.75656 5.22602 8.18587 5.27025 7.96637 5.28045Z" fill="#D82600"/>
<path d="M9.12132 3.62368C9.07742 3.34129 9.06729 3.15757 8.82754 3.02829C8.59453 2.9024 8.33114 2.84797 8.00696 2.88539C7.41263 2.96024 6.71024 3.34129 6.20033 3.94009C5.70056 4.52527 5.45404 5.23294 5.56886 5.75348C5.68367 6.26382 6.25099 6.77415 6.96013 6.32506C7.16949 6.19577 7.32483 5.97803 7.31132 5.7773C7.27755 5.24655 6.06863 5.18871 6.8622 4.33135C7.14923 4.02514 7.52744 3.88905 7.83136 3.85503C8.0441 3.83122 8.22308 3.85843 8.41556 3.87545C8.59115 3.89246 8.77688 3.81761 8.95923 3.804C9.03352 3.8006 9.13483 3.70193 9.12132 3.62368Z" fill="#CB2000"/>
<path d="M7.97323 3.44344C8.77693 3.71562 9.31722 4.07285 8.88161 4.93362C8.42235 5.83861 7.09187 5.53922 6.45364 5.39973C6.19362 5.34529 6.2983 5.94408 6.33545 6.22987C6.41987 6.8763 7.31474 6.84908 7.96648 6.67557C8.71952 6.47143 9.53334 5.85903 9.91493 5.03228C10.5835 3.58293 9.57049 2.23904 8.14545 2.84805C7.84829 2.97393 7.79763 3.37199 7.97323 3.44344Z" fill="#DF2500"/>
<g opacity="0.25">
<path opacity="0.25" d="M10.256 6.21254C10.7017 6.59359 11.3872 5.82809 10.9415 5.44703C10.4957 5.06598 9.81024 5.83149 10.256 6.21254Z" fill="white"/>
</g>
<path d="M7.74705 4.66477C7.95304 4.29733 7.75042 3.92309 7.51067 3.62029C7.31818 3.37873 6.88257 2.98067 6.53813 3.12016C6.46721 3.15078 6.43344 3.19501 6.42331 3.26986C6.38617 3.56585 6.70359 3.90267 6.87244 4.11701C7.07843 4.38239 7.2574 4.65797 7.60522 4.72261C7.65925 4.73282 7.72003 4.71581 7.74705 4.66477Z" fill="#664E38"/>
<path d="M19.3499 1.71488C18.6138 1.94283 17.9181 2.35109 17.3137 2.86483C16.2669 3.75622 15.4632 5.0967 15.6354 6.35213C15.7603 7.27414 16.385 7.99881 17.0706 8.57379C18.0161 9.36311 19.1608 9.97211 20.4576 10.0538C21.7509 10.132 23.1996 9.60467 24.0573 8.51595C24.7597 7.62457 24.9927 6.461 24.861 5.41992C24.7192 4.31079 24.2194 2.8104 23.257 2.21841C22.1798 1.55157 20.6804 1.30321 19.3499 1.71488Z" fill="#EE4A1E"/>
<path d="M21.9062 1.35096C21.9839 1.74902 22.7505 2.36823 22.9936 2.66762C23.257 2.99764 23.5271 3.58623 23.6926 3.98429C24.0168 4.7634 24.0303 5.6752 23.8142 6.55979C23.5947 7.45798 23.0476 8.23369 22.2709 8.66237C21.3592 9.1625 20.4846 9.39385 19.5391 9.69665C19.1744 9.81233 18.8671 10.1628 19.1845 10.3635C20.8054 11.3808 23.4292 10.2784 24.5875 8.64536C25.8335 6.8864 25.7896 4.56267 24.7023 3.01465C24.4186 2.60979 24.0641 2.25935 23.6487 1.98718C23.3043 1.75923 22.4871 0.932481 22.0278 1.12301C21.9333 1.16383 22.1798 1.80005 22.1967 1.89191L21.9062 1.35096Z" fill="#EF3E16"/>
<path d="M21.5247 1.10243C20.9911 0.820046 20.3023 0.966343 19.6944 1.11264C19.0089 1.27595 18.3403 1.52771 17.7054 1.87134C16.6248 2.45993 15.6624 3.38193 15.1458 4.50127C14.5785 5.73288 14.6156 6.9815 15.1897 8.06342C15.4801 8.61458 15.9157 9.1011 16.3986 9.48555C16.9693 9.94485 17.5873 10.1898 18.3031 10.3871C18.5395 10.4518 18.8063 10.428 18.9954 10.2068C19.0292 10.1694 19.0663 10.1184 19.09 10.0741C19.2081 9.81897 19.3162 9.82578 19.1372 9.65226C18.7185 9.23719 18.1444 8.60777 17.6886 8.23353C17.3272 7.93753 17.0098 7.63814 16.7633 7.23667C16.5506 6.88964 16.4121 6.49838 16.4121 6.0663C16.4121 5.68525 16.5269 5.3042 16.716 4.95037C17.1483 4.12702 17.881 3.51802 18.7286 3.04511C19.171 2.79675 19.6505 2.61643 20.1165 2.43271C20.6433 2.22857 21.7037 2.07888 22.1055 1.63999C22.2743 1.45967 21.7003 1.19429 21.5247 1.10243Z" fill="#E73A15"/>
<path opacity="0.1" d="M24.145 7.81861C22.4329 7.63829 20.7681 6.98846 19.9003 5.51869C19.5423 4.90969 19.2148 4.03532 19.4613 3.26641C19.5761 2.90577 19.799 2.53833 20.032 2.22873C20.1569 2.06542 20.292 1.92593 20.4541 1.79664C20.471 1.78303 20.4912 1.76943 20.5081 1.75582C20.5554 1.7252 20.5993 1.69458 20.6398 1.65715C20.6466 1.65375 20.6533 1.64694 20.6635 1.64354C20.6972 1.61973 20.7344 1.59931 20.7749 1.5823C20.9268 1.85108 21.4232 1.7286 21.457 1.33054C21.4874 0.980106 21.2308 0.840614 20.9336 0.803189C20.8694 0.490183 20.6196 0.248624 20.1907 0.316669C19.8294 0.374507 19.5018 0.548021 19.208 0.78958C18.8197 0.997117 18.4381 1.21146 18.0835 1.49044C17.9923 1.56189 17.9046 1.63674 17.8201 1.71159C17.6513 1.71159 17.4723 1.76262 17.317 1.8783C17.0164 2.09944 16.8307 2.3342 16.7159 2.60638C16.1148 3.45694 15.6218 4.36874 15.5205 5.3792C15.3989 6.56658 15.9325 7.69273 16.5234 8.60793C17.2528 9.73747 18.4246 10.2206 19.7213 10.5506C20.7681 10.8194 21.9298 10.9861 23.0374 10.486C23.4291 10.309 23.6418 9.9314 23.6486 9.58437C23.8917 9.51292 24.1281 9.40065 24.3409 9.23394C24.8913 8.80866 24.8609 7.89686 24.145 7.81861Z" fill="#E73A15"/>
<path opacity="0.1" d="M23.6014 9.06384C21.5348 8.84609 19.5255 8.06017 18.4821 6.29101C18.0498 5.55613 17.6547 4.50143 17.9519 3.57262C18.0904 3.13713 18.3571 2.69144 18.6408 2.3206C18.7928 2.12327 18.9548 1.95315 19.1507 1.80005C19.171 1.78304 19.1946 1.76603 19.2149 1.74902C19.2723 1.715 19.3263 1.67417 19.3736 1.63334C19.3837 1.62654 19.3905 1.61973 19.4006 1.61633C19.4411 1.58571 19.4884 1.5619 19.5357 1.54148C19.7214 1.8681 20.3191 1.7184 20.3596 1.23868C20.3968 0.813403 20.0895 0.646693 19.7281 0.605866C19.6539 0.221413 19.3499 -0.0677773 18.8333 0.0138764C18.3977 0.0853235 18.0026 0.29286 17.648 0.585453C17.182 0.837219 16.7194 1.09579 16.2939 1.42921C16.1858 1.51426 16.0778 1.60612 15.9764 1.69799C15.7705 1.69799 15.5577 1.75923 15.3686 1.89872C15.0039 2.16409 14.781 2.44648 14.6426 2.7765C13.9166 3.80397 13.3256 4.9029 13.1973 6.1243C13.0487 7.55664 13.6937 8.91754 14.4096 10.0233C15.2909 11.3842 16.7025 11.9693 18.2693 12.3674C19.5357 12.6906 20.9371 12.8948 22.2709 12.2892C22.7437 12.0748 23.0003 11.6189 23.0071 11.2004C23.3009 11.1154 23.5845 10.9793 23.8446 10.7752C24.503 10.258 24.4659 9.1557 23.6014 9.06384Z" fill="#E73A15"/>
<path opacity="0.1" d="M22.8653 9.48577C20.7581 9.51299 18.6408 8.98224 17.3778 7.36958C16.8544 6.70274 16.331 5.71609 16.5235 4.77027C16.6147 4.32798 16.8274 3.86187 17.0705 3.46381C17.1989 3.25287 17.3441 3.06575 17.523 2.89563C17.5433 2.87862 17.5602 2.85821 17.5805 2.8412C17.6345 2.80037 18.3301 1.65722 17.962 1.65722C17.8405 1.29658 17.4994 1.04482 16.9895 1.18771C16.5606 1.30679 16.1858 1.55855 15.8616 1.88517C15.4193 2.18457 14.9836 2.49417 14.5953 2.86842C14.494 2.96368 14.3994 3.06575 14.3049 3.16781C14.0989 3.19163 13.8895 3.27669 13.7173 3.43319C13.383 3.73599 13.1905 4.03879 13.0892 4.37901C12.478 5.46773 12.012 6.61428 12.0289 7.82548C12.0491 9.24421 12.8596 10.4996 13.7106 11.4999C14.7608 12.7281 16.25 13.1364 17.8776 13.3439C19.1912 13.5106 20.6264 13.548 21.8995 12.7996C22.3486 12.5342 22.5546 12.0579 22.5141 11.6462C22.8011 11.5271 23.0679 11.3604 23.3076 11.1325C23.9121 10.5473 23.7466 9.47557 22.8653 9.48577Z" fill="#E73A15"/>
<path opacity="0.17" d="M23.9695 4.90954C23.9425 4.75644 23.5035 2.71169 22.845 2.37487C22.6086 2.25579 22.3452 2.21837 22.0987 2.28641C21.6124 2.34085 21.1397 2.73551 21.2207 3.3309C21.2646 3.64731 21.2883 3.9467 21.2781 4.2495C21.2444 4.41281 21.2005 4.57952 21.1633 4.73602C21.0316 5.28038 20.856 5.81453 20.6433 6.34188C20.6196 6.40312 20.5926 6.46436 20.569 6.5256C20.5048 6.60045 20.4339 6.6719 20.3664 6.74675C20.0557 7.08357 19.772 7.44761 19.7991 7.90351C19.8193 8.24714 19.9814 8.54313 20.2617 8.72685C20.8594 9.11471 21.653 8.91738 22.2675 8.48529C23.4089 7.68577 24.1755 6.14115 23.9695 4.90954Z" fill="#EF3E16"/>
<path opacity="0.08" d="M23.0746 3.71863C21.6766 3.20489 19.9375 3.88194 18.9211 5.14077C18.6948 5.42315 18.4956 5.73275 18.3538 6.05937C18.0937 6.48125 17.9148 6.94055 17.9181 7.41686C17.9249 8.27083 18.5496 8.87642 19.2993 9.12819C20.6939 9.5977 22.433 9.24046 23.5271 7.96803C24.7293 6.57651 24.807 4.35485 23.0746 3.71863Z" fill="white"/>
<path opacity="0.08" d="M22.9935 4.41661C22.0547 4.06958 20.883 4.52548 20.2008 5.37264C20.0489 5.56316 19.9138 5.7707 19.8193 5.99185C19.6437 6.27423 19.5255 6.58384 19.5288 6.90365C19.5322 7.47522 19.9543 7.88349 20.4575 8.0536C21.3963 8.37001 22.5647 8.12845 23.2974 7.27449C24.1045 6.33547 24.1552 4.84189 22.9935 4.41661Z" fill="white"/>
<g opacity="0.17">
<path opacity="0.17" d="M21.6665 5.74991C21.6935 6.08333 21.967 6.3419 22.2642 6.50521C22.6222 6.70594 22.9632 6.82502 23.409 6.72295C23.9695 6.59367 24.1282 5.886 23.7534 5.573C23.4968 5.35866 23.1996 5.34505 22.872 5.28381C22.6458 5.23958 22.2676 5.19195 22.0413 5.28721C21.8421 5.37227 21.6496 5.53897 21.6665 5.74991Z" fill="white"/>
</g>
<path d="M20.1266 3.2222C20.1536 3.36169 20.2346 3.44335 20.3157 3.53521C20.3596 3.58284 20.4845 3.63728 20.4575 3.72233C20.3022 4.21906 19.7585 3.81079 19.5829 4.00132C19.4883 4.10338 19.4748 4.21225 19.4951 4.29391C19.5559 4.52526 19.978 4.47423 20.2313 4.40958C20.5217 4.33814 20.8256 4.08977 20.9775 3.77677C21.1329 3.45696 21.062 3.23241 20.8931 3.08611C20.7648 2.97724 20.4744 2.81393 20.2177 3.04188C20.1671 3.09292 20.1164 3.16777 20.1266 3.2222Z" fill="#ED3515"/>
<path d="M21.6596 3.0147C21.5212 2.77655 21.3051 2.65066 21.0315 2.62345C20.937 2.56221 20.8121 2.52818 20.6668 2.51457C20.2549 2.48055 19.772 2.44313 19.2857 2.62345C18.8872 2.77314 18.4246 3.13718 18.2693 3.58288C18.0734 4.14085 18.4077 4.46066 18.6745 4.71242C18.9784 5.00161 19.3499 5.18193 19.8935 5.07986C20.3258 4.99821 20.9843 4.78047 21.3794 4.34498C21.8049 3.87547 21.8487 3.33451 21.6596 3.0147ZM19.9948 4.2259C19.7483 4.23611 19.2857 3.96393 19.2519 3.73598C19.181 3.25626 19.7011 3.161 19.799 3.14739C19.9611 3.12358 20.1502 3.10316 20.3123 3.17801C20.3258 3.18482 20.9032 3.36173 20.8661 3.6101C20.7884 4.17487 20.2143 4.2191 19.9948 4.2259Z" fill="#E73A15"/>
<path d="M21.1498 2.57221C21.1059 2.28983 21.0958 2.10611 20.856 1.98022C20.623 1.85434 20.3596 1.7999 20.0354 1.83733C19.4411 1.91218 18.7387 2.29323 18.2288 2.89202C17.729 3.47721 17.4825 4.18487 17.5973 4.70201C17.7121 5.21235 18.2795 5.72269 18.9886 5.27359C19.198 5.14431 19.3533 4.92656 19.3398 4.72583C19.306 4.19508 18.0971 4.13724 18.8907 3.27988C19.1777 2.97368 19.5559 2.83759 19.8598 2.80356C20.0692 2.77975 20.2515 2.80697 20.4407 2.82398C20.6162 2.84099 20.802 2.76614 20.9843 2.75253C21.062 2.74913 21.1633 2.65046 21.1498 2.57221Z" fill="#DA3314"/>
<path d="M20.005 2.39181C20.8087 2.66399 21.349 3.02122 20.9134 3.88199C20.4541 4.78699 19.1236 4.48759 18.4888 4.3481C18.2287 4.29366 18.3334 4.89245 18.3706 5.17824C18.455 5.82467 19.3499 5.79745 20.0016 5.62394C20.7546 5.4198 21.5685 4.8074 21.9501 3.98065C22.6187 2.5313 21.6056 1.18742 20.1806 1.79982C19.88 1.9257 19.826 2.32036 20.005 2.39181Z" fill="#EE3915"/>
<g opacity="0.25">
<path opacity="0.25" d="M22.3215 5.79096C22.7673 6.17201 23.4528 5.40651 23.007 5.02545C22.5647 4.641 21.8758 5.40651 22.3215 5.79096Z" fill="white"/>
</g>
<path d="M19.7788 3.61355C19.9848 3.24611 19.7822 2.87186 19.5424 2.56906C19.3499 2.3275 18.9143 1.92944 18.5699 2.06893C18.499 2.09955 18.4652 2.14378 18.4551 2.21863C18.4179 2.51463 18.7353 2.85145 18.9042 3.06579C19.1102 3.33116 19.2891 3.60675 19.637 3.67139C19.691 3.68159 19.7484 3.66458 19.7788 3.61355Z" fill="#755C45"/>
<path d="M13.6363 4.2873C12.9204 4.50844 12.2484 4.9065 11.6642 5.40323C10.6478 6.2674 9.87108 7.56705 10.0365 8.78165C10.1581 9.67644 10.7626 10.3773 11.4278 10.9319C12.3429 11.6974 13.4539 12.2894 14.7068 12.3642C15.9596 12.4391 17.3644 11.9287 18.1951 10.874C18.8772 10.0099 19.1034 8.88372 18.9751 7.87326C18.8367 6.80155 18.3538 5.34539 17.4218 4.77041C16.3749 4.13079 14.9229 3.88923 13.6363 4.2873Z" fill="#DF3609"/>
<path d="M16.1115 3.93624C16.1892 4.3241 16.9321 4.92289 17.1617 5.21208C17.4184 5.53189 17.6784 6.10347 17.8371 6.48792C18.1512 7.24322 18.1647 8.1278 17.9553 8.98517C17.7426 9.85614 17.2124 10.608 16.4594 11.0197C15.5746 11.5062 14.7304 11.7274 13.8119 12.0234C13.4607 12.1356 13.1602 12.4759 13.4708 12.6698C15.0411 13.653 17.5839 12.5881 18.705 11.0061C19.9139 9.30157 19.8666 7.04929 18.8164 5.55231C18.5395 5.15765 18.1984 4.82082 17.7966 4.55545C17.4623 4.33771 16.6721 3.53478 16.2264 3.7185C16.1352 3.75592 16.3716 4.37513 16.3884 4.46359L16.1115 3.93624Z" fill="#E22A00"/>
<path d="M15.7401 3.6951C15.2234 3.41952 14.5582 3.56582 13.9672 3.70531C13.302 3.86181 12.657 4.10677 12.0391 4.44019C10.9922 5.00837 10.0602 5.90316 9.56043 6.98847C9.01 8.18266 9.04715 9.39385 9.60433 10.4417C9.88799 10.9759 10.3101 11.4454 10.7761 11.8197C11.3299 12.2653 11.9276 12.5001 12.6199 12.694C12.8495 12.7553 13.1061 12.7349 13.2919 12.5205C13.3256 12.4831 13.3628 12.4355 13.383 12.3912C13.4979 12.1463 13.6025 12.1531 13.4303 11.983C13.0251 11.5815 12.4713 10.9725 12.0289 10.6085C11.6777 10.3193 11.3704 10.0301 11.1341 9.64222C10.9281 9.3054 10.793 8.92435 10.793 8.50927C10.793 8.13843 10.9044 7.77099 11.0868 7.42736C11.5055 6.63124 12.218 6.03925 13.0352 5.57994C13.4641 5.33838 13.9267 5.16147 14.3792 4.98795C14.8891 4.79062 15.9191 4.64433 16.3074 4.22245C16.4661 4.04213 15.9123 3.78356 15.7401 3.6951Z" fill="#D82600"/>
<path opacity="0.1" d="M18.2795 10.2037C16.6215 10.0267 15.0074 9.40073 14.1699 7.97519C13.8221 7.38661 13.5047 6.53945 13.7444 5.79096C13.8558 5.44053 14.0686 5.08329 14.2982 4.7873C14.4198 4.63079 14.5515 4.4913 14.7068 4.36882C14.7237 4.35521 14.7406 4.3416 14.7575 4.32799C14.8047 4.30078 14.8453 4.26675 14.8858 4.23273C14.8925 4.22933 14.8993 4.22252 14.9094 4.21912C14.9432 4.19531 14.9803 4.17489 15.0175 4.16128C15.1661 4.42326 15.6456 4.30418 15.6794 3.91632C15.7098 3.5761 15.4632 3.44001 15.1728 3.40599C15.112 3.10319 14.8689 2.86843 14.4502 2.93648C14.1024 2.99091 13.7816 3.16102 13.4979 3.39578C13.1231 3.59651 12.7516 3.80405 12.4105 4.07283C12.3228 4.14087 12.2383 4.21232 12.1539 4.28717C11.9884 4.28717 11.8196 4.3348 11.6676 4.44707C11.3772 4.66141 11.1949 4.88596 11.0834 5.15134C10.4992 5.97468 10.0265 6.85926 9.92517 7.83911C9.80698 8.98906 10.3236 10.0812 10.8977 10.9692C11.6035 12.0613 12.7381 12.5308 13.9977 12.8506C15.0141 13.1092 16.1386 13.2725 17.2091 12.7894C17.5873 12.6193 17.7933 12.2518 17.8 11.915C18.0364 11.8469 18.2627 11.7347 18.472 11.5748C19.0022 11.1597 18.9718 10.2751 18.2795 10.2037Z" fill="#D82600"/>
<path opacity="0.1" d="M17.7527 11.4082C15.7503 11.1972 13.8052 10.4385 12.7921 8.7204C12.3734 8.00933 11.9884 6.98865 12.2788 6.08706C12.4139 5.66518 12.6706 5.2331 12.9475 4.87586C13.0927 4.68534 13.2514 4.51863 13.4405 4.37233C13.4607 4.35532 13.481 4.33831 13.5013 4.3213C13.5587 4.28728 13.6093 4.24985 13.6566 4.20902C13.6667 4.20222 13.6735 4.19882 13.6836 4.19201C13.7241 4.1648 13.768 4.14098 13.8119 4.12057C13.9909 4.43697 14.5684 4.29068 14.6089 3.82457C14.6426 3.4129 14.3455 3.24959 13.9977 3.20877C13.9234 2.84132 13.6296 2.55894 13.1264 2.64059C12.7043 2.70864 12.3194 2.91277 11.9783 3.19516C11.5258 3.44012 11.0767 3.68848 10.6647 4.01169C10.56 4.09335 10.4553 4.18181 10.3574 4.27026C10.1582 4.27026 9.95217 4.3281 9.76982 4.46419C9.41863 4.72276 9.19913 4.99494 9.06743 5.31475C8.36505 6.31161 7.79098 7.37311 7.66941 8.55709C7.52758 9.9452 8.14893 11.2619 8.84118 12.3336C9.69553 13.6536 11.0632 14.2184 12.5828 14.6063C13.8086 14.9193 15.1661 15.1166 16.4594 14.5314C16.9153 14.3239 17.1652 13.8816 17.1719 13.4767C17.459 13.3951 17.7325 13.2624 17.9824 13.0651C18.6274 12.5649 18.5902 11.4966 17.7527 11.4082Z" fill="#D82600"/>
<path opacity="0.1" d="M17.0402 11.8162C14.9972 11.8434 12.9475 11.3296 11.725 9.76802C11.2185 9.12159 10.712 8.16556 10.8977 7.25036C10.9855 6.82168 11.1915 6.36918 11.4279 5.98473C11.5528 5.78059 11.6946 5.60027 11.8669 5.43356C11.8871 5.41655 11.904 5.39614 11.9243 5.37913C11.9783 5.3383 12.6503 4.23257 12.2923 4.23257C12.1742 3.88214 11.8432 3.64058 11.3468 3.77667C10.9315 3.89235 10.5668 4.13731 10.2527 4.45372C9.82385 4.74631 9.40174 5.0423 9.02691 5.40634C8.92898 5.50161 8.8378 5.59687 8.74663 5.69553C8.54739 5.71935 8.34478 5.801 8.17594 5.9541C7.85176 6.2467 7.66603 6.53929 7.5681 6.86931C6.97715 7.9274 6.52465 9.03313 6.54153 10.2069C6.5618 11.5814 7.34523 12.7994 8.16918 13.7656C9.18562 14.9564 10.6309 15.3511 12.2079 15.5518C13.481 15.7151 14.8723 15.7492 16.1048 15.0245C16.5404 14.7693 16.7397 14.3066 16.6992 13.9085C16.9761 13.7929 17.2361 13.633 17.4657 13.4118C18.0567 12.847 17.8946 11.806 17.0402 11.8162Z" fill="#D82600"/>
<path opacity="0.17" d="M18.1108 7.38309C18.0871 7.23339 17.6583 5.25328 17.0234 4.93007C16.7938 4.81439 16.5372 4.77697 16.3008 4.84161C15.828 4.89605 15.3688 5.2771 15.4498 5.85548C15.4937 6.16168 15.514 6.45087 15.5038 6.74346C15.4734 6.90337 15.4295 7.06327 15.3924 7.21638C15.2675 7.74372 15.0952 8.26086 14.8892 8.7746C14.8656 8.83244 14.842 8.89368 14.8183 8.95152C14.7542 9.02297 14.69 9.09441 14.6225 9.16586C14.3219 9.49248 14.0484 9.84291 14.072 10.2852C14.0889 10.6186 14.2476 10.9044 14.5212 11.0813C15.0986 11.4556 15.8685 11.2684 16.4629 10.8466C17.5671 10.0709 18.3066 8.57727 18.1108 7.38309Z" fill="#E22A00"/>
<path opacity="0.08" d="M17.2429 6.22952C15.8888 5.73279 14.2037 6.38602 13.221 7.60743C13.0015 7.8796 12.8091 8.1824 12.6706 8.49881C12.4173 8.90708 12.2451 9.35277 12.2485 9.81208C12.2552 10.6388 12.8597 11.224 13.5891 11.4724C14.9399 11.9283 16.6249 11.5812 17.6852 10.3496C18.8435 8.99554 18.9178 6.84873 17.2429 6.22952Z" fill="white"/>
<path opacity="0.08" d="M17.1652 6.90356C16.2534 6.57014 15.1222 7.00903 14.4603 7.82897C14.3117 8.01269 14.1834 8.21342 14.0889 8.42777C13.92 8.70335 13.8018 9.00274 13.8052 9.31235C13.8086 9.86691 14.2172 10.2616 14.7068 10.4283C15.6152 10.7345 16.7465 10.5031 17.459 9.67299C18.239 8.76459 18.2897 7.31864 17.1652 6.90356Z" fill="white"/>
<g opacity="0.17">
<path opacity="0.17" d="M15.8786 8.19983C15.9056 8.52304 16.1724 8.77481 16.4594 8.93131C16.8073 9.12524 17.1382 9.24092 17.5671 9.14225C18.1107 9.01977 18.2661 8.32911 17.9014 8.02972C17.6515 7.82218 17.3644 7.81197 17.047 7.75073C16.8275 7.70991 16.4594 7.66228 16.2399 7.75414C16.0508 7.83239 15.8617 7.99229 15.8786 8.19983Z" fill="white"/>
</g>
<path d="M14.386 5.7468C14.4096 5.87948 14.4907 5.96114 14.5683 6.0496C14.6089 6.09383 14.7338 6.14826 14.7068 6.23332C14.5582 6.71303 14.0281 6.31837 13.8592 6.5055C13.768 6.60416 13.7545 6.70963 13.7748 6.78788C13.8356 7.01243 14.2442 6.9614 14.4873 6.90016C14.7676 6.82871 15.0614 6.59055 15.21 6.28775C15.3585 5.97815 15.291 5.76041 15.1289 5.61751C15.004 5.51204 14.7237 5.35554 14.4772 5.57328C14.4231 5.62432 14.3759 5.69576 14.386 5.7468Z" fill="#DE2100"/>
<path d="M15.8718 5.54555C15.7367 5.3176 15.5307 5.19172 15.264 5.1645C15.1728 5.10326 15.0512 5.07264 14.9094 5.06243C14.5109 5.02841 14.0449 4.99439 13.5721 5.1679C13.1872 5.3142 12.7381 5.66463 12.5895 6.09671C12.4004 6.63767 12.7246 6.94727 12.9812 7.18883C13.275 7.46782 13.6363 7.64473 14.1597 7.54267C14.5785 7.46441 15.2167 7.25348 15.6016 6.8282C16.0102 6.3791 16.0541 5.85856 15.8718 5.54555ZM14.2577 6.72273C14.0213 6.73293 13.5721 6.46756 13.5384 6.24981C13.4708 5.78371 13.974 5.69185 14.0685 5.67824C14.2273 5.65782 14.4062 5.63741 14.5649 5.70886C14.5785 5.71566 15.1356 5.88577 15.1019 6.12733C15.0276 6.66829 14.4704 6.71252 14.2577 6.72273Z" fill="#D82600"/>
<path d="M15.3788 5.11667C15.3349 4.84449 15.3281 4.66757 15.0951 4.54169C14.8689 4.41921 14.6156 4.36477 14.3016 4.4056C13.7275 4.47705 13.0454 4.84789 12.549 5.42627C12.0661 5.99445 11.8263 6.6817 11.9378 7.18183C12.0492 7.67515 12.5996 8.16848 13.2851 7.73639C13.4877 7.61051 13.6363 7.39957 13.6228 7.20564C13.5891 6.69191 12.4173 6.63407 13.1872 5.80392C13.4641 5.50793 13.8322 5.37524 14.126 5.34122C14.332 5.3174 14.5042 5.34462 14.6899 5.36163C14.8621 5.37524 15.0411 5.30719 15.2167 5.29018C15.2944 5.29018 15.3923 5.19492 15.3788 5.11667Z" fill="#CB2000"/>
<path d="M14.2678 4.94343C15.0445 5.2054 15.5679 5.55243 15.1491 6.38598C14.7068 7.26375 13.4168 6.97116 12.7988 6.83847C12.549 6.78404 12.6503 7.36582 12.684 7.6414C12.7651 8.27082 13.6329 8.2436 14.2644 8.07349C14.9938 7.87616 15.7806 7.28077 16.1521 6.48124C16.8004 5.07611 15.8178 3.77306 14.44 4.36845C14.1462 4.49093 14.0956 4.87538 14.2678 4.94343Z" fill="#DF2500"/>
<g opacity="0.57">
<path opacity="0.57" d="M16.5134 8.23698C16.9457 8.60783 17.6075 7.86614 17.1787 7.4953C16.7464 7.12445 16.0812 7.86614 16.5134 8.23698Z" fill="white"/>
</g>
<path d="M14.0484 6.12797C14.2476 5.77074 14.0518 5.4101 13.8188 5.11751C13.633 4.88275 13.2109 4.4949 12.8766 4.63099C12.8057 4.65821 12.7753 4.70243 12.7652 4.77728C12.728 5.06307 13.0387 5.38969 13.1974 5.59722C13.3966 5.85579 13.5722 6.12117 13.9066 6.18241C13.964 6.19602 14.0214 6.17901 14.0484 6.12797Z" fill="#664E38"/>
<path d="M30.2979 6.30493C29.6563 5.92048 28.9133 5.67892 28.1536 5.57685C26.8366 5.39653 25.3575 5.68572 24.5741 6.62474C23.9966 7.3154 23.8852 8.234 23.9223 9.10838C23.9696 10.306 24.2803 11.5342 25.0637 12.5208C25.8472 13.5075 27.1641 14.2151 28.498 14.1301C29.5921 14.062 30.5748 13.4735 31.2299 12.7045C31.9289 11.8846 32.6752 10.5475 32.4759 9.46221C32.2497 8.25101 31.4561 7.00239 30.2979 6.30493Z" fill="#120B1A"/>
<path d="M32.2159 7.92442C31.9828 8.24083 32.0369 9.19686 31.9795 9.56771C31.9153 9.97257 31.6688 10.551 31.4932 10.9286C31.1488 11.6703 30.5038 12.2725 29.7339 12.6876C28.9504 13.1128 28.0387 13.2183 27.2316 12.9325C26.2827 12.5957 25.5499 12.1126 24.7192 11.6261C24.3984 11.4389 23.9493 11.4423 24.0134 11.803C24.3376 13.6368 26.8298 14.8276 28.7478 14.603C30.8145 14.3649 32.4421 12.8236 32.8406 11.0341C32.9453 10.5646 32.9655 10.0814 32.8912 9.60513C32.8304 9.20707 32.8912 8.07752 32.4556 7.86999C32.3644 7.82576 32.0706 8.41775 32.0166 8.4926L32.2159 7.92442Z" fill="#190E27"/>
<path d="M32.145 7.48187C31.9998 6.9103 31.4494 6.50883 30.9496 6.16181C30.389 5.77055 29.7745 5.45074 29.116 5.21258C27.9948 4.81112 26.7116 4.71245 25.577 5.06288C24.3276 5.45074 23.4631 6.29109 23.0612 7.40703C22.8586 7.9752 22.7945 8.60802 22.8282 9.20681C22.8721 9.91788 23.095 10.5235 23.4226 11.1699C23.5306 11.3842 23.7197 11.5612 24 11.5544C24.0507 11.5544 24.1081 11.551 24.1553 11.5339C24.412 11.4557 24.4795 11.5373 24.4897 11.2958C24.5133 10.7242 24.591 9.90087 24.5639 9.32589C24.5403 8.86999 24.5504 8.44811 24.6754 8.00922C24.7834 7.63157 24.9759 7.27434 25.2832 6.99535C25.5567 6.74699 25.9046 6.58368 26.276 6.48842C27.1439 6.26727 28.0556 6.40336 28.9437 6.70957C29.4098 6.86947 29.8487 7.09742 30.281 7.31857C30.7673 7.56693 31.5642 8.24057 32.1383 8.24738C32.378 8.25759 32.1957 7.6724 32.145 7.48187Z" fill="#0B050D"/>
<path opacity="0.1" d="M29.0518 13.7419C28.0691 12.3844 27.4511 10.7547 27.9374 9.17609C28.14 8.52286 28.5486 7.71653 29.2611 7.39672C29.5921 7.24702 30.0007 7.16537 30.3721 7.13815C30.568 7.12114 30.7605 7.12795 30.9529 7.16537C30.9732 7.16877 30.9968 7.17218 31.0171 7.17558C31.0678 7.19259 31.1218 7.2028 31.1724 7.2096C31.1826 7.213 31.1893 7.213 31.1995 7.2164C31.24 7.22661 31.2771 7.24022 31.3143 7.25723C31.2197 7.54302 31.6317 7.822 31.9356 7.58725C32.2058 7.37971 32.1416 7.10753 31.9728 6.86597C32.1551 6.61421 32.1652 6.27739 31.8377 6.01201C31.5642 5.78746 31.2265 5.66158 30.8618 5.60715C30.4599 5.46085 30.0581 5.32476 29.6326 5.24651C29.5245 5.22609 29.4131 5.21249 29.305 5.19888C29.1936 5.0764 29.045 4.98113 28.8593 4.94031C28.5047 4.86546 28.2177 4.88247 27.9509 4.97773C26.9514 5.09341 25.9856 5.32816 25.1954 5.90994C24.2701 6.5938 23.8109 7.70973 23.5407 8.7338C23.2098 9.99603 23.6218 11.1596 24.2296 12.313C24.7192 13.2452 25.3541 14.1978 26.4279 14.6741C26.8095 14.8408 27.2147 14.7524 27.468 14.5312C27.6774 14.6605 27.9104 14.7592 28.1704 14.8034C28.8289 14.9259 29.4637 14.3101 29.0518 13.7419Z" fill="#0B050D"/>
<path opacity="0.1" d="M27.8124 14.157C26.6271 12.5171 25.8842 10.554 26.4684 8.64534C26.7116 7.85602 27.208 6.88298 28.0657 6.49853C28.4675 6.31821 28.9572 6.22295 29.4063 6.18552C29.6427 6.16851 29.8723 6.17531 30.1087 6.21614C30.1357 6.21954 30.1594 6.22635 30.1864 6.22975C30.2505 6.25016 30.3113 6.26377 30.3721 6.27058C30.3822 6.27398 30.3924 6.27738 30.4025 6.28078C30.4498 6.29099 30.497 6.308 30.5409 6.32842C30.4295 6.67544 30.9225 7.00886 31.2906 6.72648C31.6182 6.47811 31.5371 6.14469 31.3345 5.85891C31.554 5.55611 31.5641 5.14784 31.169 4.82803C30.8381 4.55925 30.4295 4.40615 29.9905 4.3381C29.5076 4.16119 29.0213 3.99448 28.5081 3.90262C28.3764 3.8788 28.2447 3.86179 28.1096 3.84478C27.9779 3.69508 27.7955 3.58281 27.5727 3.53518C27.1472 3.44332 26.7994 3.46373 26.4752 3.57941C25.2696 3.7189 24.1012 4.00469 23.149 4.70555C22.0312 5.52889 21.4774 6.87958 21.1532 8.11459C20.7514 9.63539 21.2512 11.0405 21.9839 12.4354C22.5749 13.5616 23.3381 14.7081 24.6348 15.2831C25.094 15.4872 25.5871 15.375 25.891 15.1096C26.1443 15.2661 26.4245 15.3818 26.7386 15.4396C27.5457 15.5825 28.3088 14.8408 27.8124 14.157Z" fill="#0B050D"/>
<path opacity="0.1" d="M27.0324 13.8951C25.6445 12.3845 24.6517 10.5065 24.9792 8.5468C25.1177 7.73366 25.479 6.71639 26.2793 6.24008C26.6542 6.01893 27.1269 5.87264 27.5659 5.78758C27.7989 5.74335 28.0252 5.72974 28.2649 5.74675C28.292 5.75016 28.319 5.75016 28.346 5.75356C28.4101 5.76717 29.6765 5.52901 29.4367 5.26364C29.6157 4.94042 29.5718 4.53215 29.1395 4.25317C28.7748 4.01842 28.3527 3.90955 27.907 3.88913C27.4072 3.76325 26.9041 3.64757 26.384 3.61015C26.2489 3.59994 26.1173 3.59654 25.9822 3.59654C25.8302 3.46045 25.6344 3.36859 25.4115 3.34477C24.9759 3.30054 24.6382 3.35498 24.3309 3.50468C23.1557 3.77005 22.038 4.17492 21.1836 4.97445C20.1841 5.91006 19.8126 7.31178 19.6539 8.57742C19.4581 10.1356 20.1368 11.4795 21.0418 12.7928C21.7746 13.8543 22.683 14.9158 24.0405 15.3547C24.52 15.5078 24.9961 15.3479 25.2629 15.0519C25.5331 15.1812 25.8268 15.2696 26.1443 15.2934C26.9547 15.3479 27.6132 14.5279 27.0324 13.8951Z" fill="#0B050D"/>
<path opacity="0.17" d="M31.0171 11.7278C31.1116 11.6087 32.2834 9.96206 32.0943 9.268C32.0267 9.01964 31.8815 8.8019 31.6756 8.66921C31.3176 8.3528 30.73 8.26434 30.3586 8.71344C30.1593 8.9516 29.9601 9.16253 29.7406 9.34966C29.6022 9.43131 29.4569 9.50956 29.3185 9.58441C28.8457 9.84298 28.3493 10.0607 27.8327 10.2513C27.7719 10.2717 27.7145 10.2955 27.6537 10.3159C27.5591 10.3159 27.4612 10.3125 27.3633 10.3125C26.9209 10.3057 26.4785 10.3363 26.1679 10.6527C25.9349 10.8909 25.8268 11.2005 25.8808 11.5203C25.9923 12.2041 26.6474 12.6532 27.3532 12.8165C28.6701 13.1227 30.2708 12.6736 31.0171 11.7278Z" fill="#190E27"/>
<path opacity="0.08" d="M31.2839 10.3057C30.7436 8.95841 29.1328 8.13847 27.5727 8.22012C27.2249 8.23713 26.8737 8.29837 26.5461 8.40384C26.0767 8.4889 25.6344 8.65901 25.2967 8.96861C24.6922 9.52658 24.6652 10.3737 24.9725 11.0814C25.5398 12.3981 26.9243 13.4255 28.5452 13.3915C30.3181 13.3575 31.9525 11.9728 31.2839 10.3057Z" fill="white"/>
<path d="M25.0805 9.48593C24.7597 8.76806 24.2666 8.11483 23.6791 7.57047C22.6592 6.62124 21.2207 5.97482 19.9915 6.30483C19.0865 6.54639 18.4449 7.26767 17.9586 8.03657C17.29 9.09127 16.824 10.3263 16.9084 11.6464C16.9929 12.9664 17.6986 14.3647 18.8907 15.0996C19.8666 15.6984 21.0552 15.7903 22.0784 15.5283C23.1658 15.2459 24.6009 14.5553 25.0703 13.504C25.5937 12.3268 25.6579 10.7754 25.0805 9.48593Z" fill="#DF3609"/>
<path d="M25.7592 12.0239C25.3709 12.1532 24.8474 13.0071 24.5807 13.2861C24.2835 13.5957 23.7297 13.9393 23.3582 14.1571C22.6221 14.5824 21.7137 14.7083 20.8053 14.6028C19.8835 14.4939 19.0392 14.0346 18.5192 13.3031C17.9046 12.4424 17.5669 11.5884 17.1448 10.6698C16.9827 10.316 16.5944 10.0472 16.4357 10.3942C15.6252 12.16 17.0469 14.681 18.8231 15.6473C20.7344 16.6884 23.0442 16.3515 24.449 15.0621C24.8171 14.7219 25.121 14.3238 25.3438 13.8679C25.5262 13.4902 26.2522 12.5614 26.0023 12.1191C25.9517 12.0273 25.3438 12.3573 25.256 12.3845L25.7592 12.0239Z" fill="#E22A00"/>
<path d="M25.9618 11.6054C26.1779 11.0304 25.9449 10.3533 25.7254 9.75454C25.4789 9.08089 25.1446 8.43447 24.7191 7.83567C23.9998 6.815 22.9597 5.95764 21.7778 5.57318C20.4811 5.15131 19.2384 5.34864 18.2321 6.06311C17.7188 6.42715 17.29 6.92728 16.9658 7.46483C16.5808 8.09765 16.412 8.75428 16.3039 9.50277C16.2702 9.75113 16.3242 10.0165 16.5707 10.1798C16.6146 10.2104 16.6653 10.2411 16.7159 10.2581C16.9827 10.3465 16.9894 10.4554 17.1448 10.2547C17.5061 9.77835 18.0599 9.12172 18.3773 8.61479C18.6272 8.21332 18.8872 7.85268 19.2553 7.55669C19.5761 7.29812 19.9476 7.10759 20.3798 7.05656C20.7614 7.00893 21.1531 7.08038 21.5313 7.22327C22.4059 7.56009 23.1049 8.22353 23.6824 9.02306C23.9863 9.44153 24.2261 9.90083 24.4658 10.3533C24.7326 10.8603 25.0163 11.915 25.5025 12.2688C25.6984 12.4083 25.8909 11.7959 25.9618 11.6054Z" fill="#D82600"/>
<path opacity="0.1" d="M19.593 15.096C19.5592 13.3405 19.9982 11.5747 21.3557 10.5166C21.9163 10.0777 22.747 9.63544 23.5473 9.79194C23.9188 9.86339 24.3139 10.0403 24.6516 10.241C24.8305 10.3465 24.9892 10.4656 25.1344 10.6153C25.1513 10.6323 25.1682 10.6493 25.1817 10.6629C25.2155 10.7071 25.256 10.748 25.2965 10.7854C25.3033 10.7922 25.31 10.799 25.3134 10.8058C25.3438 10.8364 25.3675 10.8739 25.3877 10.9113C25.1378 11.1018 25.3236 11.5849 25.7254 11.5713C26.08 11.5577 26.1847 11.2821 26.1847 10.9759C26.4886 10.8705 26.6979 10.5881 26.5764 10.1628C26.4751 9.80555 26.2589 9.49254 25.982 9.22717C25.7254 8.85973 25.4654 8.49909 25.1446 8.17928C25.0635 8.09763 24.9757 8.01597 24.8913 7.94112C24.8711 7.76761 24.7968 7.5975 24.6651 7.4512C24.4084 7.17222 24.1518 7.01571 23.8647 6.93406C22.9395 6.43053 21.9737 6.04948 20.9505 6.06989C19.7517 6.09371 18.6948 6.77415 17.8573 7.48862C16.824 8.3698 16.4863 9.61162 16.3174 10.9691C16.1824 12.0646 16.1587 13.2588 16.7936 14.3169C17.0198 14.6912 17.4217 14.8579 17.7695 14.8205C17.8708 15.0586 18.0126 15.2798 18.2085 15.4771C18.7015 15.9738 19.6065 15.8309 19.593 15.096Z" fill="#D82600"/>
<path opacity="0.1" d="M18.2863 14.7015C18.2457 12.5819 18.7759 10.4521 20.4137 9.17285C21.0924 8.6421 22.0954 8.11135 23.0578 8.29848C23.5069 8.38693 23.9864 8.59787 24.3916 8.83943C24.6078 8.96872 24.7969 9.11161 24.9725 9.29193C24.9927 9.31234 25.013 9.33276 25.0332 9.34977C25.0738 9.4042 25.121 9.45184 25.1683 9.49606C25.1751 9.50627 25.1818 9.51308 25.1886 9.52328C25.2223 9.56071 25.2527 9.60494 25.2797 9.64917C24.9792 9.87712 25.2021 10.4623 25.685 10.4453C26.1138 10.4283 26.2422 10.0983 26.2388 9.72742C26.6069 9.60153 26.8601 9.25791 26.7115 8.74417C26.5866 8.31209 26.33 7.93784 25.9923 7.61463C25.6816 7.17233 25.3675 6.73685 24.9826 6.34899C24.8847 6.25033 24.78 6.15506 24.6753 6.0598C24.6517 5.85227 24.5639 5.64473 24.4018 5.47121C24.0911 5.1378 23.7838 4.94387 23.436 4.8452C22.3216 4.2396 21.1532 3.7769 19.9207 3.80071C18.4754 3.83133 17.1989 4.65127 16.1858 5.51204C14.9398 6.57354 14.5312 8.07733 14.3286 9.71041C14.1665 11.0305 14.1361 12.473 14.906 13.7489C15.1762 14.198 15.6658 14.4021 16.0845 14.3579C16.2061 14.6437 16.3783 14.9124 16.6113 15.1506C17.209 15.763 18.3031 15.5895 18.2863 14.7015Z" fill="#D82600"/>
<path opacity="0.1" d="M17.7729 14.0074C17.4825 11.8776 17.7493 9.66952 19.198 8.18954C19.7991 7.57714 20.7176 6.92391 21.6833 6.99876C22.1358 7.03278 22.6289 7.19269 23.0544 7.39002C23.2806 7.49208 23.4832 7.61797 23.6757 7.77787C23.696 7.79488 23.7196 7.81189 23.7399 7.8289C23.7871 7.87994 25.0129 8.43791 24.9657 8.06706C25.3101 7.89695 25.5161 7.5227 25.3101 7.02257C25.1379 6.6041 24.8407 6.25367 24.4726 5.96788C24.1181 5.55961 23.7567 5.15474 23.3346 4.81112C23.2266 4.72266 23.1151 4.6376 23.0003 4.55595C22.953 4.34841 22.8416 4.15108 22.6626 3.99458C22.3182 3.69518 21.994 3.53528 21.6428 3.47744C20.4812 2.99772 19.279 2.66771 18.0768 2.83442C16.6653 3.03175 15.5138 4.00819 14.6257 4.99484C13.5316 6.20944 13.3121 7.77107 13.3087 9.44157C13.3053 10.7923 13.4505 12.2484 14.3522 13.4426C14.673 13.8645 15.1727 14.0142 15.578 13.9189C15.7333 14.1945 15.9325 14.4463 16.1892 14.6572C16.8443 15.2016 17.8945 14.8988 17.7729 14.0074Z" fill="#D82600"/>
<path opacity="0.17" d="M22.4735 14.555C22.6255 14.5108 24.6043 13.8066 24.8576 13.1023C24.9488 12.8505 24.9521 12.5749 24.8542 12.3368C24.736 11.8503 24.2869 11.4216 23.6993 11.5781C23.3887 11.6631 23.0949 11.721 22.791 11.7482C22.6255 11.7346 22.4533 11.7108 22.2912 11.6938C21.7306 11.6291 21.1768 11.5168 20.623 11.3671C20.5588 11.3501 20.4947 11.3331 20.4305 11.3127C20.3495 11.2549 20.2684 11.1936 20.184 11.1358C19.8092 10.8636 19.4107 10.6221 18.9582 10.7037C18.6171 10.765 18.3436 10.9657 18.195 11.2753C17.8844 11.9285 18.1781 12.7076 18.6847 13.2758C19.637 14.3339 21.2714 14.9157 22.4735 14.555Z" fill="#E22A00"/>
<path opacity="0.08" d="M23.5474 13.5038C23.8851 12.0238 22.9936 10.3499 21.6124 9.47894C21.3051 9.28501 20.9675 9.12171 20.6264 9.01964C20.1739 8.8087 19.6944 8.68622 19.2216 8.75086C18.374 8.86314 17.8472 9.5708 17.6851 10.3635C17.388 11.8333 17.962 13.548 19.3668 14.4972C20.9067 15.5315 23.1286 15.3342 23.5474 13.5038Z" fill="white"/>
<path opacity="0.08" d="M22.8416 13.5073C23.0678 12.5138 22.4701 11.3877 21.5415 10.8025C21.3355 10.6732 21.1092 10.5643 20.8796 10.4929C20.5757 10.35 20.2515 10.2683 19.9341 10.3126C19.3634 10.3874 19.0088 10.8637 18.9007 11.3979C18.7015 12.3845 19.0865 13.5379 20.032 14.1775C21.0687 14.8716 22.5613 14.7355 22.8416 13.5073Z" fill="white"/>
<g opacity="0.17">
<path opacity="0.17" d="M21.3456 12.3299C21.0181 12.398 20.7918 12.711 20.6669 13.0308C20.5115 13.4187 20.4373 13.7793 20.5926 14.2148C20.7884 14.7659 21.5179 14.8374 21.7812 14.4189C21.9636 14.1331 21.9366 13.8303 21.9602 13.4901C21.9737 13.2554 21.9771 12.8675 21.8522 12.6498C21.7441 12.4626 21.555 12.2891 21.3456 12.3299Z" fill="white"/>
</g>
<path d="M23.6757 10.4588C23.5407 10.503 23.4664 10.5949 23.3887 10.6902C23.3482 10.7378 23.3077 10.8739 23.2199 10.8569C22.7066 10.7616 23.0443 10.1594 22.8315 10.0063C22.7167 9.92467 22.6087 9.92126 22.5276 9.95529C22.3047 10.0471 22.4094 10.4656 22.504 10.714C22.612 10.9998 22.8957 11.2754 23.2266 11.3876C23.5643 11.5033 23.7804 11.4046 23.9054 11.2175C23.9999 11.0746 24.1249 10.7616 23.8648 10.5303C23.8074 10.4792 23.7264 10.4418 23.6757 10.4588Z" fill="#DE2100"/>
<path d="M24.0741 11.9827C24.2936 11.8126 24.3949 11.5813 24.3848 11.2989C24.4354 11.1934 24.4523 11.0641 24.4456 10.9144C24.4287 10.496 24.4051 10.0026 24.1619 9.53312C23.9627 9.14867 23.5439 8.72679 23.0779 8.62472C22.4971 8.49544 22.2202 8.87649 22.0041 9.17589C21.7542 9.51951 21.6191 9.91757 21.7914 10.4551C21.9264 10.8838 22.227 11.5234 22.7099 11.8671C23.2333 12.2345 23.777 12.2141 24.0741 11.9827ZM22.6558 10.4483C22.6153 10.2 22.8281 9.69983 23.0509 9.63859C23.5203 9.5059 23.6824 10.0196 23.706 10.1183C23.7499 10.2782 23.7938 10.4653 23.7398 10.6423C23.7364 10.6559 23.6284 11.2615 23.3785 11.2581C22.8078 11.2444 22.693 10.6695 22.6558 10.4483Z" fill="#D82600"/>
<path d="M24.4523 11.4111C24.7292 11.3295 24.9082 11.2989 25.0061 11.0403C25.1007 10.7885 25.1243 10.5163 25.0433 10.1931C24.8947 9.60114 24.4253 8.93771 23.7668 8.49542C23.1218 8.06333 22.3823 7.90002 21.8825 8.08375C21.3895 8.26406 20.9505 8.90028 21.484 9.56372C21.6394 9.75765 21.8758 9.88693 22.0716 9.84951C22.5984 9.74744 22.5039 8.51583 23.4561 9.21669C23.7972 9.46846 23.9796 9.8325 24.0505 10.1353C24.1011 10.3462 24.0944 10.53 24.1011 10.7273C24.1079 10.9076 24.2024 11.0845 24.2429 11.2682C24.2632 11.3431 24.3746 11.435 24.4523 11.4111Z" fill="#CB2000"/>
<path d="M24.4861 10.2273C24.3173 11.0745 24.0269 11.6665 23.1151 11.333C22.1561 10.9826 22.2878 9.5979 22.3452 8.93786C22.3688 8.66909 21.7813 8.8494 21.5044 8.92085C20.8695 9.08756 21.008 9.98915 21.2646 10.6254C21.5618 11.3637 22.2743 12.1088 23.1455 12.3911C24.6752 12.8879 25.8875 11.6937 25.1007 10.3294C24.9386 10.0436 24.5368 10.0402 24.4861 10.2273Z" fill="#DF2500"/>
<path d="M21.3896 13.0004C21.0654 13.4971 21.913 14.0959 22.2372 13.5992C22.5647 13.0991 21.7137 12.5003 21.3896 13.0004Z" fill="white"/>
<path d="M23.2401 10.1525C23.6318 10.3124 23.9796 10.064 24.2498 9.78163C24.4659 9.55708 24.8104 9.06716 24.628 8.73714C24.5909 8.66909 24.5402 8.64188 24.4625 8.64188C24.162 8.64188 23.8648 9.00592 23.6757 9.19984C23.436 9.4414 23.1861 9.65915 23.1624 10.0164C23.1624 10.0708 23.1861 10.1287 23.2401 10.1525Z" fill="#664E38"/>
<path d="M22.862 11.4421C22.1461 11.6633 21.4741 12.0613 20.8899 12.5581C19.8734 13.4222 19.0968 14.7219 19.2622 15.9365C19.3838 16.8313 19.9883 17.5321 20.6535 18.0867C21.5686 18.8522 22.6796 19.4442 23.9324 19.519C25.1853 19.5973 26.59 19.087 27.4207 18.0323C28.1029 17.1681 28.3291 16.042 28.2008 15.0315C28.0623 13.9598 27.5795 12.5036 26.6474 11.9286C25.604 11.289 24.1486 11.0441 22.862 11.4421Z" fill="#170B1A"/>
<path d="M25.3406 11.0915C25.4182 11.4794 26.1612 12.0782 26.3908 12.3674C26.6474 12.6872 26.9074 13.2588 27.0662 13.6432C27.3802 14.3985 27.3937 15.2831 27.1843 16.1405C26.9716 17.0114 26.4414 17.7633 25.6884 18.175C24.8037 18.6615 23.9594 18.8827 23.0409 19.1787C22.6897 19.2909 22.3892 19.6312 22.6999 19.8251C24.2701 20.8083 26.8129 19.7434 27.934 18.1614C29.1429 16.4569 29.099 14.2046 28.0455 12.7076C27.7685 12.313 27.4275 11.9761 27.0256 11.7108C26.6913 11.493 25.9011 10.6901 25.4554 10.8738C25.3642 10.9112 25.6006 11.5304 25.6175 11.6189L25.3406 11.0915Z" fill="#200E27"/>
<path d="M24.9658 10.8498C24.4491 10.5742 23.7805 10.7205 23.1929 10.86C22.5277 11.0165 21.8827 11.2615 21.2647 11.5949C20.2179 12.1631 19.2859 13.0579 18.7861 14.1432C18.2357 15.3374 18.2728 16.5485 18.83 17.5964C19.1136 18.1306 19.5357 18.6001 20.0018 18.9743C20.5556 19.42 21.1533 19.6548 21.8455 19.8487C22.0752 19.91 22.3318 19.8895 22.5175 19.6752C22.5513 19.6378 22.5884 19.5902 22.6087 19.5459C22.7235 19.301 22.8282 19.3078 22.656 19.1377C22.2507 18.7362 21.6969 18.1272 21.2546 17.7631C20.9034 17.474 20.5961 17.1848 20.3597 16.7969C20.1537 16.4601 20.0186 16.079 20.0186 15.664C20.0186 15.2931 20.1301 14.9257 20.3124 14.5821C20.7312 13.7859 21.4437 13.1939 22.2609 12.7346C22.6897 12.4931 23.1524 12.3162 23.6049 12.1426C24.1148 11.9453 25.1447 11.799 25.5331 11.3771C25.6952 11.1968 25.138 10.9417 24.9658 10.8498Z" fill="#0B050D"/>
<path opacity="0.1" d="M27.5052 17.3583C25.8472 17.1814 24.233 16.5554 23.3955 15.1299C23.0477 14.5413 22.7303 13.6941 22.9701 12.9456C23.0815 12.5952 23.2942 12.238 23.5239 11.942C23.6454 11.7855 23.7771 11.646 23.9325 11.5235C23.9494 11.5099 23.9662 11.4963 23.9831 11.4827C24.0304 11.4555 24.0709 11.4214 24.1114 11.3874C24.1182 11.384 24.125 11.3772 24.1351 11.3738C24.1689 11.35 24.206 11.3296 24.2431 11.316C24.3917 11.5779 24.8712 11.4589 24.905 11.071C24.9354 10.7308 24.6889 10.5947 24.3985 10.5607C24.3377 10.2579 24.0946 10.0231 23.6758 10.0912C23.328 10.1456 23.0072 10.3157 22.7235 10.5505C22.3487 10.7512 21.9773 10.9587 21.6362 11.2275C21.5484 11.2955 21.464 11.367 21.3796 11.4418C21.2141 11.4418 21.0452 11.4895 20.8933 11.6017C20.6029 11.8161 20.4205 12.0406 20.3091 12.306C19.7249 13.1294 19.2521 14.0139 19.1508 14.9938C19.0326 16.1437 19.5493 17.2359 20.1234 18.1238C20.8291 19.216 21.9638 19.6855 23.2233 20.0053C24.2398 20.2639 25.3643 20.4272 26.4347 19.944C26.8129 19.7739 27.0189 19.4065 27.0257 19.0697C27.2621 19.0016 27.4883 18.8893 27.6977 18.7294C28.2312 18.3178 28.2008 17.4332 27.5052 17.3583Z" fill="#0B050D"/>
<path opacity="0.1" d="M26.9817 18.5629C24.9792 18.3519 23.0342 17.5932 22.0211 15.8751C21.6024 15.164 21.2174 14.1433 21.5078 13.2418C21.6429 12.8199 21.8995 12.3878 22.1764 12.0306C22.3216 11.84 22.4803 11.6733 22.6694 11.527C22.6897 11.51 22.71 11.493 22.7302 11.476C22.7876 11.442 22.8383 11.4045 22.8856 11.3637C22.8957 11.3569 22.9025 11.3535 22.9126 11.3467C22.9531 11.3195 22.997 11.2957 23.0409 11.2753C23.2199 11.5917 23.7973 11.4454 23.8378 10.9793C23.8716 10.5676 23.5745 10.4043 23.2266 10.3635C23.1523 9.99602 22.8586 9.71363 22.3554 9.79529C21.9333 9.86333 21.5483 10.0675 21.2073 10.3499C20.7548 10.5948 20.3056 10.8432 19.8937 11.1664C19.789 11.248 19.6843 11.3365 19.5864 11.425C19.3871 11.425 19.1811 11.4828 18.9988 11.6189C18.6476 11.8775 18.4281 12.1496 18.2964 12.4694C17.594 13.4663 17.02 14.5278 16.8984 15.7118C16.7566 17.0999 17.3779 18.4166 18.0702 19.4883C18.9245 20.8083 20.2921 21.3731 21.8117 21.761C23.0375 22.074 24.395 22.2713 25.6884 21.6861C26.1442 21.4786 26.3941 21.0363 26.4009 20.6314C26.6879 20.5498 26.9614 20.4171 27.2113 20.2197C27.8529 19.7196 27.8192 18.6513 26.9817 18.5629Z" fill="#0B050D"/>
<path opacity="0.1" d="M26.2659 18.9713C24.2229 18.9985 22.1731 18.4847 20.9507 16.9231C20.4441 16.2767 19.9376 15.3206 20.1233 14.4054C20.2111 13.9768 20.4171 13.5243 20.6535 13.1398C20.7785 12.9357 20.9203 12.7554 21.0925 12.5887C21.1128 12.5716 21.1296 12.5512 21.1499 12.5342C21.2039 12.4934 21.8759 11.3877 21.518 11.3877C21.3998 11.0372 21.0689 10.7957 20.5725 10.9318C20.1571 11.0474 19.7924 11.2924 19.4784 11.6088C19.0495 11.9014 18.6274 12.1974 18.2526 12.5614C18.1546 12.6567 18.0635 12.752 17.9723 12.8506C17.773 12.8744 17.5704 12.9561 17.4016 13.1092C17.0774 13.4018 16.8917 13.6944 16.7937 14.0244C16.2028 15.0791 15.7503 16.1882 15.7672 17.362C15.7874 18.7365 16.5709 19.9545 17.3948 20.9207C18.4113 22.1115 19.8566 22.5062 21.4336 22.7069C22.7066 22.8702 24.0979 22.9042 25.3305 22.1796C25.7661 21.9244 25.9653 21.4617 25.9248 21.0636C26.2017 20.948 26.4617 20.788 26.6914 20.5669C27.2823 20.0021 27.1202 18.961 26.2659 18.9713Z" fill="#0B050D"/>
<path opacity="0.17" d="M27.3363 14.5382C27.3127 14.3885 26.8838 12.4084 26.249 12.0852C26.0193 11.9695 25.7627 11.9321 25.5263 11.9967C25.0535 12.0511 24.5943 12.4322 24.6753 13.0106C24.7192 13.3168 24.7395 13.606 24.7294 13.8986C24.699 14.0585 24.6551 14.2184 24.6179 14.3715C24.493 14.8988 24.3208 15.416 24.1148 15.9297C24.0911 15.9875 24.0675 16.0488 24.0439 16.1066C23.9797 16.1781 23.9155 16.2495 23.848 16.321C23.5475 16.6476 23.2739 16.998 23.2976 17.4403C23.3145 17.7737 23.4732 18.0595 23.7467 18.2364C24.3241 18.6107 25.0941 18.4235 25.6884 18.0017C26.7926 17.2259 27.5355 15.7324 27.3363 14.5382Z" fill="#200E27"/>
<path opacity="0.08" d="M26.4719 13.3883C25.1178 12.8915 23.4327 13.5448 22.45 14.7662C22.2305 15.0384 22.0381 15.3412 21.8996 15.6576C21.6463 16.0658 21.4741 16.5115 21.4775 16.9708C21.4843 17.7976 22.0887 18.3828 22.8181 18.6311C24.1689 19.087 25.8539 18.74 26.9142 17.5084C28.0725 16.1543 28.1468 14.0041 26.4719 13.3883Z" fill="white"/>
<path opacity="0.08" d="M26.3908 14.0615C25.479 13.7281 24.3477 14.167 23.6859 14.9869C23.5373 15.1706 23.409 15.3714 23.3144 15.5857C23.1456 15.8613 23.0274 16.1607 23.0308 16.4703C23.0341 17.0248 23.4428 17.4195 23.9324 17.5862C24.8408 17.8924 25.972 17.6611 26.6845 16.8309C27.468 15.9191 27.5186 14.4732 26.3908 14.0615Z" fill="white"/>
<g opacity="0.17">
<path opacity="0.17" d="M25.1076 15.3545C25.1346 15.6777 25.4014 15.9295 25.6884 16.086C26.0362 16.2799 26.3672 16.3956 26.796 16.2969C27.3397 16.1745 27.495 15.4838 27.1303 15.1844C26.8805 14.9769 26.5934 14.9667 26.276 14.9054C26.0565 14.8646 25.6884 14.817 25.4689 14.9088C25.2764 14.9871 25.0907 15.1504 25.1076 15.3545Z" fill="white"/>
</g>
<path d="M23.615 12.9047C23.6386 13.0374 23.7197 13.1191 23.7974 13.2075C23.8379 13.2518 23.9628 13.3062 23.9358 13.3912C23.7872 13.871 23.2571 13.4763 23.0882 13.6634C22.997 13.7621 22.9835 13.8676 23.0038 13.9458C23.0646 14.1704 23.4732 14.1193 23.7163 14.0581C23.9966 13.9866 24.2904 13.7485 24.439 13.4457C24.5875 13.1361 24.52 12.9183 24.3579 12.7754C24.233 12.67 23.9527 12.5135 23.7062 12.7312C23.6521 12.7788 23.6049 12.8503 23.615 12.9047Z" fill="#0F0713"/>
<path d="M25.0974 12.704C24.9624 12.476 24.7564 12.3501 24.4896 12.3229C24.3984 12.2617 24.2769 12.2311 24.135 12.2209C23.7366 12.1868 23.2706 12.1528 22.7978 12.3263C22.4128 12.4726 21.9637 12.8231 21.8151 13.2551C21.626 13.7961 21.9502 14.1057 22.2068 14.3473C22.5006 14.6262 22.862 14.8032 23.3854 14.7011C23.8041 14.6228 24.4423 14.4119 24.8273 13.9866C25.2393 13.5375 25.2832 13.0136 25.0974 12.704ZM23.4867 13.8778C23.2503 13.888 22.8012 13.6226 22.7674 13.4048C22.6999 12.9387 23.203 12.8469 23.2976 12.8333C23.4563 12.8129 23.6353 12.7924 23.794 12.8639C23.8075 12.8707 24.3647 13.0442 24.3309 13.2824C24.2532 13.8267 23.6994 13.8675 23.4867 13.8778Z" fill="#0B050D"/>
<path d="M24.6044 12.2755C24.5605 12.0033 24.5538 11.8264 24.3208 11.7005C24.0945 11.5781 23.8412 11.5236 23.5272 11.5644C22.9531 11.6359 22.271 12.0067 21.7746 12.5851C21.2917 13.1533 21.0519 13.8405 21.1634 14.3407C21.2748 14.834 21.8252 15.3273 22.5108 14.8952C22.7134 14.7694 22.8619 14.5584 22.8484 14.3645C22.8147 13.8507 21.6429 13.7929 22.4128 12.9628C22.6897 12.6668 23.0578 12.5341 23.3516 12.5001C23.5576 12.4762 23.7298 12.5035 23.9155 12.5205C24.0878 12.5341 24.2667 12.466 24.4423 12.449C24.52 12.4456 24.6179 12.3504 24.6044 12.2755Z" fill="black"/>
<path d="M23.4934 12.1023C24.2701 12.3642 24.7935 12.7113 24.3748 13.5448C23.9324 14.4226 22.6425 14.13 22.0245 13.9973C21.7746 13.9429 21.8759 14.5247 21.9097 14.8002C21.9907 15.4297 22.8586 15.4024 23.4901 15.2323C24.2195 15.035 25.0063 14.4396 25.3777 13.6401C26.0261 12.235 25.0434 10.9319 23.6657 11.5273C23.3752 11.6464 23.3246 12.0308 23.4934 12.1023Z" fill="#140819"/>
<g opacity="0.46">
<path opacity="0.46" d="M25.5026 14.5279C25.9349 14.8987 26.5967 14.157 26.1679 13.7862C25.7356 13.4153 25.0704 14.157 25.5026 14.5279Z" fill="white"/>
</g>
<path d="M23.5069 13.0478C23.7568 12.5953 23.5103 12.1394 23.2165 11.7652C22.9801 11.4692 22.4466 10.9792 22.0245 11.1494C21.9367 11.1868 21.8961 11.2412 21.886 11.3331C21.8421 11.6971 22.2304 12.1122 22.4364 12.3708C22.6897 12.6974 22.9092 13.0342 23.3347 13.1124C23.4022 13.1295 23.4731 13.109 23.5069 13.0478Z" fill="#2B2918"/>
<path d="M5.58599 10.5573C5.21116 11.2445 4.99166 12.0372 4.91062 12.8402C4.77217 14.2317 5.12674 15.7763 6.12629 16.5656C6.86245 17.1474 7.82148 17.2291 8.7231 17.161C9.96241 17.0658 11.222 16.6949 12.2182 15.8341C13.2143 14.9734 13.8965 13.5614 13.7614 12.1597C13.65 11.0132 13.005 9.9993 12.181 9.33926C11.303 8.635 9.8915 7.89671 8.77713 8.14848C7.53107 8.43426 6.26474 9.31544 5.58599 10.5573Z" fill="#D53309"/>
<path d="M7.18996 8.48171C7.52765 8.71646 8.51707 8.6212 8.90203 8.66883C9.32414 8.71986 9.93198 8.95802 10.3271 9.13153C11.1071 9.46836 11.7555 10.1216 12.2147 10.9177C12.6841 11.7274 12.8293 12.6801 12.5626 13.5408C12.2519 14.5513 11.7757 15.3406 11.2996 16.232C11.1173 16.5756 11.1375 17.0485 11.509 16.9669C13.3966 16.5552 14.538 13.8947 14.2375 11.8839C13.9133 9.72012 12.2553 8.06323 10.3879 7.7094C9.89821 7.61754 9.39843 7.61414 8.90203 7.7094C8.49343 7.79105 7.31828 7.76724 7.11904 8.23334C7.07852 8.32861 7.70324 8.6178 7.78091 8.67223L7.18996 8.48171Z" fill="#D82800"/>
<path d="M6.73747 8.56989C6.14989 8.7434 5.7548 9.3388 5.41374 9.87635C5.02877 10.4819 4.7181 11.1386 4.49861 11.8394C4.12377 13.0336 4.06974 14.3877 4.47497 15.5649C4.92409 16.8646 5.82571 17.7423 6.99749 18.1234C7.59519 18.3173 8.25031 18.3615 8.87165 18.3003C9.60781 18.2289 10.2258 17.9703 10.8843 17.6028C11.1004 17.4838 11.2794 17.2762 11.2625 16.9802C11.2591 16.9292 11.2523 16.8646 11.2388 16.8169C11.1477 16.5481 11.2287 16.4767 10.9788 16.4767C10.3845 16.4733 9.53014 16.4223 8.93581 16.4733C8.46643 16.5141 8.02406 16.5209 7.56818 16.4052C7.16971 16.3032 6.79488 16.1161 6.49433 15.8031C6.22756 15.5241 6.04521 15.1668 5.93377 14.7756C5.67376 13.8706 5.77844 12.9077 6.06547 11.9619C6.21405 11.4686 6.43355 10.9957 6.64967 10.533C6.88943 10.0124 7.55805 9.14827 7.54454 8.54607C7.53103 8.29771 6.93333 8.51205 6.73747 8.56989Z" fill="#CE2400"/>
<path opacity="0.1" d="M13.3392 11.595C11.9682 12.6769 10.3034 13.388 8.64869 12.9355C7.96319 12.7484 7.11221 12.3435 6.75427 11.6086C6.58542 11.265 6.48749 10.8397 6.44359 10.4484C6.41996 10.2409 6.41996 10.0436 6.45035 9.83605C6.45372 9.81223 6.4571 9.79182 6.46048 9.768C6.47399 9.71356 6.48412 9.65913 6.48749 9.60469C6.49087 9.59449 6.49087 9.58768 6.49425 9.57748C6.501 9.53325 6.51451 9.49242 6.53139 9.455C6.83193 9.54345 7.10546 9.10116 6.8522 8.78816C6.62932 8.51257 6.34566 8.59083 6.10591 8.77795C5.83913 8.59423 5.48794 8.59763 5.22454 8.95146C5.00167 9.24746 4.88686 9.6081 4.83958 9.99255C4.70451 10.4178 4.57619 10.8465 4.51202 11.299C4.49514 11.4147 4.48501 11.5304 4.47488 11.646C4.34994 11.7651 4.25876 11.9284 4.22499 12.1224C4.16083 12.4966 4.18785 12.7994 4.29591 13.0784C4.45462 14.1229 4.73152 15.1333 5.36637 15.9431C6.10591 16.8923 7.28443 17.3346 8.3549 17.5795C9.67526 17.8823 10.8639 17.4026 12.0391 16.7222C12.988 16.171 13.9504 15.4702 14.4029 14.3236C14.5616 13.9187 14.4535 13.4901 14.2171 13.2349C14.3455 13.0103 14.4366 12.762 14.4738 12.4864C14.5717 11.7855 13.9099 11.1425 13.3392 11.595Z" fill="#CE2400"/>
<path opacity="0.1" d="M13.812 12.8843C12.1573 14.1907 10.1481 15.0481 8.15233 14.5003C7.32499 14.2758 6.29843 13.7892 5.86619 12.9013C5.66357 12.4862 5.54538 11.9725 5.49473 11.5029C5.46772 11.2546 5.46772 11.013 5.50149 10.7647C5.50486 10.7374 5.50824 10.7102 5.51162 10.683C5.5285 10.615 5.54201 10.5503 5.54538 10.4857C5.54876 10.4755 5.54876 10.4653 5.55214 10.4517C5.56227 10.4006 5.57915 10.3496 5.59604 10.302C5.95736 10.4074 6.2883 9.87667 5.981 9.49562C5.71085 9.1622 5.36979 9.25746 5.07938 9.48201C4.75857 9.26087 4.33309 9.26427 4.01566 9.69295C3.74889 10.0536 3.60706 10.4857 3.55303 10.9518C3.38757 11.4655 3.23223 11.9827 3.15794 12.527C3.13768 12.6665 3.12417 12.806 3.11404 12.9455C2.96546 13.0918 2.85402 13.2857 2.8135 13.5205C2.73583 13.973 2.7696 14.337 2.9013 14.6738C3.0904 15.9361 3.42809 17.1541 4.19126 18.1305C5.08613 19.2771 6.50441 19.8078 7.79438 20.1038C9.38826 20.4678 10.8234 19.8895 12.2417 19.0695C13.3865 18.4061 14.5481 17.5589 15.0952 16.1742C15.2876 15.6843 15.156 15.1706 14.8689 14.861C15.0243 14.5888 15.1323 14.2894 15.1796 13.9594C15.3012 13.1122 14.5042 12.3365 13.812 12.8843Z" fill="#CE2400"/>
<path opacity="0.1" d="M13.5722 13.7144C12.0593 15.2284 10.148 16.3443 8.10501 16.0687C7.25742 15.9531 6.18695 15.6094 5.66691 14.7861C5.42378 14.4016 5.25493 13.9083 5.15363 13.449C5.0996 13.2041 5.07596 12.9659 5.08609 12.7141C5.08609 12.6869 5.08947 12.6597 5.08947 12.6291C5.0996 12.561 4.80581 11.2376 4.53904 11.4995C4.19797 11.3226 3.77587 11.3839 3.50234 11.85C3.27271 12.2412 3.17478 12.6903 3.17141 13.1598C3.05997 13.6906 2.95866 14.2247 2.9384 14.7725C2.93503 14.9154 2.93503 15.0549 2.9384 15.1944C2.80333 15.3577 2.71215 15.5686 2.69865 15.8068C2.66825 16.2661 2.73917 16.6199 2.90126 16.9397C3.21868 18.1645 3.68131 19.3281 4.53904 20.1957C5.54535 21.2129 7.01428 21.5531 8.32789 21.6722C9.94878 21.8219 11.3198 21.0598 12.6469 20.0562C13.7174 19.2464 14.7878 18.253 15.1897 16.807C15.3315 16.2967 15.1492 15.8034 14.8317 15.5346C14.9567 15.2454 15.0343 14.9324 15.0479 14.599C15.0782 13.7416 14.2036 13.0816 13.5722 13.7144Z" fill="#CE2400"/>
<path opacity="0.17" d="M11.1745 9.60123C11.0496 9.50597 9.30039 8.3356 8.58787 8.55674C8.33123 8.63499 8.11511 8.7983 7.98341 9.01945C7.66936 9.4073 7.59845 10.0265 8.07796 10.4042C8.33123 10.6049 8.55748 10.8056 8.76009 11.0302C8.85126 11.1731 8.93569 11.3228 9.01673 11.4657C9.30376 11.9522 9.5469 12.4693 9.76302 13.0035C9.78666 13.0647 9.81367 13.1294 9.83731 13.1906C9.84069 13.2893 9.84069 13.3913 9.84406 13.4968C9.85419 13.9629 9.90147 14.4256 10.2392 14.742C10.4924 14.9768 10.82 15.0788 11.1509 15.0142C11.8567 14.8713 12.2957 14.167 12.4409 13.4151C12.7076 12.0168 12.1876 10.3531 11.1745 9.60123Z" fill="#D82800"/>
<path opacity="0.08" d="M9.69551 9.37327C8.32113 9.99248 7.52756 11.7174 7.66939 13.3505C7.69978 13.7145 7.77408 14.082 7.89902 14.4222C8.0037 14.9121 8.19619 15.3748 8.5305 15.715C9.13158 16.3308 10.0096 16.3274 10.7322 15.9804C12.0762 15.334 13.0893 13.8404 12.9947 12.1393C12.8934 10.2783 11.3975 8.60776 9.69551 9.37327Z" fill="white"/>
<path opacity="0.08" d="M10.121 9.93806C9.19575 10.3531 8.66558 11.5133 8.76013 12.6122C8.78039 12.8572 8.83105 13.1055 8.91547 13.3335C8.98638 13.6635 9.1147 13.9731 9.34095 14.2045C9.74618 14.6161 10.3338 14.6161 10.82 14.3814C11.7216 13.9459 12.4038 12.9422 12.3396 11.7991C12.2721 10.5437 11.2658 9.42092 10.121 9.93806Z" fill="white"/>
<g opacity="0.17">
<path opacity="0.17" d="M10.0906 11.85C10.3405 12.0746 10.7254 12.0678 11.053 11.9759C11.4548 11.867 11.7824 11.7105 12.0357 11.3227C12.3531 10.8327 11.9715 10.2033 11.4819 10.2408C11.1442 10.268 10.9213 10.4687 10.6376 10.6558C10.4418 10.7851 10.1345 11.0165 10.0332 11.2478C9.95551 11.4486 9.93187 11.7071 10.0906 11.85Z" fill="white"/>
</g>
<path d="M7.2034 11.1017C7.31822 11.1833 7.43641 11.1867 7.55798 11.1969C7.62214 11.2003 7.75383 11.1493 7.79436 11.2344C8.03074 11.7039 7.34861 11.7957 7.35536 12.0577C7.35874 12.2006 7.4229 12.2856 7.49719 12.3333C7.70318 12.4592 7.97333 12.1223 8.11516 11.8944C8.27387 11.6358 8.32452 11.2412 8.21646 10.9077C8.10503 10.5641 7.89566 10.4518 7.67279 10.4654C7.50395 10.4756 7.17977 10.5641 7.15275 10.9111C7.14262 10.9826 7.15951 11.071 7.2034 11.1017Z" fill="#D41F00"/>
<path d="M8.17253 9.86323C7.90575 9.79179 7.65924 9.84963 7.44312 10.0231C7.33169 10.047 7.21687 10.1116 7.10206 10.2069C6.78126 10.4722 6.40305 10.7886 6.1768 11.265C5.99107 11.6562 5.91002 12.2482 6.10926 12.6837C6.35915 13.2281 6.82516 13.2212 7.19323 13.2178C7.61534 13.211 8.01381 13.0818 8.33462 12.6191C8.59126 12.2516 8.91881 11.6256 8.90193 11.0302C8.87829 10.3872 8.53385 9.9653 8.17253 9.86323ZM7.8112 11.9284C7.63898 12.1121 7.11219 12.2414 6.92984 12.0985C6.5415 11.7991 6.85217 11.3602 6.91633 11.282C7.01764 11.1493 7.1392 11.003 7.31142 10.9417C7.32493 10.9349 7.86861 10.656 8.01719 10.8635C8.34812 11.3262 7.96316 11.7651 7.8112 11.9284Z" fill="#CE2400"/>
<path d="M7.49383 9.90425C7.2642 9.73074 7.12912 9.60485 6.86573 9.6797C6.60909 9.75455 6.37946 9.89745 6.17009 10.1594C5.78851 10.6323 5.54537 11.4114 5.59265 12.2076C5.63992 12.9867 5.95397 13.6773 6.39972 13.9733C6.83871 14.2625 7.60864 14.2319 7.81125 13.4018C7.87204 13.1602 7.83151 12.8914 7.68293 12.7553C7.28784 12.3947 6.36595 13.2078 6.34569 12.0238C6.33894 11.5986 6.51791 11.2311 6.71715 10.993C6.8556 10.8263 7.00418 10.7208 7.15614 10.5949C7.29459 10.4826 7.37901 10.2989 7.50058 10.156C7.55461 10.0948 7.55799 9.95188 7.49383 9.90425Z" fill="#C11E00"/>
<path d="M6.53483 10.5877C7.30814 10.2135 7.95312 10.091 8.23678 11.0266C8.53732 12.0099 7.35879 12.7346 6.79823 13.0884C6.57198 13.2313 7.06838 13.5953 7.29125 13.7756C7.80454 14.1873 8.43601 13.5341 8.78721 12.9421C9.19243 12.2582 9.35452 11.2376 9.05398 10.3666C8.52719 8.83559 6.85226 8.58042 6.24442 10.0332C6.1161 10.336 6.35586 10.6626 6.53483 10.5877Z" fill="#D52300"/>
<g opacity="0.46">
<path opacity="0.46" d="M10.7762 10.9316C11.3671 10.8942 11.33 9.84973 10.739 9.88715C10.1514 9.92798 10.1852 10.9691 10.7762 10.9316Z" fill="white"/>
</g>
<path d="M7.22368 11.636C7.11562 11.2209 6.70702 11.095 6.32206 11.044C6.01476 11.0031 5.41706 11.0236 5.2651 11.3706C5.23471 11.442 5.24146 11.4999 5.28874 11.5611C5.46771 11.8027 5.93709 11.8231 6.20724 11.8571C6.54493 11.9013 6.86573 11.9762 7.1629 11.7789C7.2068 11.7482 7.23719 11.6938 7.22368 11.636Z" fill="#5C4632"/>
<path d="M16.9051 10.3499C16.1589 10.1152 15.3484 10.0539 14.5515 10.1322C13.1703 10.2717 11.7352 10.9249 11.1645 12.0715C10.7457 12.9118 10.8538 13.8747 11.0969 14.7524C11.4346 15.9568 12.0458 17.1272 13.0791 17.9403C14.1125 18.7535 15.6219 19.1515 16.9592 18.7365C18.0533 18.3996 18.911 17.5627 19.3905 16.6203C19.9038 15.6166 20.3428 14.0754 19.8768 13.0241C19.3567 11.8503 18.2491 10.7752 16.9051 10.3499Z" fill="#FF3E0A"/>
<path d="M19.2453 11.5238C19.0832 11.9015 19.3703 12.8609 19.4007 13.2488C19.4344 13.6774 19.323 14.3239 19.2352 14.7491C19.063 15.5861 18.5531 16.355 17.8709 16.9674C17.1753 17.59 16.2771 17.92 15.3889 17.8282C14.3421 17.7193 13.4844 17.4063 12.522 17.1137C12.1505 17.0014 11.6946 17.1137 11.8466 17.4675C12.6199 19.2503 15.4362 19.8525 17.3306 19.1584C19.3703 18.4099 20.6569 16.4469 20.6332 14.5314C20.6265 14.0279 20.5319 13.5345 20.3394 13.065C20.1807 12.6772 19.9713 11.5136 19.4783 11.4081C19.377 11.3877 19.2183 12.0614 19.1812 12.1464L19.2453 11.5238Z" fill="#FF3000"/>
<path d="M19.0663 11.0951C18.7827 10.5507 18.1242 10.2786 17.5366 10.0472C16.8714 9.78524 16.1724 9.60833 15.4463 9.53008C14.2104 9.39739 12.8833 9.60833 11.8162 10.2445C10.6411 10.942 9.96231 12.0069 9.82724 13.2419C9.75632 13.8679 9.84412 14.5246 10.0265 15.1268C10.2392 15.8378 10.6174 16.3992 11.1003 16.9776C11.259 17.1681 11.4954 17.3008 11.7791 17.2259C11.8297 17.2123 11.8905 17.1953 11.931 17.1681C12.1742 17.0252 12.2586 17.0933 12.2113 16.8415C12.0965 16.2529 11.9783 15.3989 11.8128 14.8206C11.6811 14.3647 11.5866 13.9326 11.6102 13.4563C11.6305 13.0446 11.7385 12.6363 11.9851 12.2757C12.2012 11.9559 12.5152 11.7075 12.8732 11.5204C13.7005 11.0849 14.6595 10.9998 15.6355 11.0951C16.1454 11.1461 16.6485 11.2686 17.1415 11.3877C17.6953 11.5238 18.6679 12.0103 19.2521 11.8776C19.4885 11.8266 19.1609 11.2754 19.0663 11.0951Z" fill="#F92C00"/>
<path opacity="0.1" d="M17.4286 18.2089C16.1048 17.0692 15.085 15.5654 15.1998 13.8404C15.2471 13.126 15.47 12.2074 16.115 11.7072C16.4155 11.4725 16.8106 11.2922 17.1821 11.1731C17.3779 11.1084 17.5738 11.071 17.7798 11.0574C17.8034 11.0574 17.827 11.054 17.8473 11.054C17.9047 11.0574 17.9587 11.0574 18.0128 11.0506C18.0229 11.0506 18.0297 11.0506 18.0398 11.0506C18.0837 11.0506 18.1242 11.054 18.1681 11.0642C18.1411 11.3772 18.624 11.5609 18.8806 11.2479C19.1069 10.9724 18.9718 10.7104 18.7456 10.5062C18.8705 10.2069 18.7996 9.85982 18.4011 9.6727C18.0668 9.5128 17.6953 9.46857 17.3104 9.49919C16.868 9.44815 16.4256 9.40733 15.9765 9.43454C15.8617 9.44135 15.7469 9.45155 15.6321 9.46857C15.4903 9.3699 15.3147 9.31206 15.1188 9.31547C14.7406 9.32567 14.4536 9.41413 14.2037 9.57404C13.2176 9.93467 12.289 10.411 11.6271 11.1969C10.8504 12.1155 10.6512 13.3641 10.6242 14.4699C10.5904 15.8342 11.2928 16.9127 12.1843 17.9401C12.9069 18.7703 13.7782 19.58 14.9837 19.8012C15.4092 19.8794 15.8043 19.6855 16.0069 19.3997C16.25 19.4814 16.5101 19.5222 16.7836 19.5052C17.4894 19.4678 17.9824 18.6886 17.4286 18.2089Z" fill="#F92C00"/>
<path opacity="0.1" d="M16.267 18.9341C14.6697 17.5562 13.4405 15.7428 13.5756 13.664C13.633 12.8032 13.9032 11.6941 14.6798 11.0919C15.0445 10.8095 15.5207 10.5918 15.9698 10.4455C16.2062 10.3672 16.4426 10.3196 16.6891 10.306C16.7161 10.306 16.7431 10.3026 16.7735 10.2992C16.841 10.3026 16.9086 10.3026 16.9727 10.2924C16.9829 10.2924 16.9964 10.2924 17.0065 10.2924C17.0572 10.2924 17.1112 10.2992 17.1585 10.3094C17.1281 10.687 17.7089 10.9082 18.0196 10.5305C18.2931 10.1971 18.131 9.88071 17.8541 9.63575C18.0061 9.27511 17.9183 8.85663 17.4387 8.62868C17.0369 8.43476 16.5878 8.38032 16.1251 8.42115C15.5916 8.35991 15.0581 8.30887 14.5144 8.34289C14.3726 8.3497 14.2341 8.36671 14.0956 8.38372C13.9268 8.26464 13.7141 8.1932 13.4743 8.2C13.0184 8.21361 12.6706 8.31908 12.3701 8.51301C11.1814 8.9519 10.0603 9.52347 9.25997 10.4693C8.3212 11.5784 8.08482 13.0856 8.05105 14.4193C8.01053 16.0626 8.85475 17.369 9.93534 18.6075C10.8066 19.6077 11.8602 20.5876 13.3156 20.8529C13.8289 20.9482 14.305 20.7134 14.5515 20.3698C14.8453 20.4685 15.1594 20.5161 15.4903 20.4991C16.3413 20.4515 16.9356 19.509 16.267 18.9341Z" fill="#F92C00"/>
<path opacity="0.1" d="M15.4126 18.8591C13.6397 17.6649 12.1775 15.9978 12.0425 13.9258C11.9851 13.0685 12.11 11.9423 12.809 11.2653C13.1366 10.9489 13.5789 10.6835 14.0078 10.493C14.2341 10.3909 14.4603 10.3195 14.7068 10.282C14.7338 10.2786 14.7609 10.2718 14.7879 10.2684C14.8554 10.265 16.0846 9.71385 15.7807 9.50292C15.8854 9.13207 15.7435 8.7272 15.2336 8.55029C14.8081 8.40059 14.3523 8.39379 13.8964 8.48224C13.3561 8.47884 12.8192 8.48224 12.2822 8.5707C12.1438 8.59452 12.0053 8.62174 11.8703 8.65236C11.6845 8.55369 11.4617 8.50266 11.2287 8.53328C10.7761 8.59452 10.4452 8.73401 10.1683 8.95856C9.04044 9.51652 7.99699 10.2004 7.32499 11.221C6.5348 12.4152 6.49428 13.9326 6.63611 15.2561C6.81171 16.8892 7.82477 18.0902 9.0607 19.2027C10.0603 20.1009 11.2388 20.9617 12.7246 21.0705C13.2514 21.1114 13.6938 20.8324 13.893 20.4649C14.2003 20.533 14.5177 20.5466 14.8453 20.4956C15.6827 20.3527 16.1555 19.3592 15.4126 18.8591Z" fill="#F92C00"/>
<path opacity="0.17" d="M18.9414 15.6812C19.009 15.5383 19.8025 13.5786 19.4446 12.9185C19.3163 12.6804 19.117 12.5001 18.8739 12.4116C18.4349 12.1768 17.8169 12.2313 17.5468 12.779C17.4016 13.0682 17.2496 13.3302 17.0707 13.5752C16.9491 13.6942 16.8208 13.8065 16.6992 13.9154C16.2805 14.293 15.828 14.6367 15.3518 14.9565C15.2978 14.9939 15.2404 15.0313 15.1864 15.0654C15.0884 15.0892 14.9905 15.1096 14.8892 15.1334C14.4367 15.2355 13.9943 15.375 13.7579 15.7696C13.579 16.0656 13.5452 16.4092 13.6735 16.7222C13.9504 17.3891 14.7237 17.6851 15.4835 17.6817C16.8917 17.6715 18.4079 16.8277 18.9414 15.6812Z" fill="#FF3000"/>
<path opacity="0.08" d="M18.8706 14.1743C17.9959 12.9392 16.1623 12.4969 14.5988 12.9597C14.251 13.0617 13.9066 13.208 13.6026 13.3985C13.1468 13.5993 12.7348 13.8817 12.468 14.2797C11.9885 14.9942 12.1641 15.8618 12.647 16.5082C13.5418 17.7058 15.1965 18.4134 16.8309 17.9848C18.6207 17.5119 19.9511 15.7053 18.8706 14.1743Z" fill="white"/>
<path opacity="0.08" d="M18.4044 14.7084C17.8169 13.8782 16.5843 13.5822 15.5341 13.8918C15.2977 13.9599 15.0681 14.0586 14.8655 14.1878C14.5582 14.3239 14.2813 14.511 14.1023 14.7798C13.7815 15.2595 13.8997 15.8413 14.2205 16.2768C14.8216 17.0831 15.9326 17.5561 17.0334 17.2703C18.239 16.9505 19.1338 15.7359 18.4044 14.7084Z" fill="white"/>
<g opacity="0.17">
<path opacity="0.17" d="M16.5404 15.0556C16.3716 15.3482 16.456 15.7224 16.608 16.032C16.7937 16.4063 17.0098 16.7022 17.4387 16.8758C17.979 17.0935 18.5159 16.5934 18.3808 16.1171C18.2863 15.7904 18.0499 15.6101 17.8102 15.3652C17.6447 15.1985 17.3577 14.9399 17.1145 14.8855C16.9018 14.8412 16.6451 14.8684 16.5404 15.0556Z" fill="white"/>
</g>
<path d="M16.6958 12.0543C16.6384 12.1836 16.6587 12.3027 16.6756 12.4252C16.6857 12.4898 16.76 12.6089 16.6857 12.6633C16.2737 12.9865 16.0508 12.3333 15.7976 12.3911C15.6591 12.4217 15.5882 12.5034 15.5578 12.5851C15.4768 12.813 15.8584 13.0137 16.1049 13.109C16.3885 13.2145 16.7802 13.1873 17.0842 13.0137C17.3948 12.8368 17.4657 12.6055 17.4083 12.3877C17.3644 12.221 17.2159 11.9216 16.8714 11.959C16.8005 11.9693 16.7161 12.0033 16.6958 12.0543Z" fill="#FF2600"/>
<path d="M18.0904 12.7691C18.1073 12.4901 18.0026 12.2587 17.7899 12.0784C17.746 11.9729 17.6582 11.8709 17.5434 11.779C17.2192 11.5136 16.8376 11.204 16.3311 11.0747C15.9124 10.9693 15.3214 11.0067 14.9398 11.2891C14.4603 11.6429 14.5582 12.1022 14.6359 12.4629C14.7237 12.8779 14.9297 13.2454 15.443 13.4733C15.8516 13.6536 16.5236 13.8544 17.101 13.7183C17.7224 13.5686 18.0668 13.1433 18.0904 12.7691ZM16.0137 12.8167C15.8009 12.684 15.5713 12.1873 15.6726 11.9797C15.8854 11.5374 16.375 11.7586 16.4662 11.8028C16.6148 11.8777 16.7836 11.9695 16.8748 12.126C16.8815 12.1396 17.2631 12.6194 17.0909 12.8065C16.7026 13.2318 16.2028 12.9358 16.0137 12.8167Z" fill="#F92C00"/>
<path d="M17.9182 12.1055C18.0397 11.8436 18.1377 11.6871 18.0093 11.4421C17.8844 11.2039 17.6987 11.0032 17.4049 10.8501C16.868 10.5677 16.0643 10.4827 15.2977 10.6868C14.5481 10.8875 13.9368 11.3332 13.741 11.8334C13.5451 12.3233 13.7275 13.0786 14.5751 13.116C14.8216 13.1262 15.0748 13.0378 15.1795 12.8608C15.4531 12.3981 14.4771 11.6496 15.6287 11.3945C16.0406 11.3026 16.4357 11.4081 16.7059 11.5578C16.895 11.6598 17.0301 11.7891 17.1786 11.9116C17.3171 12.0273 17.5129 12.0715 17.675 12.1668C17.7426 12.2008 17.8844 12.177 17.9182 12.1055Z" fill="#EC2600"/>
<path d="M17.0639 11.2926C17.5805 11.9833 17.827 12.5957 16.9727 13.0584C16.0778 13.5483 15.1357 12.5276 14.6832 12.0445C14.4974 11.8472 14.2442 12.412 14.1125 12.6671C13.8153 13.2557 14.5751 13.749 15.2201 13.9804C15.963 14.2458 16.9896 14.2049 17.7798 13.7354C19.1643 12.9121 19.0832 11.2076 17.5468 10.8946C17.226 10.8299 16.9558 11.1293 17.0639 11.2926Z" fill="#FF2B00"/>
<path d="M17.908 14.3579C18.0634 14.9328 19.0697 14.6913 18.9143 14.1163C18.7624 13.5379 17.7527 13.7795 17.908 14.3579Z" fill="white"/>
<path d="M16.1791 12.1804C16.5607 11.9898 16.6046 11.5646 16.5776 11.1733C16.5573 10.8603 16.4189 10.2751 16.0508 10.1935C15.9731 10.1764 15.9225 10.1969 15.8684 10.2547C15.6692 10.4792 15.7435 10.9453 15.7604 11.2175C15.7806 11.5577 15.7739 11.8912 16.0272 12.1463C16.0677 12.1872 16.1251 12.2076 16.1791 12.1804Z" fill="#87674A"/>
</svg>
