<svg width="26" height="26" viewBox="0 0 26 26" fill="none" xmlns="http://www.w3.org/2000/svg">
<path d="M12.9999 22.75C12.8574 22.7508 12.716 22.7235 12.584 22.6696C12.4521 22.6157 12.332 22.5363 12.2308 22.4359L3.81328 14.0075C2.75742 12.9406 2.16516 11.5002 2.16516 9.99918C2.16516 8.49815 2.75742 7.05774 3.81328 5.99085C4.87739 4.92974 6.31884 4.33386 7.82161 4.33386C9.32438 4.33386 10.7658 4.92974 11.8299 5.99085L12.9999 7.16085L14.1699 5.99085C15.2341 4.92974 16.6755 4.33386 18.1783 4.33386C19.681 4.33386 21.1225 4.92974 22.1866 5.99085C23.2425 7.05774 23.8347 8.49815 23.8347 9.99918C23.8347 11.5002 23.2425 12.9406 22.1866 14.0075L13.7691 22.4359C13.6679 22.5363 13.5478 22.6157 13.4158 22.6696C13.2839 22.7235 13.1425 22.7508 12.9999 22.75ZM7.82161 6.50002C7.36301 6.49794 6.90855 6.58688 6.48457 6.76168C6.06058 6.93648 5.6755 7.19367 5.35161 7.51835C4.69734 8.17607 4.33007 9.06605 4.33007 9.99377C4.33007 10.9215 4.69734 11.8115 5.35161 12.4692L12.9999 20.1284L20.6483 12.4692C21.3025 11.8115 21.6698 10.9215 21.6698 9.99377C21.6698 9.06605 21.3025 8.17607 20.6483 7.51835C19.9806 6.88754 19.0968 6.53609 18.1783 6.53609C17.2597 6.53609 16.376 6.88754 15.7083 7.51835L13.7691 9.46835C13.6684 9.56989 13.5486 9.65049 13.4166 9.70548C13.2846 9.76048 13.143 9.7888 12.9999 9.7888C12.8569 9.7888 12.7153 9.76048 12.5833 9.70548C12.4513 9.65049 12.3315 9.56989 12.2308 9.46835L10.2916 7.51835C9.96772 7.19367 9.58264 6.93648 9.15865 6.76168C8.73467 6.58688 8.28021 6.49794 7.82161 6.50002Z" fill="#414141" fill-opacity="0.51"/>
</svg>
