<svg width="135" height="136" viewBox="0 0 135 136" fill="none" xmlns="http://www.w3.org/2000/svg">
<g clip-path="url(#clip0_1:10307)">
<path d="M104.508 11.514C102.299 18.9848 99.027 26.8054 94.2176 33.0031C91.5892 36.3888 88.5274 39.2428 85.116 41.817C81.0615 44.8809 76.0424 47.693 73.6376 52.3378C71.8341 55.8214 74.0011 62.103 78.9364 60.62C84.6267 58.9132 89.4781 54.912 93.7702 50.8828C97.8387 47.0634 101.264 42.8943 103.753 37.8858C107.975 29.4076 109.149 20.3559 105.906 11.444C105.668 10.8425 104.689 10.9124 104.508 11.514Z" fill="#94C659"/>
<path d="M104.633 5.95982C103.459 14.8297 105.081 23.8535 102.257 32.5554C101.53 34.7939 100.621 36.9624 99.4045 38.991C98.4957 40.5159 97.2095 41.901 96.5384 43.5658C95.7135 45.5804 95.3361 48.8542 98.3839 48.8402C102.215 48.8122 104.563 44.5591 106.073 41.6631C107.961 38.0397 109.191 34.2063 109.918 30.1771C110.701 25.7981 110.771 21.3352 110.449 16.9143C110.17 13.0669 109.834 8.14231 106.94 5.23232C106.129 4.42088 104.787 4.79862 104.633 5.95982Z" fill="#A3D35F"/>
<path d="M102.187 0.797413C101.795 4.56081 100.97 8.50608 100.257 12.2415C99.5164 16.1028 98.342 19.9082 96.7202 23.4897C94.9586 27.393 92.9034 31.2124 90.0653 34.4442C87.8003 37.0044 84.7525 39.8584 84.8364 43.5519C84.8504 44.2514 83.5781 46.6717 84.3051 46.7696C88.6112 47.4272 93.9939 41.873 96.6223 38.9351C99.9917 35.1577 102.382 30.8906 104.2 26.1759C105.85 21.8948 106.926 17.4319 106.982 12.8431C107.024 8.11436 105.934 4.68672 103.892 0.503616C103.501 -0.307823 102.285 -0.0839782 102.187 0.797413Z" fill="#80AF4E"/>
<path d="M127.38 45.3846C124.514 42.5166 118.936 41.9989 115.091 41.4393C109.471 40.6279 103.976 41.2994 98.4119 42.0829C91.715 43.0342 85.2139 44.9649 79.5935 48.8542C74.3507 52.4917 69.0099 59.193 70.6177 65.9644C72.1696 72.5258 80.1528 74.2746 84.2911 68.9583C86.7937 65.7545 87.297 61.7813 90.261 58.8153C93.6024 55.4436 98.4258 53.2052 102.718 51.3305C106.479 49.6936 110.072 47.749 113.903 46.294C116.14 45.4406 118.656 44.769 121.061 44.9089C123.116 45.0208 125.032 45.8323 127.087 45.9442C127.366 45.9582 127.604 45.5944 127.38 45.3846Z" fill="#C0D06E"/>
<path d="M89.3243 60.4381C97.0138 58.6474 104.242 54.9959 111.68 52.1978C115.287 50.8408 118.698 50.0433 122.571 50.5889C126.01 51.0786 129.296 53.0512 132.791 52.3797C134.86 51.988 135.671 49.5676 134.385 47.9587C131.98 44.9508 127.394 44.2373 123.759 43.7337C119.383 43.1181 115.273 43.7617 111.135 45.2027C106.409 46.8535 101.823 48.9241 97.4892 51.4423C93.6863 53.6388 90.275 55.4995 88.6392 59.6267C88.4714 60.0464 88.8769 60.55 89.3243 60.4381Z" fill="#AEBA56"/>
<g opacity="0.56">
<path opacity="0.56" d="M78.9644 53.5549C83.1167 53.0653 86.8077 50.6309 90.5406 48.9241C94.8887 46.9375 99.4465 45.3985 104.144 44.4892C108.059 43.7337 112.029 43.4399 116 43.7617C120.11 44.0835 123.801 45.6364 127.814 46.252C130.946 46.7276 132.302 42.2927 129.841 40.6278C122.879 35.8711 111.47 36.3188 103.571 37.7318C98.5237 38.6412 93.6164 40.3061 88.9608 42.4606C84.7106 44.4192 79.7613 46.7696 77.2447 50.8968C76.4618 52.1699 77.4684 53.7368 78.9644 53.5549Z" fill="#94C654"/>
</g>
<path d="M80.2646 107.488C80.7819 108.467 81.453 109.39 82.3757 110.006C83.9276 111.027 85.9549 110.999 87.7864 110.635C89.4361 110.3 91.0998 109.698 92.2742 108.481C93.7003 106.998 94.1756 104.843 94.4692 102.801C94.9446 99.5831 93.8121 97.7644 91.2956 95.8477C89.5619 94.5186 87.4928 93.2315 85.2139 93.7072C79.0622 94.9523 77.7201 102.717 80.2646 107.488Z" fill="#333446"/>
<path opacity="0.28" d="M83.4942 104.27C83.8297 104.899 84.2492 105.487 84.8503 105.879C85.843 106.536 87.1432 106.522 88.3176 106.284C89.3802 106.075 90.4427 105.683 91.1977 104.899C92.1065 103.948 92.414 102.563 92.6098 101.262C92.9174 99.1914 92.1903 98.0302 90.5825 96.799C89.4641 95.9456 88.1359 95.1202 86.6818 95.428C82.7252 96.2394 81.8724 101.206 83.4942 104.27Z" fill="#505370"/>
<path opacity="0.28" d="M86.0108 102.115C86.1786 102.437 86.4023 102.745 86.7099 102.955C87.2271 103.291 87.8982 103.291 88.5134 103.165C89.0587 103.053 89.6179 102.857 90.0093 102.451C90.4847 101.961 90.6385 101.248 90.7364 100.562C90.8902 99.4852 90.5127 98.8836 89.6878 98.254C89.1146 97.8203 88.4155 97.3866 87.6606 97.5405C85.6054 97.9462 85.1719 100.534 86.0108 102.115Z" fill="#505370"/>
<path d="M83.0748 97.0789C83.62 98.1142 84.333 99.1075 85.3117 99.751C86.9615 100.842 89.1145 100.814 91.0579 100.423C92.8195 100.073 94.5811 99.4153 95.8254 98.1282C97.3493 96.5473 97.8386 94.2668 98.1602 92.0983C98.6635 88.6707 97.4612 86.74 94.7908 84.7114C92.9453 83.2984 90.7503 81.9274 88.3176 82.431C81.8025 83.7601 80.3764 92.0004 83.0748 97.0789Z" fill="#333446"/>
<path opacity="0.28" d="M86.5141 93.6652C86.8636 94.3368 87.325 94.9663 87.9541 95.3721C89.0166 96.0716 90.4008 96.0436 91.6451 95.8058C92.7775 95.5819 93.91 95.1622 94.7069 94.3368C95.6856 93.3295 95.9931 91.8605 96.2028 90.4754C96.5244 88.279 95.7555 87.0338 94.0358 85.7327C92.8474 84.8374 91.4354 83.956 89.8835 84.2638C85.7032 85.1172 84.7804 90.4055 86.5141 93.6652Z" fill="#505370"/>
<path opacity="0.28" d="M89.1844 91.3708C89.3662 91.7206 89.6039 92.0424 89.9254 92.2662C90.4707 92.63 91.1977 92.616 91.8408 92.4901C92.428 92.3782 93.0152 92.1543 93.4207 91.7206C93.924 91.189 94.0918 90.4335 94.2036 89.72C94.3714 88.5868 93.9659 87.9432 93.0851 87.2577C92.47 86.796 91.743 86.3343 90.9321 86.5022C88.765 86.9359 88.2897 89.678 89.1844 91.3708Z" fill="#505370"/>
<path d="M53.0857 113.014C53.6029 113.993 54.274 114.917 55.1968 115.532C56.7487 116.553 58.7759 116.525 60.6074 116.162C62.2572 115.826 63.9209 115.224 65.0953 114.007C66.5213 112.524 66.9967 110.37 67.2903 108.327C67.7657 105.109 66.6332 103.291 64.1166 101.374C62.383 100.045 60.3138 98.7577 58.0349 99.2334C51.8833 100.493 50.5411 108.243 53.0857 113.014Z" fill="#333446"/>
<path opacity="0.28" d="M56.3152 109.796C56.6508 110.426 57.0702 111.013 57.6714 111.405C58.664 112.063 59.9643 112.049 61.1387 111.811C62.2012 111.601 63.2638 111.209 64.0187 110.426C64.9275 109.474 65.2351 108.089 65.4308 106.788C65.7384 104.718 65.0114 103.556 63.4036 102.325C62.2851 101.472 60.9569 100.646 59.5029 100.954C55.5463 101.766 54.6934 106.732 56.3152 109.796Z" fill="#505370"/>
<path opacity="0.28" d="M58.8318 107.656C58.9996 107.977 59.2233 108.285 59.5309 108.495C60.0481 108.831 60.7192 108.831 61.3344 108.705C61.8796 108.593 62.4389 108.397 62.8303 107.991C63.3057 107.502 63.4595 106.788 63.5574 106.103C63.7111 105.025 63.3337 104.424 62.5088 103.794C61.9356 103.361 61.2365 102.927 60.4815 103.081C58.4403 103.486 57.9929 106.061 58.8318 107.656Z" fill="#505370"/>
<path d="M60.4256 92.0983C60.9429 93.0776 61.614 94.001 62.5368 94.6165C64.0886 95.6378 66.1159 95.6098 67.9474 95.2461C69.5971 94.9103 71.2609 94.3087 72.4353 93.0916C73.8613 91.6086 74.3367 89.4541 74.6303 87.4115C75.1056 84.1937 73.9732 82.375 71.4566 80.4583C69.723 79.1292 67.6538 77.8421 65.3749 78.3178C59.2233 79.5629 57.8951 87.3276 60.4256 92.0983Z" fill="#333446"/>
<path opacity="0.28" d="M63.6692 88.8805C64.0048 89.5101 64.4242 90.0977 65.0254 90.4894C66.018 91.1469 67.3182 91.1329 68.4926 90.8951C69.5552 90.6853 70.6177 90.2935 71.3727 89.5101C72.2815 88.5587 72.5891 87.1737 72.7848 85.8726C73.0924 83.802 72.3654 82.6408 70.7575 81.4097C69.6391 80.5563 68.3109 79.7308 66.8569 80.0386C62.9003 80.8501 62.0334 85.8166 63.6692 88.8805Z" fill="#505370"/>
<path opacity="0.28" d="M66.1858 86.726C66.3535 87.0478 66.5772 87.3556 66.8848 87.5654C67.4021 87.9012 68.0732 87.9012 68.6884 87.7753C69.2336 87.6634 69.7929 87.4675 70.1843 87.0618C70.6597 86.5721 70.8135 85.8586 70.9113 85.1731C71.0651 84.0958 70.6876 83.4942 69.8628 82.8647C69.2895 82.431 68.5905 81.9973 67.8355 82.1512C65.7803 82.5569 65.3329 85.1451 66.1858 86.726Z" fill="#505370"/>
<path d="M84.3051 76.7509C84.9202 77.9121 85.7172 79.0174 86.8077 79.7449C88.6532 80.962 91.0719 80.934 93.2389 80.4864C95.2102 80.0946 97.1815 79.3671 98.5796 77.9121C100.271 76.1494 100.831 73.5891 101.194 71.1688C101.767 67.3354 100.411 65.1669 97.4192 62.9005C95.35 61.3336 92.8894 59.7947 90.1771 60.3543C82.879 61.8512 81.2852 71.0709 84.3051 76.7509Z" fill="#333446"/>
<path opacity="0.28" d="M88.1499 72.9176C88.5413 73.6591 89.0586 74.3726 89.7577 74.8343C90.9461 75.6177 92.484 75.5898 93.8821 75.31C95.1404 75.0581 96.4126 74.5964 97.3074 73.6591C98.3979 72.5259 98.7474 70.889 98.9851 69.3361C99.3486 66.8878 98.4818 65.4887 96.5664 64.0337C95.2382 63.0264 93.6584 62.0471 91.9247 62.3969C87.2411 63.3762 86.2205 69.2801 88.1499 72.9176Z" fill="#505370"/>
<path opacity="0.28" d="M91.1418 70.3714C91.3515 70.7631 91.6171 71.1268 91.9806 71.3647C92.5958 71.7704 93.3927 71.7564 94.1197 71.6165C94.7768 71.4906 95.4339 71.2388 95.8953 70.7631C96.4545 70.1755 96.6503 69.3221 96.7621 68.5246C96.9439 67.2515 96.4965 66.524 95.5038 65.7825C94.8188 65.2649 93.9939 64.7473 93.0991 64.9291C90.6664 65.4048 90.1351 68.4827 91.1418 70.3714Z" fill="#505370"/>
<path d="M48.2203 87.4256C48.7376 88.4049 49.4087 89.3283 50.3314 89.9438C51.8833 90.9651 53.9105 90.9371 55.742 90.5734C57.3918 90.2376 59.0555 89.636 60.2299 88.4189C61.656 86.9359 62.1313 84.7814 62.4249 82.7388C62.9003 79.521 61.7678 77.7023 59.2512 75.7856C57.5176 74.4565 55.4484 73.1694 53.1695 73.6451C47.0319 74.8902 45.6897 82.6549 48.2203 87.4256Z" fill="#333446"/>
<path opacity="0.28" d="M51.4639 84.2078C51.7994 84.8373 52.2188 85.4249 52.82 85.8167C53.8126 86.4742 55.1129 86.4602 56.2873 86.2224C57.3498 86.0125 58.4124 85.6208 59.1674 84.8373C60.0761 83.886 60.3837 82.501 60.5794 81.1999C60.887 79.1293 60.16 77.9681 58.5522 76.7369C57.4337 75.8835 56.1055 75.0581 54.6515 75.3659C50.6949 76.1773 49.8421 81.1439 51.4639 84.2078Z" fill="#505370"/>
<path opacity="0.28" d="M53.9804 82.0533C54.1482 82.3751 54.3719 82.6829 54.6795 82.8927C55.1968 83.2285 55.8678 83.2285 56.483 83.1026C57.0283 82.9906 57.5875 82.7948 57.979 82.3891C58.4543 81.8994 58.6081 81.1859 58.706 80.5004C58.8598 79.4231 58.4823 78.8215 57.6574 78.192C57.0842 77.7583 56.3851 77.3246 55.6302 77.4784C53.575 77.8842 53.1416 80.4724 53.9804 82.0533Z" fill="#505370"/>
<path d="M76.6156 94.2109C77.1608 95.2462 77.8739 96.2395 78.8525 96.883C80.5023 97.9743 82.6554 97.9463 84.5987 97.5546C86.3603 97.2048 88.1219 96.5473 89.3662 95.2601C90.8901 93.6792 91.3795 91.3988 91.701 89.2303C92.2043 85.8027 91.002 83.872 88.3316 81.8434C86.4861 80.4304 84.2911 79.0594 81.8584 79.563C75.3433 80.8781 73.9173 89.1324 76.6156 94.2109Z" fill="#333446"/>
<path opacity="0.28" d="M80.0689 90.7832C80.4184 91.4548 80.8798 92.0843 81.5089 92.49C82.5714 93.1896 83.9556 93.1616 85.1999 92.9237C86.3323 92.6999 87.4648 92.2802 88.2617 91.4548C89.2404 90.4475 89.5479 88.9785 89.7577 87.5934C90.0792 85.397 89.3103 84.1518 87.5906 82.8507C86.4022 81.9553 84.9902 81.0739 83.4383 81.3817C79.244 82.2491 78.3352 87.5235 80.0689 90.7832Z" fill="#505370"/>
<path opacity="0.28" d="M82.7392 88.5028C82.921 88.8526 83.1587 89.1744 83.4802 89.3982C84.0255 89.762 84.7525 89.748 85.3956 89.6221C85.9828 89.5101 86.57 89.2863 86.9755 88.8526C87.4788 88.321 87.6466 87.5655 87.7584 86.852C87.9262 85.7188 87.5207 85.0752 86.6399 84.3897C86.0248 83.928 85.2978 83.4663 84.4869 83.6342C82.3198 84.0679 81.8445 86.81 82.7392 88.5028Z" fill="#505370"/>
<path d="M41.9149 106.187C41.6353 107.082 41.4675 108.033 41.6632 108.957C41.9708 110.51 43.2011 111.713 44.5154 112.594C45.7037 113.392 47.0599 114.035 48.4999 114.021C50.2475 113.993 51.8274 113 53.2395 111.965C55.4624 110.328 55.8819 108.551 55.5463 105.907C55.3086 104.06 54.8473 102.045 53.2115 100.954C48.7516 97.9882 43.271 101.808 41.9149 106.187Z" fill="#333446"/>
<path opacity="0.28" d="M45.7876 106.215C45.6059 106.788 45.508 107.404 45.6199 107.991C45.8156 108.985 46.5985 109.754 47.4374 110.328C48.1923 110.845 49.0731 111.251 49.9819 111.237C51.1004 111.223 52.107 110.579 53.0158 109.922C54.4418 108.873 54.7075 107.739 54.4838 106.033C54.33 104.857 54.0364 103.556 52.9878 102.857C50.1637 100.968 46.6544 103.416 45.7876 106.215Z" fill="#505370"/>
<path opacity="0.28" d="M48.5838 106.452C48.4859 106.746 48.444 107.068 48.4999 107.376C48.5978 107.893 49.0172 108.299 49.4506 108.593C49.8421 108.859 50.3034 109.069 50.7788 109.069C51.366 109.055 51.8833 108.733 52.3586 108.383C53.0996 107.837 53.2394 107.25 53.1276 106.368C53.0437 105.753 52.9039 105.081 52.3447 104.718C50.8487 103.724 49.0312 104.997 48.5838 106.452Z" fill="#505370"/>
<path d="M36.8538 102.675C37.2872 103.5 37.8604 104.284 38.6433 104.802C39.9575 105.669 41.6772 105.641 43.2291 105.333C44.6272 105.053 46.0392 104.536 47.0319 103.5C48.2482 102.241 48.6397 100.423 48.8914 98.6878C49.2968 95.9596 48.3321 94.4067 46.193 92.7838C44.7111 91.6646 42.9634 90.5594 41.0341 90.9651C35.8471 92.0284 34.7007 98.6178 36.8538 102.675Z" fill="#272839"/>
<path opacity="0.28" d="M39.608 99.9329C39.8877 100.465 40.2512 100.968 40.7545 101.304C41.5933 101.864 42.6978 101.85 43.6905 101.64C44.5853 101.458 45.494 101.122 46.1371 100.465C46.9201 99.6531 47.1717 98.4919 47.3395 97.3727C47.6051 95.6239 46.976 94.6306 45.6198 93.5953C44.6691 92.8818 43.5507 92.1683 42.3064 92.4341C38.9509 93.1196 38.2239 97.3307 39.608 99.9329Z" fill="#424563"/>
<path opacity="0.28" d="M41.7471 98.1142C41.8869 98.394 42.0827 98.6458 42.3483 98.8277C42.7817 99.1215 43.3549 99.1075 43.8722 99.0095C44.3336 98.9116 44.8089 98.7437 45.1445 98.394C45.5499 97.9743 45.6758 97.3727 45.7596 96.7991C45.8995 95.8897 45.5779 95.3721 44.8649 94.8404C44.3755 94.4627 43.7883 94.0989 43.1452 94.2388C41.3976 94.5746 41.0201 96.7571 41.7471 98.1142Z" fill="#424563"/>
<path d="M46.5006 102.269C46.934 103.095 47.5073 103.878 48.2902 104.396C49.6044 105.263 51.324 105.235 52.8759 104.927C54.274 104.648 55.6861 104.13 56.6788 103.095C57.8951 101.836 58.2866 100.017 58.5382 98.282C58.9437 95.5539 57.979 94.001 55.8399 92.3781C54.3579 91.2589 52.6103 90.1536 50.6809 90.5594C45.494 91.6366 44.3476 98.2261 46.5006 102.269Z" fill="#282A46"/>
<path opacity="0.28" d="M49.2549 99.5411C49.5345 100.073 49.898 100.576 50.4013 100.912C51.2402 101.472 52.3447 101.458 53.3373 101.248C54.2321 101.066 55.1409 100.73 55.784 100.073C56.5669 99.2613 56.8186 98.1001 56.9864 96.9809C57.252 95.2321 56.6228 94.2388 55.2667 93.2035C54.316 92.49 53.1975 91.7765 51.9532 92.0423C48.5978 92.7279 47.8708 96.9389 49.2549 99.5411Z" fill="#3F4370"/>
<path opacity="0.28" d="M51.394 97.7224C51.5338 98.0022 51.7295 98.2541 51.9951 98.4359C52.4286 98.7297 53.0018 98.7157 53.5191 98.6178C53.9804 98.5199 54.4558 98.352 54.7913 98.0022C55.1968 97.5825 55.3226 96.9809 55.4065 96.4073C55.5463 95.498 55.2247 94.9803 54.5117 94.4487C54.0224 94.071 53.4352 93.7072 52.7921 93.8471C51.0444 94.1829 50.667 96.3654 51.394 97.7224Z" fill="#3F4370"/>
<path d="M81.3272 18.0475C78.7827 25.1126 78.6708 32.8353 77.4125 40.1942C76.7834 43.8876 75.8467 47.4691 75.0078 51.1206C74.0851 55.1079 72.7988 59.1371 74.6443 63.0124C75.8047 65.4607 79.0623 66.1602 81.1175 64.3974C86.9615 59.4169 85.6753 47.9168 85.7871 40.9357C85.899 33.2969 86.1646 25.0706 83.0329 17.9635C82.7113 17.236 81.5928 17.306 81.3272 18.0475Z" fill="#C0D06E"/>
<path d="M81.1035 8.29625C82.1241 15.5153 83.7599 22.4265 84.1513 29.7854C84.3331 33.1571 84.4449 36.5707 84.2912 39.9564C84.1374 43.44 83.0888 46.9795 83.4663 50.4491C83.7599 53.0793 87.6326 53.8907 89.0167 51.6663C92.7077 45.7204 91.5612 35.9411 90.7643 29.2817C90.303 25.4344 89.8556 21.4612 88.9049 17.6978C87.8004 13.3188 85.7871 10.6186 82.5296 7.6387C81.9703 7.09308 80.9777 7.42885 81.1035 8.29625Z" fill="#CFDB77"/>
<path d="M80.0689 10.1849C77.2447 11.2062 76.8393 15.6412 76.4199 18.1594C75.7068 22.3845 75.2594 26.6515 74.5045 30.8766C73.7635 34.9898 73.0505 39.0889 72.1137 43.1601C71.205 47.1194 70.0306 51.2465 71.219 55.2618C71.5685 56.423 72.8687 57.1085 73.9033 56.2271C77.3706 53.3031 78.517 48.7283 79.5096 44.4752C80.6002 39.7885 81.6068 35.0597 82.222 30.289C82.4736 28.3584 84.9762 8.42214 80.0689 10.1849Z" fill="#94C654"/>
<path d="M51.6316 119.463C52.065 120.289 52.6382 121.072 53.4212 121.59C54.7354 122.457 56.455 122.429 58.0069 122.122C59.405 121.842 60.8171 121.324 61.8097 120.289C63.0261 119.03 63.4175 117.211 63.6692 115.476C64.0746 112.748 63.11 111.195 60.9709 109.572C59.4889 108.453 57.7413 107.348 55.8119 107.753C50.625 108.831 49.4785 115.42 51.6316 119.463Z" fill="#333446"/>
<path opacity="0.28" d="M54.3859 116.735C54.6655 117.267 55.029 117.771 55.5323 118.106C56.3712 118.666 57.4757 118.652 58.4683 118.442C59.3631 118.26 60.2718 117.924 60.915 117.267C61.6979 116.455 61.9496 115.294 62.1173 114.175C62.383 112.426 61.7538 111.433 60.3977 110.398C59.447 109.684 58.3285 108.971 57.0842 109.236C53.7288 109.922 53.0018 114.133 54.3859 116.735Z" fill="#505370"/>
<path opacity="0.28" d="M56.5249 114.917C56.6648 115.196 56.8605 115.448 57.1261 115.63C57.5595 115.924 58.1328 115.91 58.65 115.812C59.1114 115.714 59.5868 115.546 59.9223 115.196C60.3278 114.777 60.4536 114.175 60.5375 113.601C60.6773 112.692 60.3557 112.174 59.6427 111.643C59.1534 111.265 58.5662 110.901 57.923 111.041C56.1754 111.377 55.7979 113.559 56.5249 114.917Z" fill="#505370"/>
<path d="M56.4551 107.963C56.9724 108.943 57.6435 109.866 58.5662 110.482C60.1181 111.503 62.1453 111.475 63.9768 111.111C65.6266 110.775 67.2903 110.174 68.4647 108.957C69.8908 107.474 70.3661 105.319 70.6597 103.277C71.1351 100.059 70.0026 98.2401 67.486 96.3234C65.7524 94.9943 63.6832 93.7072 61.4043 94.1829C55.2667 95.428 53.9245 103.193 56.4551 107.963Z" fill="#333446"/>
<path opacity="0.28" d="M59.6987 104.746C60.0342 105.375 60.4536 105.963 61.0548 106.354C62.0475 107.012 63.3477 106.998 64.5221 106.76C65.5846 106.55 66.6472 106.159 67.4022 105.375C68.3109 104.424 68.6185 103.039 68.8142 101.738C69.1218 99.6671 68.3948 98.5059 66.787 97.2747C65.6685 96.4213 64.3403 95.5959 62.8863 95.9037C58.9297 96.7151 58.0769 101.682 59.6987 104.746Z" fill="#505370"/>
<path opacity="0.28" d="M62.2152 102.591C62.383 102.913 62.6067 103.221 62.9143 103.43C63.4316 103.766 64.1026 103.766 64.7178 103.64C65.2631 103.528 65.8223 103.333 66.2138 102.927C66.6891 102.437 66.8429 101.724 66.9408 101.038C67.0946 99.9609 66.7171 99.3593 65.8922 98.7297C65.319 98.296 64.6199 97.8623 63.865 98.0162C61.8098 98.4219 61.3764 101.01 62.2152 102.591Z" fill="#505370"/>
<path d="M64.7598 119.198C65.2771 120.177 65.9481 121.1 66.8709 121.716C68.4228 122.737 70.45 122.709 72.2815 122.345C73.9313 122.01 75.595 121.408 76.7694 120.191C78.1955 118.708 78.6708 116.553 78.9644 114.511C79.4398 111.293 78.3073 109.474 75.7907 107.558C74.0571 106.229 71.9879 104.941 69.709 105.417C63.5714 106.662 62.2292 114.413 64.7598 119.198Z" fill="#272839"/>
<path opacity="0.28" d="M68.0033 115.98C68.3389 116.609 68.7583 117.197 69.3595 117.589C70.3521 118.246 71.6524 118.232 72.8268 117.994C73.8893 117.785 74.9519 117.393 75.7068 116.609C76.6156 115.658 76.9232 114.273 77.1189 112.972C77.4265 110.901 76.6995 109.74 75.0917 108.509C73.9732 107.656 72.645 106.83 71.191 107.138C67.2344 107.935 66.3816 112.916 68.0033 115.98Z" fill="#424563"/>
<path opacity="0.28" d="M70.5199 113.825C70.6877 114.147 70.9114 114.455 71.2189 114.665C71.7362 115 72.4073 115 73.0225 114.875C73.5677 114.763 74.127 114.567 74.5185 114.161C74.9938 113.671 75.1476 112.958 75.2455 112.272C75.3993 111.195 75.0218 110.594 74.1969 109.964C73.6237 109.53 72.9246 109.097 72.1697 109.25C70.1145 109.656 69.681 112.23 70.5199 113.825Z" fill="#424563"/>
<path d="M68.94 108.089C69.4573 109.069 70.1284 109.992 71.0512 110.608C72.6031 111.629 74.6303 111.601 76.4618 111.237C78.1115 110.901 79.7753 110.3 80.9497 109.083C82.3757 107.6 82.8511 105.445 83.1447 103.403C83.62 100.185 82.4876 98.366 79.971 96.4493C78.2374 95.1202 76.1682 93.8331 73.8893 94.3088C67.7377 95.5539 66.4095 103.319 68.94 108.089Z" fill="#282A46"/>
<path opacity="0.28" d="M72.1836 104.871C72.5192 105.501 72.9386 106.089 73.5398 106.48C74.5324 107.138 75.8326 107.124 77.007 106.886C78.0696 106.676 79.1321 106.285 79.8871 105.501C80.7959 104.55 81.1035 103.165 81.2992 101.864C81.6068 99.793 80.8798 98.6318 79.272 97.4007C78.1535 96.5473 76.8253 95.7218 75.3713 96.0296C71.4147 96.841 70.5478 101.808 72.1836 104.871Z" fill="#3F4370"/>
<path opacity="0.28" d="M74.7002 102.717C74.8679 103.039 75.0916 103.347 75.3992 103.556C75.9165 103.892 76.5876 103.892 77.2028 103.766C77.748 103.654 78.3073 103.458 78.6987 103.053C79.1741 102.563 79.3279 101.85 79.4257 101.164C79.5795 100.087 79.202 99.4852 78.3772 98.8557C77.8039 98.422 77.1049 97.9883 76.3499 98.1421C74.2947 98.5619 73.8473 101.136 74.7002 102.717Z" fill="#3F4370"/>
<path d="M77.5383 116.679C78.0556 117.659 78.7267 118.582 79.6494 119.198C81.2013 120.219 83.2286 120.191 85.0601 119.827C86.7098 119.491 88.3735 118.89 89.5479 117.673C90.974 116.19 91.4494 114.035 91.743 111.993C92.2183 108.775 91.0858 106.956 88.5693 105.039C86.8356 103.71 84.7665 102.423 82.4876 102.899C76.336 104.144 75.0078 111.895 77.5383 116.679Z" fill="#333446"/>
<path opacity="0.28" d="M80.7819 113.448C81.1174 114.077 81.5369 114.665 82.138 115.056C83.1307 115.714 84.4309 115.7 85.6053 115.462C86.6679 115.252 87.7304 114.861 88.4854 114.077C89.3941 113.126 89.7017 111.755 89.8975 110.44C90.205 108.369 89.478 107.208 87.8702 105.977C86.7517 105.123 85.4236 104.298 83.9695 104.606C80.0129 105.417 79.1461 110.384 80.7819 113.448Z" fill="#505370"/>
<path opacity="0.28" d="M83.2984 111.307C83.4662 111.629 83.6899 111.937 83.9975 112.146C84.5148 112.482 85.1859 112.482 85.801 112.356C86.3463 112.244 86.9055 112.049 87.297 111.643C87.7723 111.153 87.9261 110.44 88.024 109.754C88.1778 108.677 87.8003 108.075 86.9754 107.446C86.4022 107.012 85.7032 106.578 84.9482 106.732C82.893 107.138 82.4456 109.712 83.2984 111.307Z" fill="#505370"/>
<path d="M94.6929 66.7059C95.1823 67.6153 95.8114 68.4966 96.6782 69.0703C98.1322 70.0356 100.034 70.0076 101.753 69.6578C103.305 69.3501 104.871 68.7765 105.962 67.6292C107.304 66.2302 107.737 64.2156 108.031 62.2989C108.478 59.277 107.402 57.5702 105.053 55.7794C103.417 54.5343 101.474 53.3311 99.3346 53.7648C93.5605 54.954 92.3022 62.229 94.6929 66.7059Z" fill="#333446"/>
<path opacity="0.28" d="M97.7268 63.684C98.0344 64.2716 98.4398 64.8312 98.9991 65.1949C99.9358 65.8105 101.152 65.7965 102.257 65.5727C103.249 65.3768 104.256 64.9991 104.955 64.2716C105.808 63.3762 106.101 62.0891 106.283 60.8579C106.577 58.9273 105.878 57.822 104.368 56.6748C103.319 55.8774 102.075 55.1079 100.705 55.3877C96.9998 56.1432 96.2029 60.816 97.7268 63.684Z" fill="#505370"/>
<path opacity="0.28" d="M100.09 61.6694C100.257 61.9772 100.453 62.257 100.747 62.4528C101.236 62.7746 101.865 62.7606 102.438 62.6487C102.956 62.5508 103.473 62.3549 103.836 61.9772C104.284 61.5155 104.424 60.844 104.522 60.2004C104.675 59.1931 104.312 58.6195 103.529 58.0319C102.984 57.6122 102.34 57.2205 101.627 57.3604C99.7121 57.7661 99.2926 60.1864 100.09 61.6694Z" fill="#505370"/>
<path d="M62.5367 47.7629C63.0261 48.6723 63.6552 49.5537 64.522 50.1273C65.9761 51.0926 67.8775 51.0647 69.5971 50.7149C71.149 50.4071 72.7149 49.8335 73.8054 48.6863C75.1476 47.2873 75.581 45.2727 75.8746 43.356C76.322 40.3341 75.2454 38.6273 72.8966 36.8365C71.2609 35.5914 69.3175 34.3882 67.1784 34.8219C61.4043 36.0111 60.146 43.286 62.5367 47.7629Z" fill="#272839"/>
<path opacity="0.28" d="M65.5706 44.741C65.8782 45.3286 66.2837 45.8882 66.8429 46.252C67.7796 46.8676 68.996 46.8536 70.1005 46.6297C71.0931 46.4339 72.0997 46.0561 72.7988 45.3286C73.6516 44.4332 73.9452 43.1461 74.127 41.915C74.4206 39.9843 73.7215 38.8791 72.2116 37.7319C71.163 36.9344 69.9187 36.165 68.5486 36.4448C64.8576 37.2002 64.0467 41.873 65.5706 44.741Z" fill="#424563"/>
<path opacity="0.28" d="M67.9334 42.7265C68.1011 43.0342 68.3108 43.314 68.5905 43.5099C69.0798 43.8317 69.7089 43.8177 70.2822 43.7058C70.7994 43.6078 71.3167 43.412 71.6802 43.0342C72.1276 42.5726 72.2674 41.901 72.3653 41.2575C72.5191 40.2502 72.1556 39.6766 71.3727 39.089C70.8274 38.6693 70.1843 38.2775 69.4713 38.4174C67.5559 38.8231 67.1364 41.2435 67.9334 42.7265Z" fill="#424563"/>
<path d="M50.9466 50.533C51.4359 51.4424 52.0651 52.3238 52.9319 52.8974C54.3859 53.8627 56.2873 53.8348 58.007 53.485C59.5588 53.1772 61.1247 52.6036 62.2152 51.4564C63.5574 50.0574 63.9908 48.0428 64.2844 46.1261C64.7318 43.1042 63.6553 41.3974 61.3065 39.6066C59.6707 38.3615 57.7273 37.1583 55.5883 37.592C49.8281 38.7672 48.5698 46.0561 50.9466 50.533Z" fill="#333446"/>
<path opacity="0.28" d="M53.9944 47.5111C54.302 48.0987 54.7075 48.6583 55.2667 49.0221C56.2034 49.6377 57.4198 49.6237 58.5243 49.3998C59.5169 49.204 60.5235 48.8262 61.2226 48.0987C62.0754 47.2033 62.369 45.9162 62.5508 44.6851C62.8444 42.7544 62.1453 41.6492 60.6354 40.502C59.5868 39.7045 58.3425 38.935 56.9724 39.2149C53.2674 39.9703 52.4565 44.6431 53.9944 47.5111Z" fill="#505370"/>
<path opacity="0.28" d="M56.3433 45.4965C56.511 45.8043 56.7068 46.0841 57.0004 46.28C57.4897 46.6018 58.1188 46.5878 58.6921 46.4759C59.2093 46.3779 59.7266 46.1821 60.0901 45.8043C60.5375 45.3427 60.6773 44.6711 60.7752 44.0276C60.929 43.0203 60.5655 42.4467 59.7826 41.8591C59.2373 41.4393 58.5942 41.0476 57.8812 41.1875C55.9798 41.5793 55.5603 43.9996 56.3433 45.4965Z" fill="#505370"/>
<path d="M79.8452 100.479C80.3905 101.514 81.1035 102.507 82.0821 103.151C83.7319 104.242 85.885 104.214 87.8283 103.822C89.5899 103.472 91.3515 102.815 92.5958 101.528C94.1197 99.9469 94.6091 97.6665 94.9306 95.498C95.434 92.0703 94.2316 90.1397 91.5612 88.1111C89.7157 86.6981 87.5207 85.327 85.088 85.8307C78.5589 87.1597 77.1469 95.4 79.8452 100.479Z" fill="#333446"/>
<path opacity="0.28" d="M83.2845 97.0649C83.634 97.7364 84.0954 98.366 84.7245 98.7717C85.7871 99.4712 87.1712 99.4432 88.4155 99.2054C89.548 98.9816 90.6804 98.5618 91.4773 97.7364C92.456 96.7291 92.7636 95.2601 92.9733 93.8751C93.2949 91.6786 92.5259 90.4335 90.8062 89.1324C89.6179 88.237 88.2058 87.3556 86.6539 87.6634C82.4596 88.5168 81.5509 93.8051 83.2845 97.0649Z" fill="#505370"/>
<path opacity="0.28" d="M85.9549 94.7705C86.1366 95.1202 86.3743 95.442 86.6959 95.6659C87.2411 96.0296 87.9681 96.0156 88.6113 95.8897C89.1985 95.7778 89.7857 95.5539 90.1911 95.1202C90.6944 94.5886 90.8622 93.8331 90.974 93.1196C91.1418 91.9864 90.7363 91.3428 89.8556 90.6573C89.2404 90.1956 88.5134 89.734 87.7025 89.9018C85.5355 90.3495 85.0601 93.0916 85.9549 94.7705Z" fill="#505370"/>
<path d="M88.9048 107.767C89.4501 108.803 90.1631 109.796 91.1418 110.44C92.7915 111.531 94.9446 111.503 96.888 111.111C98.6496 110.761 100.411 110.104 101.655 108.817C103.179 107.236 103.669 104.955 103.99 102.787C104.494 99.3593 103.291 97.4286 100.621 95.4C98.7754 93.987 96.5804 92.616 94.1477 93.1196C87.6326 94.4487 86.2065 102.689 88.9048 107.767Z" fill="#333446"/>
<path opacity="0.28" d="M92.3441 104.34C92.6937 105.011 93.155 105.641 93.7842 106.047C94.8467 106.746 96.2308 106.718 97.4751 106.48C98.6076 106.257 99.7401 105.837 100.537 105.011C101.516 103.99 101.823 102.535 102.033 101.15C102.354 98.9536 101.586 97.7084 99.8659 96.4073C98.6775 95.5119 97.2654 94.6306 95.7135 94.9383C91.5332 95.8057 90.6105 101.094 92.3441 104.34Z" fill="#6D73B5"/>
<path opacity="0.28" d="M95.0145 102.059C95.1963 102.409 95.4339 102.731 95.7555 102.955C96.3008 103.319 97.0278 103.305 97.6709 103.179C98.2581 103.067 98.8453 102.843 99.2507 102.409C99.7541 101.878 99.9218 101.122 100.034 100.409C100.201 99.2753 99.796 98.6318 98.9152 97.9463C98.3 97.4846 97.573 97.0229 96.7621 97.1908C94.5951 97.6245 94.1197 100.367 95.0145 102.059Z" fill="#6D73B5"/>
<path d="M64.8296 98.6178C65.3469 99.5972 66.018 100.521 66.9408 101.136C68.4927 102.157 70.5199 102.129 72.3514 101.766C74.0011 101.43 75.6649 100.828 76.8393 99.6111C78.2653 98.1282 78.7407 95.9737 79.0343 93.9311C79.5096 90.7133 78.3772 88.8945 75.8606 86.9779C74.127 85.6488 72.0578 84.3617 69.7789 84.8373C63.6413 86.0825 62.2991 93.8471 64.8296 98.6178Z" fill="#464760"/>
<path opacity="0.28" d="M68.0732 95.4001C68.4088 96.0296 68.8282 96.6172 69.4294 97.0089C70.422 97.6665 71.7223 97.6525 72.8967 97.4147C73.9592 97.2048 75.0218 96.8131 75.7767 96.0296C76.6855 95.0783 76.9931 93.6932 77.1888 92.3921C77.4964 90.3216 76.7694 89.1604 75.1616 87.9292C74.0431 87.0758 72.7149 86.2504 71.2609 86.5582C67.3043 87.3696 66.4514 92.3362 68.0732 95.4001Z" fill="#62668A"/>
<path opacity="0.28" d="M70.5898 93.2456C70.7576 93.5673 70.9813 93.8751 71.2888 94.085C71.8061 94.4207 72.4772 94.4207 73.0924 94.2948C73.6376 94.1829 74.1969 93.987 74.5883 93.5813C75.0637 93.0917 75.2175 92.3782 75.3153 91.6926C75.4691 90.6154 75.0916 90.0138 74.2668 89.3842C73.6936 88.9505 72.9945 88.5168 72.2395 88.6707C70.1843 89.0764 69.7509 91.6646 70.5898 93.2456Z" fill="#62668A"/>
<path d="M52.6382 94.9523C53.1555 95.9317 53.8266 96.855 54.7494 97.4706C56.3012 98.4919 58.3285 98.4639 60.16 98.1002C61.8097 97.7644 63.4735 97.1628 64.6479 95.9457C66.0739 94.4627 66.5493 92.3082 66.8429 90.2656C67.3182 87.0478 66.1858 85.2291 63.6692 83.3124C61.9356 81.9833 59.8664 80.6962 57.5875 81.1719C51.4499 82.417 50.1077 90.1816 52.6382 94.9523Z" fill="#3B3D5D"/>
<path opacity="0.28" d="M55.8818 91.7346C56.2174 92.3641 56.6368 92.9517 57.238 93.3434C58.2306 94.001 59.5308 93.987 60.7052 93.7492C61.7678 93.5393 62.8303 93.1476 63.5853 92.3641C64.4941 91.4128 64.8017 90.0277 64.9974 88.7266C65.305 86.6561 64.578 85.4949 62.9702 84.2637C61.8517 83.4103 60.5235 82.5849 59.0695 82.8927C55.1129 83.7041 54.26 88.6707 55.8818 91.7346Z" fill="#545987"/>
<path opacity="0.28" d="M58.3984 89.5801C58.5662 89.9018 58.7899 90.2096 59.0975 90.4195C59.6148 90.7552 60.2858 90.7552 60.901 90.6293C61.4463 90.5174 62.0055 90.3215 62.397 89.9158C62.8723 89.4262 63.0261 88.7127 63.124 88.0271C63.2778 86.9499 62.9003 86.3483 62.0754 85.7187C61.5022 85.285 60.8031 84.8513 60.0482 85.0052C57.993 85.4249 57.5456 87.9992 58.3984 89.5801Z" fill="#545987"/>
<path d="M30.7301 92.574C31.2474 93.5533 31.9185 94.4767 32.8412 95.0922C34.3931 96.1135 36.4204 96.0855 38.2519 95.7218C39.9016 95.386 41.5654 94.7844 42.7398 93.5673C44.1658 92.0843 44.6412 89.9298 44.9348 87.8872C45.4101 84.6694 44.2777 82.8507 41.7611 80.934C40.0275 79.6049 37.9583 78.3178 35.6794 78.7935C29.5278 80.0386 28.1856 87.8033 30.7301 92.574Z" fill="#333446"/>
<path opacity="0.28" d="M33.9597 89.3562C34.2952 89.9858 34.7147 90.5733 35.3159 90.9651C36.3085 91.6226 37.6087 91.6086 38.7831 91.3708C39.8457 91.1609 40.9082 90.7692 41.6632 89.9858C42.572 89.0344 42.8795 87.6494 43.0753 86.3483C43.3829 84.2777 42.6558 83.1165 41.048 81.8854C39.9296 81.032 38.6014 80.2065 37.1474 80.5143C33.1907 81.3257 32.3379 86.2923 33.9597 89.3562Z" fill="#505370"/>
<path opacity="0.28" d="M36.4763 87.2017C36.6441 87.5235 36.8678 87.8313 37.1754 88.0411C37.6927 88.3769 38.3637 88.3769 38.9789 88.251C39.5242 88.1391 40.0834 87.9432 40.4749 87.5375C40.9502 87.0478 41.104 86.3343 41.2019 85.6488C41.3557 84.5715 40.9782 83.9699 40.1533 83.3404C39.5801 82.9067 38.881 82.473 38.1261 82.6268C36.0709 83.0326 35.6375 85.6208 36.4763 87.2017Z" fill="#505370"/>
<path d="M40.0134 90.6294C40.5307 91.6087 41.2018 92.5321 42.1246 93.1476C43.6765 94.1689 45.7037 94.1409 47.5352 93.7772C49.1849 93.4414 50.8487 92.8398 52.0231 91.6227C53.4491 90.1397 53.9245 87.9852 54.2181 85.9426C54.6934 82.7248 53.561 80.9061 51.0444 78.9894C49.3108 77.6603 47.2416 76.3732 44.9627 76.8489C38.8111 78.094 37.4689 85.8447 40.0134 90.6294Z" fill="#333446"/>
<path opacity="0.28" d="M43.243 87.3976C43.5786 88.0272 43.998 88.6147 44.5992 89.0065C45.5918 89.664 46.8921 89.65 48.0665 89.4122C49.129 89.2023 50.1916 88.8106 50.9465 88.0272C51.8553 87.0758 52.1629 85.6908 52.3586 84.3897C52.6662 82.3191 51.9392 81.1579 50.3314 79.9268C49.2129 79.0734 47.8847 78.2479 46.4307 78.5557C42.4741 79.3672 41.6212 84.3477 43.243 87.3976Z" fill="#505370"/>
<path opacity="0.28" d="M45.7596 85.2571C45.9274 85.5789 46.1511 85.8867 46.4587 86.0965C46.976 86.4323 47.6471 86.4323 48.2622 86.3064C48.8075 86.1944 49.3667 85.9986 49.7582 85.5929C50.2335 85.1032 50.3873 84.3897 50.4852 83.7042C50.639 82.6269 50.2615 82.0253 49.4366 81.3958C48.8634 80.9621 48.1644 80.5284 47.4094 80.6823C45.3542 81.088 44.9208 83.6622 45.7596 85.2571Z" fill="#505370"/>
<path d="M67.0386 88.0551C67.6398 89.1883 68.4087 90.2656 69.4853 90.9651C71.2888 92.1542 73.6376 92.1123 75.7487 91.6926C77.6641 91.3148 79.5935 90.6013 80.9496 89.1883C82.5994 87.4675 83.1447 84.9772 83.4942 82.6129C84.0394 78.8774 82.7252 76.7789 79.8172 74.5684C77.8039 73.0295 75.4132 71.5465 72.7708 72.0781C65.6545 73.5331 64.1026 82.5149 67.0386 88.0551Z" fill="#333446"/>
<path opacity="0.28" d="M70.7855 84.3197C71.1769 85.0472 71.6663 85.7327 72.3513 86.1804C73.5118 86.9359 75.0077 86.9219 76.3639 86.6421C77.5942 86.3903 78.8245 85.9426 79.6913 85.0332C80.7539 83.928 81.1034 82.3331 81.3271 80.8221C81.6766 78.4298 80.8378 77.0727 78.9783 75.6597C77.6921 74.6803 76.1542 73.715 74.4625 74.0648C69.9047 75.0161 68.912 80.7801 70.7855 84.3197Z" fill="#505370"/>
<path opacity="0.28" d="M73.7075 81.8294C73.9033 82.2072 74.1689 82.5569 74.5184 82.7948C75.1196 83.1865 75.9026 83.1725 76.6016 83.0326C77.2447 82.9067 77.8739 82.6688 78.3352 82.2072C78.8805 81.6336 79.0622 80.8081 79.1881 80.0247C79.3698 78.7795 78.9364 78.08 77.9717 77.3525C77.3006 76.8489 76.5037 76.3452 75.6229 76.5271C73.2462 77.0028 72.7289 79.9967 73.7075 81.8294Z" fill="#505370"/>
<path d="M81.0195 64.1317C81.6487 65.3068 82.4456 66.4261 83.5501 67.1536C85.4235 68.3847 87.8562 68.3427 90.0512 67.909C92.0365 67.5173 94.0358 66.7758 95.4479 65.3068C97.1675 63.5161 97.7268 60.9419 98.0903 58.4796C98.6635 54.6042 97.2934 52.4078 94.2735 50.1133C92.1763 48.5184 89.7017 46.9655 86.9475 47.5251C79.5655 49.0501 77.9577 58.3816 81.0195 64.1317Z" fill="#282A46"/>
<path opacity="0.28" d="M84.9063 60.2564C85.3117 61.0118 85.815 61.7253 86.5281 62.187C87.7304 62.9845 89.2823 62.9565 90.6944 62.6767C91.9667 62.4249 93.2529 61.9492 94.1477 61.0118C95.2522 59.8646 95.6157 58.2138 95.8394 56.6329C96.2029 54.1566 95.3221 52.7436 93.3927 51.2746C92.0506 50.2533 90.4567 49.26 88.6951 49.6237C83.9835 50.589 82.9489 56.5769 84.9063 60.2564Z" fill="#3F4370"/>
<path opacity="0.28" d="M87.9261 57.6681C88.1358 58.0598 88.4015 58.4236 88.765 58.6754C89.3802 59.0811 90.191 59.0671 90.932 58.9272C91.5891 58.8013 92.2602 58.5495 92.7216 58.0598C93.2948 57.4583 93.4766 56.6048 93.6024 55.7934C93.7981 54.5063 93.3368 53.7788 92.3301 53.0093C91.6311 52.4777 90.8062 51.9601 89.8974 52.1559C87.4508 52.6596 86.9195 55.7654 87.9261 57.6681Z" fill="#3F4370"/>
<path d="M93.0432 79.1292C93.6304 80.2205 94.3714 81.2698 95.4059 81.9553C97.1536 83.1025 99.4325 83.0745 101.474 82.6548C103.333 82.2771 105.207 81.5915 106.507 80.2345C108.115 78.5696 108.632 76.1493 108.981 73.8549C109.513 70.2454 108.24 68.1888 105.416 66.0483C103.459 64.5653 101.138 63.1103 98.5796 63.642C91.701 65.055 90.1911 73.757 93.0432 79.1292Z" fill="#333446"/>
<path opacity="0.28" d="M96.6782 75.5058C97.0557 76.2053 97.531 76.8768 98.2021 77.3105C99.3206 78.052 100.775 78.024 102.089 77.7582C103.277 77.5204 104.48 77.0727 105.318 76.2053C106.353 75.128 106.689 73.5891 106.898 72.1201C107.248 69.7977 106.423 68.4966 104.619 67.1116C103.361 66.1602 101.879 65.2368 100.243 65.5726C95.8254 66.482 94.8607 72.0781 96.6782 75.5058Z" fill="#6D73B5"/>
<path opacity="0.28" d="M99.5024 73.0994C99.6981 73.4632 99.9498 73.8129 100.285 74.0368C100.873 74.4145 101.627 74.4145 102.299 74.2746C102.914 74.1487 103.543 73.9249 103.976 73.4632C104.508 72.9036 104.689 72.1061 104.801 71.3506C104.983 70.1475 104.549 69.462 103.613 68.7484C102.97 68.2588 102.187 67.7691 101.334 67.951C99.055 68.4127 98.5657 71.3087 99.5024 73.0994Z" fill="#6D73B5"/>
<path d="M94.5951 94.6865C95.1963 95.8197 95.9653 96.897 97.0418 97.5965C98.8453 98.7857 101.194 98.7437 103.305 98.324C105.221 97.9463 107.15 97.2327 108.506 95.8197C110.156 94.0989 110.701 91.6086 111.051 89.2443C111.596 85.5228 110.282 83.4103 107.374 81.1998C105.36 79.6609 102.97 78.1779 100.327 78.7095C93.211 80.1785 91.6591 89.1603 94.5951 94.6865Z" fill="#282A46"/>
<path opacity="0.28" d="M98.342 90.9651C98.7335 91.6926 99.2228 92.3781 99.9079 92.8258C101.068 93.5813 102.564 93.5673 103.92 93.2875C105.151 93.0357 106.381 92.588 107.248 91.6786C108.31 90.5734 108.66 88.9785 108.884 87.4675C109.233 85.0752 108.394 83.7181 106.535 82.3051C105.249 81.3258 103.711 80.3604 102.019 80.7102C97.4472 81.6615 96.4546 87.4116 98.342 90.9651Z" fill="#3F4370"/>
<path opacity="0.28" d="M101.25 88.4748C101.446 88.8526 101.711 89.2023 102.061 89.4402C102.662 89.8319 103.445 89.8179 104.144 89.678C104.787 89.5521 105.416 89.3142 105.878 88.8526C106.423 88.279 106.605 87.4535 106.731 86.6701C106.912 85.4249 106.479 84.7254 105.514 83.9979C104.843 83.4943 104.046 82.9906 103.165 83.1725C100.789 83.6481 100.271 86.6281 101.25 88.4748Z" fill="#3F4370"/>
<path d="M83.2565 85.201C83.8717 86.3622 84.6686 87.4675 85.7591 88.195C87.6046 89.4121 90.0233 89.3842 92.1903 88.9365C94.1616 88.5447 96.133 87.8172 97.5171 86.3622C99.2088 84.5995 99.768 82.0392 100.132 79.6189C100.705 75.7855 99.3486 73.617 96.3566 71.3506C94.2875 69.7837 91.8268 68.2448 89.1145 68.8044C81.8305 70.3013 80.2366 79.521 83.2565 85.201Z" fill="#484962"/>
<path opacity="0.28" d="M87.1013 81.3677C87.4928 82.1092 88.0101 82.8227 88.7091 83.2844C89.8975 84.0678 91.4354 84.0398 92.8335 83.76C94.0918 83.5082 95.364 83.0465 96.2588 82.1092C97.3493 80.976 97.6989 79.3391 97.9365 77.7862C98.3 75.3379 97.4332 73.9388 95.5178 72.4838C94.1896 71.4765 92.6098 70.4972 90.8762 70.847C86.1925 71.8123 85.1719 77.7302 87.1013 81.3677Z" fill="#64688C"/>
<path opacity="0.28" d="M90.0932 78.8075C90.3029 79.1992 90.5685 79.563 90.932 79.8008C91.5472 80.2065 92.3441 80.1925 93.0711 80.0526C93.7282 79.9267 94.3853 79.6749 94.8467 79.1992C95.4059 78.6116 95.6017 77.7582 95.7135 76.9608C95.8953 75.6876 95.4479 74.9601 94.4552 74.2186C93.7702 73.701 92.9453 73.1834 92.0505 73.3652C89.6178 73.8549 89.0866 76.9188 90.0932 78.8075Z" fill="#64688C"/>
<path d="M70.7855 74.6943C71.4007 75.8555 72.1976 76.9468 73.2881 77.6743C75.1336 78.8914 77.5244 78.8495 79.6914 78.4158C81.6487 78.024 83.6201 77.2965 85.0042 75.8555C86.6959 74.0927 87.2551 71.5465 87.6046 69.1262C88.1639 65.3068 86.8217 63.1523 83.8438 60.8859C81.7886 59.3189 79.3279 57.794 76.6296 58.3396C69.3595 59.8366 67.7796 69.0282 70.7855 74.6943Z" fill="#565877"/>
<path opacity="0.28" d="M74.6163 70.8749C75.0078 71.6164 75.5111 72.316 76.2241 72.7776C77.3985 73.5611 78.9504 73.5331 80.3345 73.2533C81.5928 73.0015 82.8511 72.5398 83.7459 71.6164C84.8364 70.4832 85.1859 68.8603 85.4096 67.3074C85.7731 64.8591 84.9063 63.4741 83.0049 62.0331C81.6767 61.0258 80.1108 60.0464 78.3772 60.3962C73.7076 61.3615 72.687 67.2515 74.6163 70.8749Z" fill="#7377A1"/>
<path opacity="0.28" d="M77.5943 68.3287C77.804 68.7065 78.0557 69.0842 78.4192 69.3221C79.0343 69.7278 79.8312 69.7138 80.5443 69.5739C81.2014 69.448 81.8585 69.1961 82.3058 68.7205C82.8651 68.1329 83.0468 67.2935 83.1727 66.482C83.3544 65.2089 82.907 64.4954 81.9284 63.7399C81.2433 63.2223 80.4324 62.7046 79.5236 62.9005C77.1189 63.3902 76.6016 66.44 77.5943 68.3287Z" fill="#7377A1"/>
<path d="M70.8554 57.7241C71.4706 58.8853 72.2675 59.9765 73.358 60.704C75.2035 61.9212 77.5943 61.8792 79.7613 61.4455C81.7186 61.0538 83.6899 60.3263 85.0741 58.8853C86.7658 57.1225 87.325 54.5762 87.6745 52.1559C88.2338 48.3366 86.8916 46.182 83.9136 43.9156C81.8584 42.3487 79.3978 40.8238 76.6995 41.3694C69.4434 42.8803 67.8495 52.072 70.8554 57.7241Z" fill="#333446"/>
<path opacity="0.28" d="M74.7002 53.9047C75.0917 54.6462 75.595 55.3457 76.308 55.8074C77.4824 56.5908 79.0343 56.5629 80.4184 56.2831C81.6767 56.0312 82.935 55.5696 83.8297 54.6462C84.9203 53.513 85.2698 51.8901 85.4935 50.3372C85.857 47.8889 84.9902 46.5038 83.0888 45.0628C81.7606 44.0555 80.1947 43.0762 78.4611 43.4259C73.7914 44.3913 72.7708 50.2812 74.7002 53.9047Z" fill="#505370"/>
<path opacity="0.28" d="M77.6781 51.3585C77.8878 51.7362 78.1395 52.114 78.503 52.3518C79.1182 52.7575 79.9151 52.7435 80.6281 52.6036C81.2852 52.4777 81.9423 52.2259 82.3897 51.7502C82.9489 51.1626 83.1307 50.3232 83.2565 49.5118C83.4383 48.2387 82.9909 47.5251 82.0122 46.7697C81.3271 46.252 80.5162 45.7344 79.6075 45.9303C77.2028 46.4199 76.6715 49.4838 77.6781 51.3585Z" fill="#505370"/>
<path d="M37.3571 63.1663C37.8883 64.1736 38.5734 65.1249 39.5241 65.7545C41.1319 66.8178 43.2151 66.7758 45.1025 66.398C46.8082 66.0623 48.5278 65.4327 49.7302 64.1736C51.1982 62.6346 51.6875 60.4242 51.9951 58.3256C52.4844 55.0099 51.31 53.1352 48.7236 51.1626C46.934 49.8055 44.7949 48.4764 42.4461 48.9521C36.1267 50.2532 34.7426 58.2417 37.3571 63.1663Z" fill="#282A46"/>
<path opacity="0.28" d="M40.6985 59.8506C41.048 60.4942 41.4815 61.1097 42.0966 61.5155C43.1172 62.187 44.4594 62.173 45.6757 61.9352C46.7662 61.7113 47.8707 61.3056 48.6397 60.5082C49.5764 59.5288 49.898 58.1018 50.0937 56.7587C50.4153 54.6322 49.6603 53.429 47.9966 52.1699C46.8501 51.3025 45.48 50.4491 43.9701 50.7569C39.9016 51.5683 39.0208 56.6888 40.6985 59.8506Z" fill="#3F4370"/>
<path opacity="0.28" d="M43.2849 57.6261C43.4667 57.9619 43.6904 58.2837 44.012 58.4935C44.5432 58.8433 45.2423 58.8293 45.8714 58.7034C46.4446 58.5915 47.0039 58.3816 47.4093 57.9619C47.8987 57.4583 48.0524 56.7168 48.1643 56.0173C48.3321 54.912 47.9406 54.2825 47.0738 53.6389C46.4726 53.1912 45.7735 52.7435 44.9906 52.8974C42.8795 53.3311 42.4181 55.9893 43.2849 57.6261Z" fill="#3F4370"/>
<path d="M55.1408 81.0879C55.7979 82.3191 56.6368 83.4803 57.7972 84.2497C59.7545 85.5368 62.2991 85.4949 64.5919 85.0332C66.6751 84.6135 68.7583 83.844 70.2263 82.3191C72.0158 80.4444 72.603 77.7582 72.9945 75.184C73.5957 71.1408 72.1556 68.8464 69.0099 66.44C66.8289 64.7752 64.2284 63.1523 61.3623 63.7399C53.6309 65.3348 51.9392 75.0861 55.1408 81.0879Z" fill="#333446"/>
<path opacity="0.28" d="M59.2093 77.0447C59.6287 77.8282 60.16 78.5836 60.9149 79.0733C62.1732 79.8987 63.795 79.8707 65.277 79.5769C66.6052 79.3111 67.9473 78.8215 68.8981 77.8421C70.0445 76.639 70.422 74.9182 70.6736 73.2673C71.0511 70.6791 70.1424 69.2101 68.1151 67.6712C66.717 66.6079 65.0533 65.5586 63.2078 65.9364C58.2446 66.9437 57.168 73.1974 59.2093 77.0447Z" fill="#505370"/>
<path opacity="0.28" d="M62.369 74.3446C62.5787 74.7503 62.8583 75.142 63.2498 75.3938C63.8929 75.8275 64.7457 75.8136 65.5147 75.6597C66.1998 75.5198 66.8988 75.2679 67.3881 74.7503C67.9893 74.1347 68.1851 73.2253 68.3109 72.3719C68.5066 71.0289 68.0313 70.2594 66.9827 69.4619C66.2557 68.9023 65.3889 68.3707 64.4382 68.5665C61.8657 69.0982 61.3064 72.3439 62.369 74.3446Z" fill="#505370"/>
<path d="M43.5227 77.0588C44.1239 78.192 44.8928 79.2692 45.9693 79.9687C47.7729 81.1579 50.1217 81.1159 52.2328 80.6962C54.1482 80.3185 56.0776 79.605 57.4337 78.192C59.0835 76.4712 59.6287 73.9809 59.9783 71.6165C60.5235 67.8811 59.2093 65.7825 56.3013 63.5721C54.288 62.0331 51.8973 60.5502 49.2549 61.0818C42.1386 62.5508 40.5867 71.5326 43.5227 77.0588Z" fill="#464760"/>
<path opacity="0.28" d="M47.2696 73.3373C47.661 74.0648 48.1504 74.7504 48.8354 75.1981C49.9959 75.9535 51.4918 75.9395 52.848 75.6597C54.0783 75.4079 55.3086 74.9602 56.1754 74.0509C57.238 72.9456 57.5875 71.3507 57.8112 69.8398C58.1607 67.4474 57.3219 66.0904 55.4624 64.6773C54.1762 63.698 52.6383 62.7327 50.9466 63.0824C46.3888 64.0338 45.3821 69.7838 47.2696 73.3373Z" fill="#62668A"/>
<path opacity="0.28" d="M50.1776 70.8471C50.3733 71.2248 50.639 71.5746 50.9885 71.8124C51.5897 72.2041 52.3726 72.1901 53.0717 72.0502C53.7148 71.9243 54.3439 71.6865 54.8053 71.2248C55.3506 70.6512 55.5323 69.8258 55.6581 69.0423C55.8399 67.7972 55.4065 67.0976 54.4418 66.3701C53.7707 65.8665 52.9738 65.3628 52.093 65.5447C49.7162 66.0204 49.2129 69.0003 50.1776 70.8471Z" fill="#62668A"/>
<path d="M33.764 79.1713C34.2813 80.1366 34.9384 81.06 35.8472 81.6615C37.3851 82.6828 39.3844 82.6409 41.2019 82.2771C42.8376 81.9553 44.4874 81.3398 45.6338 80.1366C47.0459 78.6676 47.5073 76.5411 47.8009 74.5265C48.2762 71.3367 47.1438 69.5459 44.6692 67.6572C42.9495 66.3421 40.9083 65.069 38.6573 65.5307C32.5756 66.7758 31.2614 74.4425 33.764 79.1713Z" fill="#333446"/>
<path opacity="0.28" d="M36.9656 75.9815C37.3012 76.597 37.7206 77.1846 38.3078 77.5764C39.2865 78.2339 40.5727 78.2059 41.7331 77.9681C42.7817 77.7582 43.8303 77.3665 44.5713 76.597C45.48 75.6597 45.7736 74.2886 45.9694 73.0015C46.277 70.9589 45.5499 69.7977 43.9561 68.5946C42.8516 67.7551 41.5374 66.9437 40.0974 67.2375C36.2107 68.0349 35.3578 72.9595 36.9656 75.9815Z" fill="#505370"/>
<path opacity="0.28" d="M39.4542 73.8549C39.622 74.1767 39.8457 74.4845 40.1533 74.6804C40.6706 75.0161 41.3277 75.0021 41.9289 74.8902C42.4741 74.7783 43.0194 74.5824 43.4109 74.1767C43.8862 73.6871 44.04 72.9875 44.1379 72.316C44.2917 71.2527 43.9142 70.6512 43.0893 70.0356C42.5161 69.6019 41.831 69.1822 41.09 69.3361C39.0628 69.7418 38.6154 72.288 39.4542 73.8549Z" fill="#505370"/>
<path d="M60.2159 62.8586C60.8451 64.0337 61.642 65.153 62.7605 65.8945C64.6339 67.1256 67.0806 67.0976 69.2756 66.6499C71.2749 66.2442 73.2741 65.5167 74.6862 64.0477C76.4059 62.257 76.9791 59.6688 77.3426 57.2065C77.9158 53.3311 76.5457 51.1207 73.5118 48.8263C71.4147 47.2314 68.9261 45.6784 66.1718 46.238C58.7759 47.749 57.1541 57.0945 60.2159 62.8586Z" fill="#464760"/>
<path opacity="0.28" d="M64.1306 58.9693C64.5361 59.7247 65.0534 60.4382 65.7664 60.9139C66.9688 61.7114 68.5346 61.6834 69.9467 61.4036C71.219 61.1517 72.5052 60.6761 73.414 59.7387C74.5185 58.5915 74.882 56.9267 75.1196 55.3598C75.4831 52.8695 74.6023 51.4564 72.673 49.9875C71.3308 48.9662 69.737 47.9729 67.9754 48.3226C63.1939 49.288 62.1593 55.2898 64.1306 58.9693Z" fill="#62668A"/>
<path opacity="0.28" d="M67.1644 56.381C67.3742 56.7727 67.6398 57.1505 68.0033 57.3883C68.6324 57.794 69.4433 57.78 70.1703 57.6401C70.8274 57.5142 71.4985 57.2624 71.9739 56.7727C72.5471 56.1712 72.7289 55.3177 72.8547 54.4923C73.0504 53.2052 72.589 52.4637 71.5824 51.7082C70.8834 51.1766 70.0585 50.659 69.1358 50.8408C66.6751 51.3585 66.1438 54.4643 67.1644 56.381Z" fill="#62668A"/>
<path d="M47.5911 63.0404C48.2063 64.2016 49.0032 65.2929 50.0937 66.0204C51.9392 67.2375 54.3439 67.1956 56.497 66.7619C58.4543 66.3701 60.4257 65.6426 61.8098 64.2016C63.5015 62.4388 64.0607 59.8926 64.4102 57.4723C64.9695 53.6529 63.6273 51.4984 60.6493 49.232C58.5802 47.6651 56.1335 46.1401 53.4352 46.6857C46.1651 48.1827 44.5852 57.3743 47.5911 63.0404Z" fill="#333446"/>
<path opacity="0.28" d="M51.4219 59.2211C51.8134 59.9625 52.3307 60.6621 53.0297 61.1237C54.2041 61.9072 55.756 61.8792 57.1401 61.5994C58.3984 61.3476 59.6567 60.8859 60.5515 59.9625C61.642 58.8293 61.9915 57.2064 62.2152 55.6535C62.5787 53.2052 61.7119 51.8202 59.8105 50.3652C58.4823 49.3579 56.9164 48.3785 55.1828 48.7283C50.5132 49.7076 49.4926 55.5976 51.4219 59.2211Z" fill="#6D73B5"/>
<path opacity="0.28" d="M54.3999 56.6749C54.6096 57.0666 54.8613 57.4303 55.2248 57.6682C55.8399 58.0739 56.6368 58.0599 57.3499 57.92C58.007 57.7941 58.6641 57.5423 59.1115 57.0666C59.6707 56.479 59.8525 55.6396 59.9783 54.8281C60.16 53.555 59.7127 52.8415 58.734 52.086C58.0489 51.5684 57.238 51.0507 56.3293 51.2466C53.9385 51.7363 53.4072 54.8001 54.3999 56.6749Z" fill="#6D73B5"/>
<path opacity="0.19" d="M97.0697 99.1775C103.445 90.3076 106.073 77.9262 101.753 67.5873C99.5583 62.3409 94.2735 58.5635 88.4994 60.2704C82.6274 61.9912 80.3485 68.077 80.5023 73.6871C80.5862 76.639 80.4464 79.4091 79.4397 81.9414C74.4066 84.9773 70.6737 88.8946 66.5912 93.2596C64.1306 95.9037 62.1313 98.5339 62.1872 102.311C62.2571 106.76 65.263 110.356 69.3734 111.825C80.3065 115.742 91.0299 107.6 97.0697 99.1775Z" fill="#6D73B5"/>
<path opacity="0.19" d="M93.7981 89.4681C96.6503 85.4949 97.8386 79.9407 95.8953 75.3099C94.9166 72.9596 92.5399 71.2667 89.9534 72.0362C87.325 72.8057 86.3044 75.5338 86.3743 78.052C86.4162 79.3671 86.3463 80.6123 85.8989 81.7595C83.648 83.1165 81.9703 84.8793 80.1388 86.824C79.0343 88.0132 78.1395 89.1883 78.1674 90.8812C78.1954 92.8818 79.5516 94.4767 81.397 95.1482C86.2764 96.883 91.0858 93.2315 93.7981 89.4681Z" fill="#6D73B5"/>
<path d="M95.4339 76.667C95.2802 77.8561 94.7489 79.2132 93.8681 80.0526C93.1271 80.7661 91.4634 81.6055 92.0226 82.8647C92.1904 83.2564 92.6098 83.5362 93.0292 83.5782C95.0565 83.7321 96.6363 82.389 97.0837 80.4164C97.4332 78.8635 97.0138 77.3945 95.5738 76.583C95.5178 76.5551 95.4479 76.583 95.4339 76.667Z" fill="white"/>
<path d="M81.6208 71.2667C82.7392 73.659 86.4582 71.9103 85.3257 69.5179C84.2072 67.1396 80.4883 68.8744 81.6208 71.2667Z" fill="white"/>
<path d="M90.5966 61.7952C91.0439 62.7466 92.5259 62.0471 92.0785 61.0957C91.6311 60.1444 90.1492 60.8439 90.5966 61.7952Z" fill="white"/>
</g>
<defs>
<clipPath id="clip0_1:10307">
<rect width="135" height="136" fill="white"/>
</clipPath>
</defs>
</svg>
