<svg width="25" height="25" viewBox="0 0 25 25" fill="none" xmlns="http://www.w3.org/2000/svg">
<path d="M13.4204 1.38143L13.4206 1.38159L23.6197 11.5792L23.6197 11.5792L23.6201 11.5796L23.6203 11.5799L23.6205 11.5801L23.6206 11.5802C24.1266 12.0872 24.1264 12.9137 23.6202 13.4204C23.3725 13.6679 23.0488 13.8018 22.6996 13.8018H22.3227H21.3227V14.8018V22.3066C21.3227 23.2392 20.5621 24 19.6286 24H15.9059V18.3838C15.9059 17.1537 14.9069 16.1549 13.6769 16.1549H11.3234C10.0935 16.1549 9.09436 17.1537 9.09436 18.3838V24H5.37167C4.43817 24 3.67764 23.2392 3.67764 22.3066V14.8018V13.8018H2.67764H2.28404L2.27022 13.8004L2.24306 13.7993C1.91498 13.7852 1.6118 13.652 1.38005 13.4202L1.37989 13.42C0.874316 12.9145 0.873215 12.0895 1.37753 11.5823L1.38533 11.5744L1.38877 11.5709L11.5795 1.3814L11.5795 1.38139C11.8269 1.13401 12.1506 1 12.5002 1C12.8496 1 13.1732 1.13407 13.4204 1.38143Z" stroke="#9E9E9E" stroke-width="2"/>
</svg>
