<svg width="20" height="20" viewBox="0 0 20 20" fill="none" xmlns="http://www.w3.org/2000/svg">
<path d="M10 17.5C9.89033 17.5006 9.78162 17.4796 9.68008 17.4382C9.57855 17.3967 9.48621 17.3356 9.40834 17.2583L2.93334 10.775C2.12114 9.95433 1.66556 8.84632 1.66556 7.69168C1.66556 6.53704 2.12114 5.42903 2.93334 4.60835C3.75189 3.79211 4.8607 3.33374 6.01667 3.33374C7.17265 3.33374 8.28145 3.79211 9.10001 4.60835L10 5.50835L10.9 4.60835C11.7186 3.79211 12.8274 3.33374 13.9833 3.33374C15.1393 3.33374 16.2481 3.79211 17.0667 4.60835C17.8789 5.42903 18.3345 6.53704 18.3345 7.69168C18.3345 8.84632 17.8789 9.95433 17.0667 10.775L10.5917 17.2583C10.5138 17.3356 10.4215 17.3967 10.3199 17.4382C10.2184 17.4796 10.1097 17.5006 10 17.5ZM6.01667 5.00001C5.6639 4.99842 5.31432 5.06683 4.98818 5.20129C4.66204 5.33576 4.36581 5.53359 4.11667 5.78335C3.61339 6.28928 3.33087 6.97389 3.33087 7.68751C3.33087 8.40114 3.61339 9.08575 4.11667 9.59168L10 15.4833L15.8833 9.59168C16.3866 9.08575 16.6691 8.40114 16.6691 7.68751C16.6691 6.97389 16.3866 6.28928 15.8833 5.78335C15.3697 5.2981 14.6899 5.02776 13.9833 5.02776C13.2768 5.02776 12.597 5.2981 12.0833 5.78335L10.5917 7.28335C10.5142 7.36145 10.422 7.42345 10.3205 7.46576C10.2189 7.50806 10.11 7.52985 10 7.52985C9.89 7.52985 9.78107 7.50806 9.67953 7.46576C9.57798 7.42345 9.48581 7.36145 9.40834 7.28335L7.91667 5.78335C7.66753 5.53359 7.37131 5.33576 7.04517 5.20129C6.71902 5.06683 6.36944 4.99842 6.01667 5.00001V5.00001Z" fill="#504D4D"/>
</svg>
