<svg width="22" height="24" viewBox="0 0 22 24" fill="none" xmlns="http://www.w3.org/2000/svg">
<path d="M9.99995 24.0001C7.93305 24.0001 6.24994 22.3181 6.24994 20.2501C6.24994 19.8361 6.58594 19.5001 6.99994 19.5001C7.41394 19.5001 7.74994 19.8361 7.74994 20.2501C7.74994 21.4912 8.75996 22.5001 9.99995 22.5001C11.2399 22.5001 12.25 21.4912 12.25 20.2501C12.25 19.8361 12.586 19.5001 13 19.5001C13.414 19.5001 13.75 19.8361 13.75 20.2501C13.75 22.3181 12.067 24.0001 9.99995 24.0001Z" fill="black" fill-opacity="0.39"/>
<path d="M18.25 21H1.74994C0.784975 21 0 20.2151 0 19.2501C0 18.738 0.223023 18.2531 0.61194 17.92C0.637026 17.8981 0.663942 17.8781 0.691957 17.86C2.15992 16.579 3.00001 14.736 3.00001 12.7899V9.99996C3.00001 6.14008 6.14101 3 9.99997 3C10.16 3 10.333 3.00293 10.4931 3.03003C10.9019 3.09796 11.1781 3.48505 11.11 3.89301C11.042 4.30097 10.648 4.57709 10.247 4.50898C10.167 4.49598 10.0791 4.5 9.99997 4.5C6.9681 4.5 4.50001 6.96699 4.50001 9.99996V12.7899C4.50001 15.206 3.44093 17.4921 1.59705 19.061C1.58204 19.073 1.56904 19.084 1.55292 19.095C1.52601 19.1291 1.5 19.1811 1.5 19.2501C1.5 19.386 1.61408 19.5 1.74994 19.5H18.25C18.386 19.5 18.5001 19.386 18.5001 19.2501C18.5001 19.18 18.4741 19.1291 18.4461 19.095C18.4311 19.084 18.4181 19.073 18.4031 19.061C16.5581 17.491 15.5001 15.206 15.5001 12.7899V11.7001C15.5001 11.2861 15.8361 10.9501 16.2501 10.9501C16.6641 10.9501 17.0001 11.2861 17.0001 11.7001V12.7899C17.0001 14.7371 17.8411 16.581 19.3111 17.8631C19.338 17.881 19.364 17.9001 19.388 17.9211C19.7771 18.2531 20.0001 18.738 20.0001 19.2501C20.0001 20.2151 19.2151 21 18.25 21Z" fill="black" fill-opacity="0.39"/>
<path d="M17.0001 9.99997C14.2431 9.99997 12.0001 7.7571 12.0001 5.00007C12.0001 2.24305 14.2431 0 17.0001 0C19.7572 0 22 2.24305 22 5.00007C22 7.7571 19.7572 9.99997 17.0001 9.99997ZM17.0001 1.5C15.07 1.5 13.5001 3.06995 13.5001 5.00007C13.5001 6.93001 15.07 8.49996 17.0001 8.49996C18.9301 8.49996 20.5 6.93001 20.5 5.00007C20.5 3.06995 18.9301 1.5 17.0001 1.5Z" fill="black" fill-opacity="0.39"/>
</svg>
