<svg width="21" height="21" viewBox="0 0 21 21" fill="none" xmlns="http://www.w3.org/2000/svg">
<path d="M17.9246 13.5754C16.781 12.4318 15.4198 11.5852 13.9346 11.0727C15.5253 9.97709 16.5703 8.14357 16.5703 6.07031C16.5703 2.72315 13.8472 0 10.5 0C7.15284 0 4.42969 2.72315 4.42969 6.07031C4.42969 8.14357 5.47472 9.97709 7.06543 11.0727C5.58026 11.5852 4.21903 12.4318 3.07539 13.5754C1.09221 15.5586 0 18.1954 0 21H1.64062C1.64062 16.1149 5.61492 12.1406 10.5 12.1406C15.3851 12.1406 19.3594 16.1149 19.3594 21H21C21 18.1954 19.9078 15.5586 17.9246 13.5754ZM10.5 10.5C8.05748 10.5 6.07031 8.51287 6.07031 6.07031C6.07031 3.62775 8.05748 1.64062 10.5 1.64062C12.9425 1.64062 14.9297 3.62775 14.9297 6.07031C14.9297 8.51287 12.9425 10.5 10.5 10.5Z" fill="black" fill-opacity="0.39"/>
</svg>
