<svg width="20" height="25" viewBox="0 0 20 25" fill="none" xmlns="http://www.w3.org/2000/svg">
<path d="M5.9788 13.3749C2.75025 14.9999 0.409052 18.375 0 22.5C0 23.875 0.93189 25 2.16777 25H17.8317C19.068 25 20 23.875 20 22.5C19.5905 18.375 17.2487 14.9999 14.0209 13.3749C13.2947 14.9999 11.7709 16.25 9.99972 16.25C8.22858 16.25 6.70437 14.9999 5.9788 13.3749V13.3749Z" fill="#0FA956"/>
<path d="M15.594 6.25C15.594 7.9076 15.0046 9.49731 13.9554 10.6694C12.9063 11.8415 11.4834 12.5 9.99971 12.5C8.51602 12.5 7.0931 11.8415 6.04397 10.6694C4.99485 9.49731 4.40546 7.9076 4.40546 6.25C4.40546 4.5924 4.99485 3.00269 6.04397 1.83058C7.0931 0.65848 8.51602 0 9.99971 0C11.4834 0 12.9063 0.65848 13.9554 1.83058C15.0046 3.00269 15.594 4.5924 15.594 6.25V6.25Z" fill="#0FA956"/>
<path d="M9.99972 11.25C8.57095 11.25 7.20897 11.5862 5.9788 12.1875C2.75025 13.765 0.409052 17.1837 0 21.25C0 22.6313 0.93189 23.75 2.16777 23.75H17.8317C19.068 23.75 20 22.6313 20 21.25C19.5905 17.1837 17.2487 13.765 14.0209 12.1875C12.7901 11.5862 11.4285 11.25 9.99972 11.25V11.25Z" fill="#0FA956"/>
</svg>
