<svg width="97" height="94" viewBox="0 0 97 94" fill="none" xmlns="http://www.w3.org/2000/svg">
<path d="M12.5447 22.0223C10.2571 23.3044 8.24183 25.0367 6.55335 27.0418C2.05982 32.375 -0.418432 39.4541 0.0581541 46.4105C0.534741 53.3805 4.04787 60.1323 9.65797 64.2925C12.286 66.243 15.2953 67.5933 18.3863 68.6573C29.4023 72.4219 41.671 72.3946 52.6597 68.5481C55.0018 67.7297 57.3166 66.734 59.3455 65.3018C63.308 62.5056 65.9769 58.2091 68.033 53.8034C69.1904 51.3209 70.1981 48.7566 70.8381 46.0968C71.3147 44.1054 71.587 42.0594 71.6415 39.9997C71.9002 31.1747 67.2705 22.527 59.6859 18.0258C51.9516 13.4428 30.6686 11.8196 12.5447 22.0223Z" fill="#EA3017"/>
<g opacity="0.29">
<path opacity="0.29" d="M29.5112 28.8153C30.4507 29.4564 34.0319 30.8886 36.02 31.9661C39.0701 33.6439 41.3714 35.3488 43.7815 37.7495C45.0343 39.0044 45.47 42.4007 45.1705 43.9284C44.4352 47.5702 41.7118 51.8532 42.0794 56.7636C42.4199 61.2511 45.4292 64.4974 50.018 64.7157C60.6255 65.234 65.8407 54.7312 66.5079 45.5652C67.0934 37.5312 63.7165 29.1836 57.5889 23.9186C52.3873 19.4447 43.7543 16.0892 36.8506 17.6442C34.3043 18.2171 30.0286 19.4447 28.8167 22.0908C27.8091 24.3278 27.1555 27.2058 29.5112 28.8153Z" fill="#FE6E27"/>
</g>
<g opacity="0.49">
<path opacity="0.49" d="M40.4863 31.4748C43.2369 32.1158 45.47 33.1388 48.3976 32.9342C51.9788 32.6751 56.4723 32.0749 58.828 29.0741C60.4484 27.0281 61.3744 24.8457 60.6527 22.1723C59.8221 19.1715 56.9762 16.9209 53.8307 16.9755C50.5218 17.0301 48.4521 18.6123 45.7287 20.1127C44.3534 20.8765 42.2428 22.2814 40.4863 22.7588C36.2787 23.9182 36.0744 30.4381 40.4863 31.4748Z" fill="#FE6E27"/>
</g>
<g opacity="0.49">
<path opacity="0.49" d="M6.07682 39.7137C2.41391 45.1969 4.29302 54.0902 8.11933 59.0551C12.4631 64.702 20.8782 68.8895 27.9181 65.9705C31.7308 64.3883 32.6431 59.7917 29.0483 57.3092C25.5352 54.8813 21.1642 54.6085 17.474 52.5488C13.8248 50.5028 10.7201 44.1194 9.97121 40.2183C9.58994 38.2815 7.01638 38.3224 6.07682 39.7137Z" fill="#B60807"/>
</g>
<path d="M52.2376 35.3075C54.1575 35.6894 56.0911 35.5121 57.9838 35.0619C60.9114 34.3527 64.125 31.5974 63.6893 28.2829C63.3624 25.7731 61.8646 23.7681 59.1276 23.7135C56.1864 23.659 54.3618 25.5822 52.8639 27.8191C52.4827 28.392 52.1422 29.0058 51.761 29.5787C52.2239 28.9103 51.6248 29.7151 51.5431 29.8106C51.3661 30.0152 51.1482 30.1788 50.944 30.3425C49.201 31.7065 50.1814 34.9119 52.2376 35.3075Z" fill="#FEA489"/>
<path d="M6.9891 20.4946C9.39927 20.2628 11.646 20.331 14.0153 20.9038C16.2349 21.4358 18.114 22.6088 20.4288 22.8407C23.7513 23.1681 28.3946 23.5636 30.7367 20.7811C31.6082 19.7581 31.6763 18.4077 30.7367 17.3847C27.7138 14.1112 23.3292 16.4163 19.7208 17.5348C17.2017 18.3123 14.1515 17.8894 11.5371 18.2441C9.835 18.4759 8.35078 19.1579 6.8257 19.8809C6.53975 20.0309 6.67592 20.5219 6.9891 20.4946Z" fill="#4E691C"/>
<path d="M18.4409 5.81811C15.6494 12.8154 22.5395 16.4573 26.5292 20.8221C29.4841 24.0547 34.1682 18.5987 30.3147 15.9117C28.5309 14.6704 26.6654 13.552 24.7046 12.6381C22.3217 11.5196 20.0749 9.21446 20.5379 6.39099C20.7421 5.01336 18.9583 4.52232 18.4409 5.81811Z" fill="#4E691C"/>
<path d="M50.7397 9.6374C41.7254 5.83186 35.4889 14.2613 27.4823 15.8981C23.4653 16.7165 25.6304 23.2091 29.7835 21.3541C33.283 19.7855 36.1289 17.6304 39.2471 15.448C42.8556 12.9246 46.8589 13.1429 50.7533 11.547C51.6792 11.1651 51.6656 10.033 50.7397 9.6374Z" fill="#4E691C"/>
<path d="M47.567 16.1707C44.122 19.267 39.5604 20.3582 35.0804 19.1715C32.6975 18.5441 27.4278 16.007 25.3853 18.585C23.1522 21.3948 27.0329 25.4322 29.3886 22.5951C29.4159 22.5542 29.4567 22.5133 29.484 22.4724C28.8167 22.7452 28.1495 23.0316 27.4823 23.3044C32.466 22.8679 36.7417 24.9412 41.7663 23.6863C45.1977 22.827 48.0027 20.3855 48.9695 16.9891C49.2283 16.1434 48.1798 15.6251 47.567 16.1707Z" fill="#4E691C"/>
<path d="M17.474 30.1791C19.8024 30.3155 21.9675 29.4153 24.0236 28.3923C25.1402 27.833 26.1887 27.1238 27.1827 26.3736C28.1767 25.6234 29.0891 24.464 30.1376 23.8911C32.5069 22.5953 32.3979 19.0489 30.1376 17.7258C27.6593 16.2664 24.9904 18.176 24.7726 20.8085C24.5002 24.1366 20.279 27.7921 17.2289 28.4332C16.194 28.6378 16.5072 30.1246 17.474 30.1791Z" fill="#4E691C"/>
<path d="M34.0728 0.184774C28.8304 4.82236 27.7683 12.0242 28.1495 18.626C28.381 22.527 34.3724 21.1085 32.6975 17.3984C30.5597 12.6517 33.6643 5.40887 35.3119 0.907691C35.5843 0.157494 34.5766 -0.265344 34.0728 0.184774Z" fill="#415613"/>
<path d="M32.6022 3.99069C31.118 3.59513 29.5657 4.20893 28.7759 5.54564C28.0814 6.71868 28.1904 8.01447 28.7895 9.20115C30.2737 12.1474 35.1077 10.7561 34.9715 7.52344C34.9579 7.18244 34.917 6.85508 34.849 6.51408C34.74 6.24128 34.6311 5.98212 34.5085 5.70932C34.8898 7.34612 34.9715 7.52344 34.7536 6.20036C34.3996 5.16373 33.7188 4.29077 32.6022 3.99069Z" fill="#415613"/>
<path d="M19.9931 13.511C21.2186 16.2799 24.4049 18.4214 27.3053 19.1033C27.9589 19.2534 28.2584 18.435 27.741 18.0531C25.3581 16.3208 22.3896 15.6934 20.5786 13.1563C20.3199 12.8017 19.816 13.1018 19.9931 13.511Z" fill="#415613"/>
<path d="M49.2555 11.4376C44.8165 10.1009 38.5119 12.788 35.4754 16.0343C34.9716 16.5799 35.5979 17.2755 36.2243 17.0027C38.1443 16.1707 39.9144 15.0386 41.8072 14.1247C44.231 12.9517 46.7228 12.5698 49.2555 11.765C49.4053 11.7104 49.4189 11.4786 49.2555 11.4376Z" fill="#415613"/>
<path d="M31.9622 22.377C35.7204 25.5005 41.8616 24.3957 45.0888 21.0403C45.5517 20.5629 44.9662 19.84 44.3943 20.14C40.2412 22.3497 36.7689 23.3318 32.1256 22.0906C31.9758 22.0496 31.8261 22.2679 31.9622 22.377Z" fill="#415613"/>
<path d="M22.6483 26.3598C24.1734 24.6139 26.8151 22.9771 26.8015 20.3991C26.8015 19.8944 26.1479 19.7444 25.8755 20.1536C25.2355 21.1357 24.7862 22.1996 24.1053 23.168C23.4517 24.0955 22.8254 25.0776 22.2807 26.0733C22.1718 26.3052 22.4713 26.5644 22.6483 26.3598Z" fill="#415613"/>
<path d="M16.0034 18.6943C17.6101 19.3217 18.9582 19.4308 20.6739 19.2399C21.4092 19.158 22.1173 18.9807 22.839 18.8443C24.1326 18.5852 25.3581 18.7625 26.6517 18.6397C27.2372 18.5852 27.6457 17.7122 26.9921 17.3985C23.5198 15.789 19.5982 18.9398 16.017 18.6397C15.9761 18.6261 15.9761 18.6806 16.0034 18.6943Z" fill="#415613"/>
<path d="M11.6188 19.8671C13.0622 19.9898 14.4647 20.3308 15.8945 20.4809C16.2485 20.5218 16.2894 19.9762 15.9762 19.8671C14.5737 19.4169 13.0622 19.3897 11.6188 19.5533C11.4146 19.567 11.4146 19.8398 11.6188 19.8671Z" fill="#67822B"/>
<path d="M14.2741 19.2125C14.9413 19.2671 15.663 19.4308 16.3166 19.308C16.6161 19.2534 16.6161 18.7624 16.3166 18.7078C15.6493 18.5851 14.9413 18.7488 14.2741 18.8033C14.0153 18.8306 14.0153 19.1852 14.2741 19.2125Z" fill="#67822B"/>
<path d="M17.5285 20.4401C18.6995 20.9721 20.1701 21.3813 21.4228 20.9994C21.7905 20.8902 21.7905 20.3719 21.4228 20.2492C20.2246 19.8672 18.8765 20.2492 17.6238 20.0855C17.4468 20.0718 17.3787 20.3719 17.5285 20.4401Z" fill="#67822B"/>
<path d="M19.5437 8.99607C19.0807 11.3285 21.9947 14.1111 24.0645 14.5885C24.5819 14.7112 25.1266 14.0019 24.6364 13.6064C23.8738 13.0062 23.0704 12.4743 22.2807 11.9014C21.3819 11.233 19.993 10.2646 19.8841 9.03699C19.8569 8.87331 19.5845 8.80511 19.5437 8.99607Z" fill="#67822B"/>
<path d="M33.0925 16.6211C33.8142 15.3799 35.4482 14.9297 36.5784 14.1523C36.9869 13.8658 36.7146 13.3202 36.2516 13.3884C34.8082 13.593 33.1061 15.0798 32.9155 16.5665C32.9019 16.6757 33.0517 16.7029 33.0925 16.6211Z" fill="#67822B"/>
<path d="M30.9682 8.90095C32.4933 9.62387 34.1137 7.61879 33.392 6.20024C33.0788 5.60008 32.2618 5.7092 31.935 6.20024C31.5401 6.78676 31.9214 7.98707 31.0636 8.21895C30.7776 8.30079 30.6687 8.76455 30.9682 8.90095Z" fill="#4E691C"/>
<path d="M30.369 12.3108C28.7486 13.9885 29.5929 17.2757 30.8048 18.9261C31.1588 19.4172 31.9213 19.1307 31.7988 18.5033C31.5945 17.5349 31.3222 16.5801 31.118 15.6116C30.9001 14.5614 30.9409 13.5656 30.8729 12.5017C30.8592 12.2698 30.5597 12.1198 30.369 12.3108Z" fill="#4E691C"/>
<path d="M32.9971 4.29021C32.9699 4.35841 32.9427 4.4266 32.9291 4.4948C32.8746 4.64484 33.1605 4.64484 33.1061 4.4948C33.0788 4.4266 33.0516 4.35841 33.038 4.29021C33.0244 4.27657 32.9971 4.27657 32.9971 4.29021Z" fill="#4E691C"/>
<path d="M32.8201 4.68639C33.5282 4.39995 34.0048 3.37695 34.4405 2.79043C34.7265 2.40851 34.1818 1.93112 33.8005 2.14936C33.1061 2.58583 32.2618 3.67703 32.6159 4.57727C32.6431 4.64546 32.7384 4.7273 32.8201 4.68639Z" fill="#4E691C"/>
<path d="M59.2638 29.0061C61.0476 29.0061 62.5319 27.5193 62.5319 25.7325C62.5319 23.9457 61.0476 22.4589 59.2638 22.4589C57.48 22.4589 55.9958 23.9457 55.9958 25.7325C55.9958 27.5193 57.48 29.0061 59.2638 29.0061Z" fill="white"/>
<path d="M59.1004 39.277C53.6128 36.9036 47.5942 34.8167 41.7663 36.1398C39.2063 36.7127 36.8234 37.9266 34.6719 39.427C28.9529 43.4099 24.7181 49.5888 23.37 56.436C22.022 63.2833 23.656 70.7307 27.9861 76.2003C30.015 78.7646 32.5749 80.8652 35.2847 82.6929C44.939 89.1992 56.7992 92.3636 68.4006 91.5316C70.8789 91.3543 73.3708 90.986 75.6992 90.1403C80.2608 88.4626 83.951 85.0253 87.0828 81.3016C88.853 79.2147 90.487 76.9914 91.7942 74.5908C92.7746 72.7903 93.5644 70.8807 94.1499 68.9166C96.6963 60.4734 95.0078 50.3253 88.322 44.5829C83.3655 40.3272 76.2847 39.0178 69.8985 40.3954C68.5232 40.6955 67.1479 41.1047 65.7317 41.1456C63.4305 41.1866 61.2246 40.2045 59.1004 39.277Z" fill="#E74B1B"/>
<path d="M55.2741 55.9583C49.9908 57.0768 45.8513 64.1696 46.0828 69.2437C46.2871 73.7858 49.0241 77.7823 53.5176 79.0235C58.5558 80.4148 64.8876 77.3594 65.9769 71.9307C66.4263 69.7074 66.5216 68.1934 66.0858 65.9564C65.9905 65.4518 65.8952 64.9334 65.8271 64.4151C65.9361 65.2744 66.0586 66.1337 66.1675 66.9931C65.8544 64.4015 65.5548 62.3282 64.234 60.0231C62.3412 56.7495 59.0051 55.1672 55.2741 55.9583Z" fill="#FECDA4"/>
<g opacity="0.55">
<path opacity="0.55" d="M58.6101 56.6405C58.365 57.4044 58.188 58.1818 58.0518 58.9593C57.9157 59.7641 57.8067 60.5825 57.7386 61.3872C57.6161 62.7512 58.0654 63.8833 58.5965 65.1246C59.1548 66.434 60.7888 67.4706 62.1096 67.8253C63.6211 68.2481 65.2823 68.0299 66.6304 67.2387C69.7486 65.411 70.6745 60.5552 67.815 58.0045C67.3929 57.6226 66.9572 57.2816 66.4806 56.9542C66.0176 56.7633 65.5547 56.5587 65.0917 56.3677C66.1674 56.8451 66.4397 56.9542 65.9223 56.6951C65.5819 56.5314 65.2687 56.3404 64.9555 56.1495C64.6423 55.9585 64.3428 55.7539 64.0432 55.5493C63.8798 55.4402 63.73 55.3174 63.5666 55.2083C64.37 55.8085 63.8662 55.4402 63.6892 55.2902C61.9054 53.8443 59.3318 54.3217 58.6101 56.6405Z" fill="#FFE793"/>
</g>
<g opacity="0.55">
<path opacity="0.55" d="M55.4648 53.7491C52.7006 53.2444 49.2011 53.1762 47.2539 55.6314C46.2054 56.9681 45.4701 58.1821 45.4701 59.9553C45.4701 61.5648 46.1237 63.1334 47.2539 64.2791C49.6232 66.6525 53.4903 66.5979 55.8733 64.2791C56.8809 63.297 57.2894 62.2331 57.8068 60.9646C57.6026 61.4284 57.412 61.9058 57.2077 62.3695C57.6979 61.3056 58.12 60.1735 58.4605 59.0414C59.0732 56.9408 57.7388 54.1719 55.4648 53.7491Z" fill="#FFE793"/>
</g>
<g opacity="0.55">
<path opacity="0.55" d="M53.5993 66.2699C54.9337 63.0645 53.8035 58.9589 52.4282 55.9718C51.0529 52.971 46.7909 52.2481 44.1492 53.803C41.2625 55.4944 40.3638 59.2181 41.9842 62.0961C43.4275 64.6604 44.3126 67.3884 46.9815 68.9843C49.7321 70.6074 52.5099 68.9024 53.5993 66.2699Z" fill="#FECA90"/>
</g>
<g opacity="0.55">
<path opacity="0.55" d="M59.4544 71.5491C61.3199 73.6497 64.9011 73.3496 67.2432 72.4494C68.5095 71.9583 69.7759 71.4264 70.9606 70.758C71.6959 70.3488 72.295 69.7486 73.0031 69.3122C77.1834 66.7206 78.1094 60.8281 74.5554 57.2681C71.124 53.8308 64.942 54.4856 62.5318 58.8231C62.0824 59.6278 61.7556 60.5144 61.4016 61.3601C60.8161 62.7923 62.1233 59.846 61.4424 61.2237C61.2246 61.6465 60.9522 62.0421 60.6799 62.4376C59.7948 63.7471 61.5378 61.3874 60.5029 62.6695C58.4876 65.152 57.017 68.8075 59.4544 71.5491Z" fill="#FECA90"/>
</g>
<path d="M61.4152 51.4848C65.9224 53.4217 72.9759 56.4088 75.9307 60.5281C78.1366 63.6107 76.3528 67.6891 74.7052 70.458C71.9274 75.1092 66.4534 74.4681 61.9191 73.4997C52.1422 71.4264 50.8214 86.8941 60.1625 86.4985C74.0516 85.9257 89.3432 77.8372 88.2402 61.9876C87.7637 54.963 82.317 50.8574 76.6252 47.8839C72.0635 45.5105 65.3777 41.8823 60.6663 45.6196C58.9097 47.0245 59.3455 50.5982 61.4152 51.4848Z" fill="#D51F12"/>
<path d="M61.0612 45.7559C58.9506 38.2949 49.664 38.7996 43.8632 40.7501C37.1774 42.987 32.4524 45.9605 29.2388 52.3713C22.6892 65.452 30.5052 79.2966 43.836 83.6204C51.3525 86.062 55.3285 75.2455 49.0376 71.2626C46.1917 69.4622 42.4335 68.521 40.282 65.7385C38.3621 63.2423 39.4923 57.4317 41.9569 55.6176C46.3006 52.3849 63.9888 56.095 61.0612 45.7559Z" fill="#D51F12"/>
<path opacity="0.4" d="M61.1429 45.2104C59.8357 42.2642 58.9234 39.3043 55.56 37.9267C51.829 36.399 48.561 36.4399 44.7211 37.5448C36.3604 39.959 28.558 45.4286 24.2551 53.0806C19.5028 61.5238 21.5317 70.5398 27.9725 77.387C32.7656 82.4884 43.6181 91.709 50.9848 87.9307C53.0954 86.8532 53.4494 84.398 52.1422 82.5429C50.6852 80.4833 49.2282 81.1653 47.1585 79.8286C44.6666 78.2054 41.7935 75.9412 39.3833 74.1816C34.6311 70.7171 30.2328 62.5877 32.6158 56.5316C34.6583 51.3211 37.9535 49.4661 42.7739 47.3792C44.9934 46.4244 49.3099 45.9197 51.7201 45.7969C53.5311 45.7151 58.4876 46.6835 60.1761 47.5428C61.3744 48.1703 61.6059 46.247 61.1429 45.2104Z" fill="#FF8D4F"/>
<g opacity="0.4">
<path opacity="0.4" d="M60.1896 47.5562C64.1113 47.7745 69.5716 49.1248 74.7323 51.2254C79.1033 52.9986 83.5015 58.6591 84.3594 63.1876C85.3943 68.6709 82.5892 73.4176 78.6131 76.8548C76.271 78.8872 73.6294 79.992 70.5792 80.4012C69.5988 80.5376 65.5546 81.3833 64.5606 81.4106C61.9734 81.4651 58.7326 80.9332 56.9352 82.5836C53.463 85.789 56.6084 93.4683 61.9462 93.3046C77.9595 92.7999 96.1787 83.252 96.2741 65.0972C96.3149 56.7086 92.0256 49.193 85.2172 44.46C78.5178 39.7951 65.8542 38.1174 60.0807 45.1692C59.5633 45.7967 59.6041 46.9833 60.1896 47.5562Z" fill="#FF8D4F"/>
</g>
<path d="M57.1396 38.5403C60.8706 42.264 66.1539 42.9733 71.1376 42.4277C82.5212 41.2001 87.9679 44.46 91.6309 53.2032C98.8341 70.4441 83.1612 88.9126 65.8543 89.7719C57.4392 90.1948 48.7653 88.2852 41.5484 83.934C34.917 79.9375 28.1359 75.6682 25.004 68.3709C21.3684 59.8732 26.0934 48.6066 32.0711 43.6962C35.3528 40.9955 39.751 38.7312 43.9177 37.9401C51.4206 36.5216 57.126 39.9179 61.2791 41.2001C63.0901 41.7593 61.1974 39.0722 59.5225 37.9538C44.2445 27.792 22.5394 44.9374 19.4484 60.2005C17.7055 68.8073 24.1734 76.1456 30.2465 81.1924C38.5255 88.0533 47.4308 92.2544 58.0928 93.6184C67.2841 94.7914 76.0941 93.291 83.8012 88.0533C91.4947 82.8292 96.5057 73.9632 96.8325 64.6881C97.1456 55.6175 92.87 46.2196 85.3127 41.1455C81.7995 38.7858 77.1971 37.8447 73.044 38.3084C68.3598 38.8267 62.3412 40.2044 58.1472 37.4355C57.4664 36.999 56.5268 37.9265 57.1396 38.5403Z" fill="#E5411C"/>
<path d="M56.6222 92.6362C60.3804 88.7216 63.9616 85.2843 65.2961 79.7465C66.6986 73.9768 63.5395 67.9479 57.6979 66.3384C50.9576 64.4834 43.8088 69.7484 43.9178 76.8548C43.9586 79.5555 44.5305 81.3833 45.6062 83.7975C45.048 82.4472 45.0071 82.3517 45.4565 83.5384C45.8513 84.5341 46.2735 85.5162 46.7228 86.4846C45.9194 84.7387 47.8802 89.349 47.7985 89.158C48.1934 90.0583 48.6972 90.863 49.2555 91.6814C50.9168 94.123 54.4027 94.9414 56.6222 92.6362Z" fill="#F46F40"/>
<g opacity="0.55">
<path opacity="0.55" d="M59.9719 41.364C58.3651 43.369 58.1608 46.2471 57.0715 48.5932C55.6009 51.7576 53.3133 54.1855 51.6112 57.1454C49.2282 61.2647 55.0834 66.7888 59.2229 65.2066C67.107 62.1922 63.5531 48.9341 64.3701 42.5507C62.1914 42.5507 59.9991 42.5507 57.8204 42.5507C57.943 46.5062 57.0579 50.2299 56.2817 54.09C56.1319 54.813 56.0638 55.5632 55.9413 56.2861C55.8596 56.7771 55.7506 57.2682 55.6145 57.7592C55.1379 58.8913 55.8187 58.7822 57.6434 57.4318C53.6264 56.0406 51.9107 62.4241 55.9004 63.788C59.8084 65.1248 61.6739 61.1555 62.2731 58.032C63.2671 52.9579 64.5198 47.7475 64.3701 42.5507C64.2475 38.1995 58.3378 38.4723 57.8204 42.5507C57.1259 48.0066 58.6238 53.7354 56.9353 59.0823C56.5268 59.6551 56.9353 59.5597 58.188 58.7822C57.9157 58.6458 57.657 58.5094 57.3847 58.3594C57.3438 59.8461 57.6025 59.9689 58.1472 58.7276C59.3455 56.9272 60.2714 55.304 61.1157 53.2989C62.6816 49.5479 63.8118 45.2104 61.4833 41.5549C61.1701 41.0912 60.3804 40.8593 59.9719 41.364Z" fill="#FFF29A"/>
</g>
<path d="M59.7812 42.9597C59.1821 44.0645 58.76 45.2512 58.3242 46.4242C57.9021 47.5836 57.303 48.7703 57.2077 50.0115C57.1532 50.7345 58.0383 50.9254 58.5013 50.5435C60.3395 49.0022 60.6936 45.4558 60.7616 43.2188C60.7753 42.7142 60.0263 42.5096 59.7812 42.9597Z" fill="#FFE76D"/>
<path d="M61.034 49.0841C60.0672 51.4165 61.034 54.199 59.4953 56.3269C58.1609 58.1819 60.8979 59.7505 62.3957 58.5638C64.8603 56.6269 62.8587 51.4301 62.137 49.0704C61.96 48.4975 61.2383 48.5794 61.034 49.0841Z" fill="#FFE76D"/>
<path d="M54.2256 57.5408C53.6945 58.591 53.0546 59.614 52.5916 60.7052C52.1967 61.6191 52.4554 62.724 53.5311 63.0104C54.566 63.2968 55.4511 62.5057 55.5192 61.4964C55.5873 60.3779 55.6417 59.314 55.8188 58.2091C55.9549 57.3089 54.7022 56.5996 54.2256 57.5408Z" fill="#FFE76D"/>
<path d="M68.8091 63.8153C69.9801 64.6064 74.4328 65.6839 74.4328 63.2287C74.4328 61.9057 72.9486 61.5647 71.9137 61.7829C70.838 62.0012 69.8031 62.4104 68.8091 62.8741C68.4142 63.0651 68.4959 63.6107 68.8091 63.8153Z" fill="#FEC085"/>
<path d="M66.5488 68.0709C67.5292 68.6301 68.5096 69.1212 69.6534 68.9166C70.2661 68.8075 70.7019 68.1255 70.7019 67.5389C70.7019 66.8433 70.2525 66.4205 69.6534 66.1613C68.8228 65.8203 67.6109 65.9158 66.7939 66.2159C66.0177 66.5296 65.7318 67.6071 66.5488 68.0709Z" fill="#FEC085"/>
<path d="M70.6882 60.2827C71.0014 60.1463 71.3282 60.0371 71.6278 59.8735C73.0439 59.0687 71.6141 56.7772 70.375 57.732C70.0074 58.0184 69.735 58.3185 69.4355 58.6731C68.7274 59.6143 69.6125 60.7601 70.6882 60.2827Z" fill="#FEC085"/>
<path d="M44.8164 58.2772C45.116 59.2457 46.0147 59.8185 46.9951 59.914C48.3023 60.0368 48.8061 58.3045 48.0164 57.4588C47.4853 56.8996 46.6002 56.6404 45.8377 56.845C45.2522 57.0087 44.6122 57.6089 44.8164 58.2772Z" fill="#FEC085"/>
<path d="M46.0828 65.6293C46.6683 65.6702 47.5398 65.7248 48.0436 65.3974C48.6019 65.0428 49.0921 64.4699 48.8879 63.7606C48.6972 63.065 48.0028 62.6694 47.2947 62.6694C46.6547 62.6694 46.0011 63.0513 45.4428 63.3105C44.2445 63.8425 44.9526 65.5611 46.0828 65.6293Z" fill="#FEC085"/>
<g opacity="0.41">
<path opacity="0.41" d="M59.0867 39.877C53.7353 37.5718 47.8801 35.5395 42.1883 36.808C39.6964 37.3672 37.3816 38.5539 35.2846 40.0134C29.7017 43.9008 25.5759 49.916 24.2686 56.5996C22.9614 63.2831 24.5546 70.5396 28.7758 75.8728C30.7502 78.3689 33.2421 80.4149 35.8837 82.2017C45.2929 88.5443 56.8536 91.6406 68.1691 90.8222C70.5929 90.6449 73.0167 90.2902 75.2906 89.4582C79.7297 87.835 83.3245 84.466 86.3883 80.8514C88.104 78.819 89.6972 76.6503 90.9771 74.3042C91.9303 72.5447 92.7065 70.6896 93.2784 68.7664C95.7566 60.5279 94.1226 50.6525 87.6002 45.0465C82.7662 40.9 75.8625 39.6178 69.6397 40.9682C68.2916 41.2546 66.9572 41.6638 65.5819 41.6911C63.3079 41.7457 61.1565 40.7772 59.0867 39.877Z" fill="#FD6F3D"/>
</g>
<path d="M54.1711 49.9841C49.2555 42.7686 40.0778 46.7787 35.9655 52.4939C31.4175 58.8091 34.9579 71.3443 42.7467 73.3084C44.6258 73.7858 45.9058 72.1626 45.6334 70.4167C44.9662 66.1611 40.6088 63.1603 41.5756 58.5909C42.6105 53.7624 47.6623 55.0172 51.0529 55.4128C53.7354 55.7265 55.6145 52.0983 54.1711 49.9841Z" fill="#DB270C"/>
<path d="M67.6654 57.2815C69.6807 57.8544 71.7369 57.8817 73.6568 58.8365C76.3121 60.1459 75.604 63.6105 75.2772 65.9702C74.8279 69.1483 74.2696 70.8806 71.1377 72.2036C68.6459 73.2539 65.9361 73.6222 63.4987 74.8089C62.2187 75.4363 62.6136 77.4141 63.88 77.7551C72.4449 80.0466 82.9707 74.7407 84.237 65.5201C85.5715 55.7675 77.7963 47.2971 67.6791 49.7114C63.8119 50.6389 64.0298 56.2449 67.6654 57.2815Z" fill="#DB270C"/>
<path d="M58.6238 39.7268C60.0808 41.6228 63.2535 43.3823 65.5411 41.8956C66.3581 41.3636 66.3037 40.2997 65.5411 39.7541C64.5335 39.0312 63.5803 38.8402 62.3684 38.7175C61.102 38.5947 60.217 38.3628 58.9915 38.8129C58.651 38.9357 58.3515 39.3858 58.6238 39.7268Z" fill="#335606"/>
<path d="M69.6806 50.6392C70.2525 50.2846 71.0559 50.5164 71.3691 51.1166C71.8729 52.0714 71.3555 53.2308 70.7699 54.131C70.2525 54.9221 69.667 55.6587 69.0134 56.3407C68.3189 54.7994 68.2781 53.5718 68.7819 51.9486C68.8636 51.6895 68.9997 51.062 69.6806 50.6392Z" fill="#EC801E"/>
<g opacity="0.32">
<path opacity="0.32" d="M69.0407 55.7677C69.5853 55.113 70.0347 54.431 70.307 53.6126C70.5794 52.7942 70.9606 51.9621 70.9334 51.0755C70.8517 49.3296 68.4824 49.2751 68.2509 50.9937C68.0603 52.4805 68.2237 53.9808 68.0739 55.4676C68.0058 56.0405 68.7411 56.1223 69.0407 55.7677Z" fill="#FFC188"/>
</g>
<g opacity="0.36">
<path opacity="0.36" d="M69.5717 53.7083C69.8985 53.0126 70.307 52.3579 70.3887 51.5941C70.4295 51.1849 69.9393 51.0348 69.6398 51.1712C68.673 51.6077 68.9045 52.6716 68.9589 53.5446C68.9862 53.8447 69.4219 54.0356 69.5717 53.7083Z" fill="white"/>
</g>
<path d="M52.5507 48.1973C53.0273 47.7199 53.8579 47.7608 54.2937 48.2655C55.0017 49.0839 54.7703 50.3251 54.389 51.3345C54.0622 52.221 53.6537 53.0667 53.1771 53.8851C52.1422 52.5348 51.829 51.3617 51.9516 49.6704C51.9924 49.3976 51.9788 48.7565 52.5507 48.1973Z" fill="#EC801E"/>
<g opacity="0.32">
<path opacity="0.32" d="M53.0818 53.3396C53.463 52.5757 53.749 51.8119 53.8307 50.9526C53.9124 50.0932 54.103 49.193 53.8579 48.3473C53.3813 46.6696 51.0529 47.1607 51.2299 48.8793C51.3797 50.3797 51.8835 51.7846 52.0741 53.2714C52.1558 53.8306 52.8775 53.7488 53.0818 53.3396Z" fill="#FFC188"/>
</g>
<g opacity="0.36">
<path opacity="0.36" d="M53.1497 51.198C53.2859 50.516 53.5583 49.7794 53.4765 49.0838C53.4357 48.7701 53.068 48.4018 52.7276 48.661C51.8153 49.3702 52.2238 50.2705 52.5234 51.2116C52.6051 51.4981 53.0817 51.539 53.1497 51.198Z" fill="white"/>
</g>
<path d="M47.5398 48.3065C47.8938 47.8291 48.6019 47.7609 49.0512 48.1428C49.7729 48.7566 49.7321 49.8614 49.5414 50.7753C49.378 51.5801 49.1465 52.3712 48.8334 53.135C47.7713 52.112 47.3491 51.1299 47.2266 49.6568C47.213 49.4113 47.1177 48.8657 47.5398 48.3065Z" fill="#EC801E"/>
<g opacity="0.32">
<path opacity="0.32" d="M48.6699 52.6577C48.9014 51.9484 49.0512 51.2528 49.0103 50.5026C48.9695 49.7524 49.0103 48.9477 48.6971 48.252C48.0708 46.8744 46.1236 47.5973 46.5048 49.0568C46.8316 50.3253 47.4444 51.471 47.7984 52.7259C47.9346 53.217 48.5473 53.0396 48.6699 52.6577Z" fill="#FFC188"/>
</g>
<g opacity="0.36">
<path opacity="0.36" d="M48.4929 50.7756C48.5474 50.1618 48.7381 49.4662 48.5066 48.8796C48.3704 48.525 47.9755 48.4022 47.676 48.6614C46.8998 49.3434 47.4989 50.23 47.8802 50.9393C48.0436 51.253 48.4657 51.0757 48.4929 50.7756Z" fill="white"/>
</g>
<g opacity="0.48">
<g opacity="0.48">
<path opacity="0.48" d="M39.7782 50.6938C39.8463 50.2437 40.2956 49.9299 40.745 50.0254C41.453 50.1755 41.8343 50.9393 42.0386 51.6213C42.2156 52.2214 42.3517 52.8489 42.4334 53.4763C41.3441 53.1762 40.6905 52.6716 40.0777 51.7168C39.9688 51.5667 39.6965 51.2257 39.7782 50.6938Z" fill="#EC801E"/>
<g opacity="0.32">
<path opacity="0.32" d="M42.1476 53.2163C42.0386 52.6571 41.8889 52.1251 41.5893 51.6341C41.2761 51.143 41.0038 50.5974 40.5408 50.2292C39.6149 49.5199 38.5664 50.7338 39.3561 51.5795C40.037 52.3161 40.8812 52.8753 41.5757 53.5846C41.848 53.8574 42.202 53.5164 42.1476 53.2163Z" fill="#FFC188"/>
</g>
</g>
<g opacity="0.36">
<path opacity="0.36" d="M41.4259 52.0442C41.2488 51.5123 41.1671 50.8303 40.6225 50.5575C40.3774 50.4347 40.105 50.4893 39.9416 50.7348C39.4106 51.5668 40.3229 52.0715 40.9493 52.4125C41.1808 52.5489 41.5212 52.3307 41.4259 52.0442Z" fill="white"/>
</g>
</g>
<g opacity="0.48">
<g opacity="0.48">
<path opacity="0.48" d="M78.9127 54.0354C79.3621 54.049 79.7297 54.4719 79.6752 54.922C79.6072 55.6449 78.8855 56.095 78.2182 56.3814C77.6327 56.627 77.0336 56.8179 76.4208 56.968C76.5979 55.8495 77.0336 55.1539 77.9187 54.4309C78.0685 54.3082 78.3817 54.0081 78.9127 54.0354Z" fill="#EC801E"/>
<g opacity="0.32">
<path opacity="0.32" d="M76.666 56.6539C77.2107 56.4902 77.7145 56.2856 78.1775 55.931C78.6404 55.5764 79.1579 55.249 79.4574 54.7443C80.0566 53.7486 78.7494 52.8347 78.0005 53.7077C77.3468 54.4715 76.8839 55.3581 76.2439 56.1356C75.9852 56.422 76.3664 56.7357 76.666 56.6539Z" fill="#FFC188"/>
</g>
</g>
<g opacity="0.36">
<path opacity="0.36" d="M77.7962 55.7949C78.3409 55.5493 78.94 55.3993 79.1715 54.7855C79.2396 54.5945 79.1307 54.3217 78.94 54.2263C78.0005 53.7625 77.6056 54.7173 77.3196 55.4266C77.1971 55.7267 77.5647 55.8903 77.7962 55.7949Z" fill="white"/>
</g>
</g>
<g opacity="0.26">
<g opacity="0.26">
<path opacity="0.26" d="M82.2897 64.7836C82.5076 65.1792 82.3441 65.7112 81.9356 65.9021C81.282 66.2158 80.5195 65.8476 79.934 65.4247C79.4165 65.0564 78.9399 64.6472 78.5042 64.1971C79.5527 63.7743 80.3697 63.7743 81.4454 64.1562C81.6225 64.2108 82.031 64.3199 82.2897 64.7836Z" fill="#EC801E"/>
<g opacity="0.32">
<path opacity="0.32" d="M78.8856 64.2109C79.3077 64.5928 79.7571 64.9201 80.2881 65.1247C80.8328 65.3293 81.3774 65.6158 81.963 65.6021C83.134 65.6021 83.2293 64.0063 82.0855 63.8153C81.0915 63.6516 80.0975 63.7198 79.1034 63.5698C78.7222 63.5289 78.6541 64.0063 78.8856 64.2109Z" fill="#FFC188"/>
</g>
</g>
<g opacity="0.36">
<path opacity="0.36" d="M80.1928 64.729C80.6966 65.07 81.1323 65.5065 81.7723 65.3838C81.9766 65.3428 82.1536 65.111 82.14 64.9064C82.0447 63.8561 81.0506 64.0061 80.2745 64.1425C79.9749 64.1834 79.9885 64.5926 80.1928 64.729Z" fill="white"/>
</g>
</g>
<g opacity="0.26">
<g opacity="0.26">
<path opacity="0.26" d="M37.4634 65.9023C37.0412 65.7523 36.8234 65.2339 37.014 64.8111C37.3136 64.1564 38.1306 63.9381 38.8523 63.8836C39.4786 63.829 40.1186 63.8427 40.745 63.8972C40.2276 64.9066 39.5876 65.4249 38.5255 65.8341C38.3621 65.9023 37.9672 66.0796 37.4634 65.9023Z" fill="#EC801E"/>
<g opacity="0.32">
<path opacity="0.32" d="M40.4318 64.1154C39.8599 64.1018 39.3152 64.1427 38.7705 64.3337C38.2258 64.5246 37.6267 64.6747 37.1774 65.0566C36.2923 65.8204 37.2454 67.1026 38.2395 66.5024C39.0973 65.9841 39.819 65.2885 40.6632 64.7565C41.0037 64.5383 40.7449 64.1291 40.4318 64.1154Z" fill="#FFC188"/>
</g>
</g>
<g opacity="0.36">
<path opacity="0.36" d="M39.1654 64.5789C38.6208 64.6335 37.9127 64.5653 37.545 65.0427C37.3816 65.2473 37.3408 65.5337 37.545 65.7383C38.2531 66.4476 38.9339 65.6838 39.3969 65.1382C39.5467 64.9336 39.465 64.538 39.1654 64.5789Z" fill="white"/>
</g>
</g>
<g opacity="0.26">
<g opacity="0.26">
<path opacity="0.26" d="M77.2243 74.0983C77.0882 74.5347 76.5844 74.7666 76.1622 74.5893C75.495 74.3301 75.2363 73.5117 75.1546 72.7888C75.0729 72.1614 75.0457 71.5339 75.0865 70.8929C76.1214 71.3703 76.6661 71.9841 77.1154 73.0207C77.1835 73.2117 77.3877 73.5936 77.2243 74.0983Z" fill="#EC801E"/>
<g opacity="0.32">
<path opacity="0.32" d="M75.318 71.2216C75.3316 71.7945 75.3861 72.3401 75.604 72.872C75.8218 73.4176 75.9852 74.0042 76.3937 74.427C77.1971 75.2727 78.4226 74.2633 77.7963 73.2949C77.238 72.4492 76.5163 71.7672 75.9444 70.9488C75.7129 70.6215 75.3044 70.9079 75.318 71.2216Z" fill="#FFC188"/>
</g>
</g>
<g opacity="0.36">
<path opacity="0.36" d="M75.8354 72.5447C75.9307 73.1448 75.9035 73.745 76.4346 74.1406C76.6116 74.2633 76.8975 74.2088 77.0337 74.0587C77.7145 73.3085 76.9656 72.6811 76.3665 72.231C76.1078 72.0264 75.781 72.2037 75.8354 72.5447Z" fill="white"/>
</g>
</g>
<g opacity="0.58">
<g opacity="0.58">
<path opacity="0.58" d="M42.0522 49.5341C42.2156 48.9749 42.8692 48.6475 43.4139 48.8521C44.299 49.1795 44.6394 50.2298 44.7756 51.1573C44.8981 51.9757 44.939 52.7941 44.9254 53.6125C43.5773 53.026 42.842 52.2485 42.2292 50.8981C42.1339 50.6935 41.8616 50.2025 42.0522 49.5341Z" fill="#EC801E"/>
<g opacity="0.32">
<path opacity="0.32" d="M44.6122 53.2304C44.585 52.4802 44.4897 51.7845 44.1901 51.1026C43.8905 50.4069 43.659 49.6431 43.1144 49.0975C42.0523 48.0199 40.4727 49.3703 41.3306 50.5979C42.0659 51.6754 43.0463 52.5484 43.8088 53.5987C44.1084 54.0079 44.6258 53.6396 44.6122 53.2304Z" fill="#FFC188"/>
</g>
</g>
<g opacity="0.36">
<path opacity="0.36" d="M43.8088 51.5663C43.6317 50.9115 43.5636 50.2159 43.1007 49.6976C42.8964 49.4521 42.4743 49.5339 42.3245 49.7931C41.8071 50.7206 42.6241 51.3207 43.2641 51.88C43.4956 52.0846 43.8905 51.8936 43.8088 51.5663Z" fill="white"/>
</g>
</g>
<path d="M37.1366 53.9262C36.9051 53.3806 37.2047 52.7259 37.763 52.5349C38.6481 52.2212 39.5876 52.8213 40.2821 53.4488C40.8949 53.9944 41.4531 54.6082 41.957 55.2493C40.5408 55.6448 39.4787 55.5221 38.1579 54.881C37.9264 54.7582 37.409 54.5673 37.1366 53.9262Z" fill="#EC801E"/>
<g opacity="0.32">
<path opacity="0.32" d="M41.4532 55.1537C40.963 54.5945 40.4319 54.1171 39.7783 53.7761C39.1111 53.4351 38.4439 52.985 37.6813 52.9031C36.1699 52.7395 35.8158 54.7855 37.2592 55.1947C38.5119 55.5493 39.8191 55.6038 41.0719 55.9312C41.5621 56.0676 41.7255 55.4538 41.4532 55.1537Z" fill="#FFC188"/>
</g>
<g opacity="0.36">
<path opacity="0.36" d="M39.7511 54.349C39.2472 53.9808 38.757 53.4897 38.1307 53.3806C37.7494 53.3124 37.4498 53.5988 37.5179 53.9944C37.7085 55.0174 38.7843 54.9356 39.5877 54.9628C39.9281 54.9765 39.9962 54.5264 39.7511 54.349Z" fill="white"/>
</g>
<g opacity="0.58">
<g opacity="0.58">
<path opacity="0.58" d="M35.5979 59.6962C35.1349 59.3415 35.0804 58.6186 35.4617 58.1821C36.0881 57.4728 37.191 57.541 38.1034 57.7593C38.9067 57.9502 39.6829 58.1958 40.4454 58.5231C39.3969 59.5734 38.4165 59.969 36.9459 60.0508C36.7008 60.0508 36.1562 60.1326 35.5979 59.6962Z" fill="#EC801E"/>
<g opacity="0.32">
<path opacity="0.32" d="M39.9688 58.6594C39.2607 58.4139 38.5799 58.2502 37.831 58.2775C37.0821 58.3048 36.2787 58.2366 35.5842 58.5367C34.1953 59.1368 34.8761 61.0873 36.3331 60.7463C37.5995 60.4462 38.7705 59.8597 40.0233 59.5324C40.5135 59.4233 40.3501 58.7958 39.9688 58.6594Z" fill="#FFC188"/>
</g>
</g>
<g opacity="0.36">
<path opacity="0.36" d="M38.0898 58.8095C37.4771 58.7413 36.7962 58.5367 36.1971 58.755C35.8294 58.8914 35.7341 59.2869 35.9792 59.587C36.6464 60.3645 37.5451 59.7779 38.2532 59.4233C38.5664 59.246 38.3758 58.8368 38.0898 58.8095Z" fill="white"/>
</g>
</g>
<path d="M35.8702 63.1878C35.3664 62.8741 35.2439 62.1648 35.5843 61.6874C36.1289 60.9236 37.2319 60.869 38.1715 60.9918C38.9885 61.1009 39.7919 61.2646 40.568 61.5101C39.6285 62.6558 38.6889 63.1469 37.2319 63.3924C37.0004 63.4197 36.4557 63.5561 35.8702 63.1878Z" fill="#B56217"/>
<g opacity="0.32">
<path opacity="0.32" d="M40.1187 61.7148C39.397 61.5374 38.6889 61.4556 37.9536 61.5511C37.2047 61.6466 36.4149 61.6738 35.7341 62.0421C34.4132 62.7787 35.2847 64.661 36.7008 64.17C37.94 63.7471 39.0429 63.0378 40.2548 62.5877C40.7314 62.4104 40.4999 61.8102 40.1187 61.7148Z" fill="#C8976B"/>
</g>
<g opacity="0.36">
<path opacity="0.36" d="M38.2804 62.0421C37.5996 62.0285 36.9051 61.9194 36.2787 62.2195C35.9928 62.3559 35.9655 62.7923 36.1834 62.9969C36.9459 63.7335 37.7357 63.1061 38.4438 62.6423C38.7161 62.4786 38.6208 62.0421 38.2804 62.0421Z" fill="white"/>
</g>
<path d="M38.5807 69.0804C38.0088 68.9576 37.6412 68.3302 37.8046 67.7709C38.0633 66.8707 39.0845 66.4342 39.9969 66.2296C40.8002 66.0523 41.6172 65.9295 42.4343 65.8886C41.944 67.2799 41.236 68.071 39.9424 68.7939C39.7245 68.9167 39.2615 69.2168 38.5807 69.0804Z" fill="#EC931E"/>
<g opacity="0.32">
<path opacity="0.32" d="M42.0658 66.2299C41.3305 66.3117 40.636 66.4754 39.9688 66.8164C39.3016 67.171 38.5663 67.4574 38.0624 68.044C37.0684 69.1897 38.539 70.6628 39.6965 69.708C40.7177 68.8896 41.5075 67.8394 42.4879 66.9937C42.8692 66.68 42.4607 66.1889 42.0658 66.2299Z" fill="#FFCC88"/>
</g>
<g opacity="0.36">
<path opacity="0.36" d="M40.4863 67.1571C39.8599 67.3753 39.1518 67.498 38.6752 67.9891C38.471 68.1937 38.471 68.6302 38.7705 68.7666C39.7918 69.2303 40.2956 68.3574 40.8403 67.6345C41.0173 67.4162 40.7314 67.0752 40.4863 67.1571Z" fill="white"/>
</g>
<path d="M41.7118 72.3265C41.2489 72.3402 40.854 71.931 40.8676 71.4672C40.8948 70.7307 41.6029 70.2123 42.2701 69.8713C42.8556 69.5849 43.4548 69.3394 44.0812 69.1621C43.9586 70.3215 43.5637 71.0717 42.7059 71.8628C42.5561 71.9855 42.2565 72.3129 41.7118 72.3265Z" fill="#EC801E"/>
<g opacity="0.32">
<path opacity="0.32" d="M43.8632 69.489C43.3049 69.6936 42.8011 69.9392 42.3654 70.3347C41.916 70.7303 41.3986 71.0849 41.1126 71.6305C40.5544 72.6944 41.9569 73.5537 42.6786 72.6126C43.3049 71.7942 43.7271 70.8394 44.3262 70.0074C44.5713 69.68 44.1628 69.3799 43.8632 69.489Z" fill="#FFC188"/>
</g>
<g opacity="0.36">
<path opacity="0.36" d="M42.7875 70.4439C42.2564 70.7303 41.6573 70.9212 41.4394 71.5487C41.3441 71.8215 41.5484 72.067 41.7798 72.1625C42.6922 72.5308 43.0326 71.4668 43.2505 70.8258C43.3594 70.5257 43.019 70.3211 42.7875 70.4439Z" fill="white"/>
</g>
<path d="M45.1976 74.645C44.7483 74.7678 44.2717 74.4677 44.1628 74.0176C44.013 73.2947 44.5713 72.6127 45.1296 72.1353C45.6198 71.7124 46.1508 71.3305 46.7091 71.0031C46.8861 72.1625 46.6819 72.9809 46.0419 73.963C45.9329 74.0994 45.7151 74.495 45.1976 74.645Z" fill="#EC801E"/>
<g opacity="0.32">
<path opacity="0.32" d="M46.5867 71.3717C46.0965 71.6991 45.6743 72.0673 45.3339 72.5584C44.9935 73.0494 44.585 73.5268 44.4488 74.127C44.1765 75.3 45.7424 75.7774 46.2054 74.6862C46.6139 73.7314 46.7773 72.7084 47.1586 71.7536C47.3084 71.3717 46.8454 71.1807 46.5867 71.3717Z" fill="#FFC188"/>
</g>
<g opacity="0.36">
<path opacity="0.36" d="M45.7697 72.5582C45.3203 72.981 44.7893 73.3084 44.7348 73.9631C44.7076 74.2495 44.9799 74.4269 45.225 74.4541C46.2054 74.5769 46.2599 73.4584 46.3144 72.7764C46.3416 72.49 45.9603 72.3809 45.7697 72.5582Z" fill="white"/>
</g>
<path d="M75.4269 52.1669C76.0805 52.0168 76.7614 52.4942 76.8703 53.1626C77.0337 54.2265 76.1758 55.1676 75.318 55.8224C74.5691 56.3952 73.7793 56.8999 72.9351 57.3364C72.7717 55.645 73.1393 54.4856 74.1469 53.108C74.3103 52.8898 74.6508 52.3442 75.4269 52.1669Z" fill="#B56217"/>
<g opacity="0.32">
<path opacity="0.32" d="M73.1529 56.8045C73.8882 56.3681 74.5282 55.8634 75.0592 55.1814C75.5903 54.4994 76.2166 53.831 76.4753 52.9853C76.9656 51.3213 74.7324 50.4892 73.9699 52.0306C73.3026 53.3809 72.9758 54.8404 72.3495 56.1907C72.0908 56.7363 72.758 57.0501 73.1529 56.8045Z" fill="#C8976B"/>
</g>
<g opacity="0.36">
<path opacity="0.36" d="M74.3375 55.0175C74.8277 54.4992 75.4268 54.0354 75.74 53.3943C75.8898 53.0806 75.7128 52.6169 75.3179 52.6441C74.1741 52.7396 74.0515 53.7626 73.8064 54.6901C73.7111 55.0175 74.1196 55.263 74.3375 55.0175Z" fill="white"/>
</g>
<path d="M81.2957 56.6541C81.9221 56.9133 82.208 57.6907 81.9084 58.2909C81.4455 59.2593 80.2063 59.5321 79.1306 59.5867C78.1911 59.6276 77.2515 59.6003 76.312 59.4776C77.1426 58.0045 78.1094 57.2406 79.7025 56.695C79.9749 56.6132 80.5468 56.354 81.2957 56.6541Z" fill="#EC801E"/>
<g opacity="0.32">
<path opacity="0.32" d="M76.7886 59.164C77.6464 59.2186 78.4498 59.1777 79.2668 58.9185C80.0974 58.6593 80.9825 58.4684 81.677 57.9228C83.0387 56.8316 81.6634 54.8811 80.1655 55.7131C78.8583 56.436 77.7553 57.459 76.4617 58.2092C75.9579 58.5093 76.3256 59.1367 76.7886 59.164Z" fill="#FFC188"/>
</g>
<g opacity="0.36">
<path opacity="0.36" d="M78.8038 58.3863C79.5119 58.2499 80.2608 58.1953 80.8872 57.8407C81.2004 57.6497 81.214 57.1723 80.8872 56.9814C79.9068 56.4221 79.1987 57.2405 78.4907 57.8407C78.2319 58.0589 78.5179 58.4409 78.8038 58.3863Z" fill="white"/>
</g>
<path d="M82.4803 61.1821C82.9297 61.4822 83.0114 62.1369 82.6846 62.5597C82.1535 63.2281 81.1459 63.2417 80.3017 63.0917C79.5664 62.9689 78.8311 62.778 78.123 62.5188C79.0217 61.5095 79.8932 61.0866 81.2412 60.9366C81.4591 60.9093 81.9493 60.8138 82.4803 61.1821Z" fill="#EC801E"/>
<g opacity="0.32">
<path opacity="0.32" d="M78.5451 62.3553C79.1987 62.5462 79.8387 62.6553 80.5195 62.5871C81.2003 62.5189 81.9357 62.5326 82.562 62.2189C83.8012 61.6051 83.0795 59.8455 81.7586 60.2411C80.6148 60.5821 79.58 61.1822 78.4498 61.5505C78.014 61.7005 78.191 62.2598 78.5451 62.3553Z" fill="#FFC188"/>
</g>
<g opacity="0.36">
<path opacity="0.36" d="M80.2335 62.1509C80.8599 62.2055 81.5135 62.3691 82.0854 62.0691C82.385 61.9054 82.385 61.5235 82.1807 61.2916C81.5408 60.5414 80.7101 61.1415 80.0565 61.5507C79.7842 61.7281 79.9204 62.1236 80.2335 62.1509Z" fill="white"/>
</g>
<path d="M81.7723 67.1435C82.1399 67.6346 82.0038 68.3711 81.4863 68.6985C80.6693 69.2304 79.58 68.8622 78.7221 68.3984C77.9732 67.9892 77.2651 67.5255 76.5843 66.9935C77.9187 66.2297 79.0217 66.1069 80.5195 66.4343C80.7646 66.4888 81.3365 66.557 81.7723 67.1435Z" fill="#EC931E"/>
<g opacity="0.32">
<path opacity="0.32" d="M77.1154 66.9799C77.7554 67.4164 78.3954 67.771 79.1579 67.9483C79.9204 68.1257 80.6966 68.4121 81.4864 68.303C83.0523 68.0984 82.9025 65.9433 81.3502 65.8751C79.9885 65.8205 78.6677 66.0933 77.3196 66.0797C76.775 66.066 76.7614 66.7344 77.1154 66.9799Z" fill="#FFCC88"/>
</g>
<g opacity="0.36">
<path opacity="0.36" d="M79.0353 67.348C79.648 67.5798 80.2472 67.9481 80.9144 67.9208C81.3093 67.9072 81.5135 67.5253 81.3365 67.1706C80.8735 66.2158 79.8523 66.5705 79.0217 66.7205C78.6949 66.7751 78.7766 67.2388 79.0353 67.348Z" fill="white"/>
</g>
<g opacity="0.58">
<g opacity="0.58">
<path opacity="0.58" d="M79.8524 71.9989C79.8932 72.6127 79.3622 73.1447 78.7494 73.1447C77.769 73.1311 77.0746 72.2308 76.6116 71.3715C76.2167 70.6213 75.8763 69.8302 75.6039 69.0254C77.129 69.1346 78.123 69.6256 79.1988 70.7304C79.3758 70.8941 79.8115 71.276 79.8524 71.9989Z" fill="#EC801E"/>
<g opacity="0.32">
<path opacity="0.32" d="M76.0533 69.2712C76.3392 69.9941 76.6796 70.6352 77.2107 71.2081C77.7417 71.781 78.2456 72.4493 78.9536 72.7903C80.3698 73.4723 81.4455 71.6037 80.1791 70.6898C79.0762 69.8987 77.8234 69.3804 76.7069 68.6165C76.2847 68.3437 75.9035 68.8893 76.0533 69.2712Z" fill="#FFC188"/>
</g>
</g>
<g opacity="0.36">
<path opacity="0.36" d="M77.4286 70.6079C77.8235 71.1671 78.1503 71.8355 78.7494 72.1901C78.9945 72.3402 79.4302 72.2174 79.4711 71.8901C79.6209 70.7852 78.7222 70.5261 77.8779 70.1578C77.6056 70.0487 77.2243 70.3078 77.4286 70.6079Z" fill="white"/>
</g>
</g>
<g opacity="0.58">
<g opacity="0.58">
<path opacity="0.58" d="M72.3768 78.628C72.0908 79.16 71.3555 79.3509 70.8381 79.0236C70.0074 78.5053 69.8849 77.3595 69.953 76.3774C70.0074 75.5318 70.13 74.6861 70.3342 73.8541C71.5734 74.7543 72.1589 75.6954 72.4857 77.1958C72.5538 77.4277 72.7172 77.987 72.3768 78.628Z" fill="#EC801E"/>
<g opacity="0.32">
<path opacity="0.32" d="M70.5793 74.3045C70.4432 75.0683 70.4023 75.8049 70.5521 76.5687C70.7019 77.3326 70.7836 78.1646 71.2057 78.8329C72.05 80.1697 73.9427 79.133 73.3436 77.6872C72.8261 76.4323 72.0227 75.3275 71.4781 74.0999C71.2602 73.6225 70.6474 73.8953 70.5793 74.3045Z" fill="#FFC188"/>
</g>
</g>
<g opacity="0.36">
<path opacity="0.36" d="M71.0423 76.1594C71.0831 76.8551 71.0151 77.578 71.3419 78.2054C71.478 78.4646 71.9138 78.5464 72.118 78.3009C72.8125 77.4416 72.1725 76.7323 71.6414 75.9958C71.478 75.7639 71.0287 75.8184 71.0423 76.1594Z" fill="white"/>
</g>
</g>
<path d="M66.6849 79.7192C66.3173 80.0466 65.7181 79.992 65.4049 79.5964C64.9147 78.969 65.1462 78.0688 65.4594 77.3459C65.7317 76.7048 66.0585 76.1046 66.4398 75.5181C67.1479 76.5411 67.3249 77.4277 67.1615 78.6553C67.1479 78.8599 67.1206 79.3237 66.6849 79.7192Z" fill="#EC801E"/>
<g opacity="0.32">
<path opacity="0.32" d="M66.508 75.9411C66.1948 76.4867 65.9633 77.0323 65.868 77.6598C65.7727 78.2872 65.5956 78.9419 65.7454 79.5693C66.0178 80.8106 67.7471 80.5514 67.6926 79.2829C67.6381 78.1781 67.3386 77.1278 67.2569 76.0366C67.2024 75.6001 66.6714 75.641 66.508 75.9411Z" fill="#FFC188"/>
</g>
<g opacity="0.36">
<path opacity="0.36" d="M66.29 77.4824C66.0993 78.028 65.7453 78.6009 65.9359 79.1874C66.0176 79.4193 66.29 79.6375 66.5487 79.5284C67.5018 79.1329 67.2023 78.2599 66.9163 77.4824C66.7938 77.1687 66.3989 77.1687 66.29 77.4824Z" fill="white"/>
</g>
<path d="M75.6584 76.349C75.495 76.7991 74.9504 77.0173 74.5146 76.8264C73.8202 76.5126 73.5887 75.6397 73.5342 74.8758C73.4798 74.2075 73.4798 73.5391 73.5478 72.8708C74.6099 73.43 75.1682 74.0984 75.604 75.2305C75.6584 75.3942 75.8491 75.817 75.6584 76.349Z" fill="#EC801E"/>
<g opacity="0.32">
<path opacity="0.32" d="M73.7657 73.1995C73.7521 73.8133 73.7929 74.3861 73.9972 74.959C74.2014 75.5455 74.3512 76.173 74.7597 76.6504C75.5631 77.5915 76.9248 76.5822 76.2984 75.5182C75.7538 74.6044 75.0048 73.8405 74.4465 72.9403C74.2287 72.5857 73.7793 72.8721 73.7657 73.1995Z" fill="#FFC188"/>
</g>
<g opacity="0.36">
<path opacity="0.36" d="M74.2695 74.5497C74.3512 75.1225 74.2967 75.8318 74.7597 76.2547C74.9503 76.432 75.2771 76.4593 75.4542 76.2547C76.1214 75.4908 75.3997 74.8361 74.8142 74.3178C74.6372 74.1541 74.2287 74.236 74.2695 74.5497Z" fill="white"/>
</g>
<path d="M54.811 73.7722C54.0349 76.7321 52.9183 79.5965 52.0468 82.5154C51.3388 84.9024 49.9771 87.8896 51.9243 89.9083C52.4689 90.4811 53.2451 90.3447 53.8034 89.9083C55.8051 88.3533 55.3829 84.8478 55.8187 82.5154C56.3497 79.6647 56.6901 76.9094 56.5404 74.0041C56.4859 73.0356 55.0697 72.7765 54.811 73.7722Z" fill="#F87048"/>
<path d="M51.475 79.3923C50.6036 81.4111 49.31 83.7844 49.6504 86.0486C49.7049 86.4306 50.304 86.4033 50.3993 86.0486C50.6444 85.0529 50.7397 84.0299 50.9984 83.0342C51.298 81.8885 51.7338 80.7836 52.1559 79.6788C52.292 79.2832 51.6384 78.9968 51.475 79.3923Z" fill="#F87048"/>
<path d="M57.1668 85.1208C56.663 86.253 56.023 87.3441 55.3286 88.3671C55.0835 88.7491 55.6554 89.1992 55.9549 88.8582C56.8673 87.8488 57.4255 86.7031 57.8613 85.4209C58.0111 85.0117 57.3438 84.7253 57.1668 85.1208Z" fill="#F87048"/>
<path d="M57.7387 49.3841C57.9294 48.934 58.1336 48.4839 58.2834 48.0065C58.3787 47.6791 58.2698 47.2972 58.0383 47.0653C57.9975 47.0244 57.9702 46.9971 57.9294 46.9562C57.6707 46.697 57.3302 46.697 57.017 46.8334C56.9626 46.8607 56.9081 46.8743 56.8673 46.9016C56.5541 47.0517 56.4043 47.4199 56.3907 47.7473C56.3634 48.1701 56.3907 48.593 56.4043 49.0158C56.4179 49.6705 57.4392 50.0934 57.7387 49.3841Z" fill="#F87048"/>
<path d="M64.8331 49.9841C64.3565 49.7113 63.8254 50.3524 64.2339 50.7616C64.7378 51.2799 65.4595 50.3524 64.8331 49.9841Z" fill="#F87048"/>
<path d="M77.0609 72.272C77.0881 73.0631 77.5511 73.9087 78.4498 73.7451C78.7085 73.7041 78.8991 73.3631 78.8038 73.1176C78.6404 72.7221 78.2455 72.5311 78.1502 72.1219C78.0141 71.5081 77.0473 71.6445 77.0609 72.272Z" fill="#FEFCFD"/>
<path d="M75.7809 76.3504C75.7945 76.6232 75.849 76.7596 76.0124 76.9778C76.1622 77.1824 76.489 77.1279 76.6524 76.9778C76.8022 76.8414 76.8702 76.705 76.9111 76.5004C77.0745 75.6548 75.7537 75.5457 75.7809 76.3504Z" fill="#FEFCFD"/>
<path d="M78.0005 53.1623C78.5315 53.1487 78.9264 53.0123 79.0898 52.4804C79.1851 52.1803 78.8583 51.812 78.5451 51.9348C78.2183 52.0575 78.0958 52.2621 77.8098 52.4394C77.4966 52.644 77.6056 53.1623 78.0005 53.1623Z" fill="#FEFCFD"/>
<path d="M41.6437 63.6927C41.6301 63.6927 41.6165 63.7064 41.6029 63.7064C40.8676 64.0474 41.4122 65.084 42.1203 64.9476C42.1612 64.9476 42.1884 64.934 42.2292 64.934C42.7058 64.8385 42.8011 64.2111 42.5016 63.8973C42.2701 63.6518 41.9705 63.5427 41.6437 63.6927Z" fill="#FEFCFD"/>
<path d="M34.2498 68.6303C34.3724 69.2577 34.6311 69.9943 35.2166 70.3353C35.5842 70.5535 35.9383 70.1307 35.7613 69.7897C35.5298 69.2987 35.1485 68.9577 34.9715 68.4257C34.8081 67.9756 34.1545 68.1529 34.2498 68.6303Z" fill="#FEFCFD"/>
<path d="M37.7494 49.7253C38.3621 49.8617 38.7162 49.7526 39.0975 49.2615C39.3153 48.9751 39.0158 48.5523 38.7026 48.5659C38.5119 48.5659 38.2668 48.5523 38.0898 48.5114C37.2864 48.334 36.946 49.548 37.7494 49.7253Z" fill="#FEFCFD"/>
<path d="M56.6905 48.5255C56.7185 48.5255 56.7185 48.4975 56.6905 48.4975C56.6766 48.4975 56.6766 48.5255 56.6905 48.5255Z" fill="#FEFCFD"/>
<path d="M74.746 52.3168C75.1681 52.2486 75.4268 52.0986 75.5902 51.703C75.6719 51.4848 75.4268 51.3347 75.2498 51.362C74.9094 51.4166 74.7051 51.6075 74.46 51.8394C74.2149 52.044 74.4736 52.3577 74.746 52.3168Z" fill="#FEFCFD"/>
<g opacity="0.41">
<path opacity="0.41" d="M57.8749 55.1808C56.0366 56.5585 55.2196 57.8952 54.2664 59.9684C53.218 62.2599 52.3192 65.0016 53.2043 67.484C54.103 69.9938 57.5072 71.4669 59.5497 69.1618C62.5318 65.7927 62.2867 59.7093 60.4076 55.8492C59.9991 55.0035 58.6374 54.6079 57.8749 55.1808Z" fill="#FFF5CC"/>
</g>
</svg>
